<svg width="18" height="18" viewBox="0 0 18 18" fill="none" xmlns="http://www.w3.org/2000/svg">
<path d="M6.75 8.25031C6.336 8.25031 6 7.91507 6 7.50034C6 6.51937 6.7785 6.09113 7.11075 5.90814C7.32825 5.78889 7.557 5.5069 7.48725 5.10866C7.4355 4.81467 7.18575 4.56493 6.8925 4.51393C6.663 4.47194 6.441 4.53043 6.2685 4.67593C6.0975 4.81842 6 5.02842 6 5.25116C6 5.6659 5.664 6.00114 5.25 6.00114C4.836 6.00114 4.5 5.6659 4.5 5.25116C4.5 4.58443 4.79325 3.95595 5.304 3.52697C5.81475 3.09798 6.48675 2.91649 7.15125 3.03723C8.058 3.19548 8.80425 3.94095 8.964 4.84992C9.13125 5.80389 8.6775 6.75711 7.8345 7.22285C7.49925 7.40734 7.49925 7.46134 7.49925 7.50109C7.49925 7.91582 7.16325 8.25106 6.74925 8.25106L6.75 8.25031ZM6.75 9.00029C6.2325 9.00029 5.8125 9.42028 5.8125 9.93776C5.8125 10.4552 6.2325 10.8752 6.75 10.8752C7.2675 10.8752 7.6875 10.4552 7.6875 9.93776C7.6875 9.42028 7.2675 9.00029 6.75 9.00029ZM14.997 6.81036C14.9925 7.38709 14.9287 7.94882 14.811 8.49181C15.8392 9.31753 16.5 10.582 16.5 12.0002V15.7501C16.5 16.1641 16.164 16.5 15.75 16.5H12C10.5817 16.5 9.31725 15.8393 8.4915 14.8111C7.9485 14.9281 7.38675 14.9926 6.81 14.9971C7.84875 16.7888 9.78375 18 12 18H15.75C16.9928 18 18 16.9928 18 15.7501V12.0002C18 9.78401 16.7887 7.84908 14.997 6.81036ZM13.4827 7.2386C13.6215 5.27891 12.9068 3.36122 11.523 1.97677C10.1392 0.592311 8.223 -0.124666 6.26175 0.0178296C2.86725 0.257822 0 3.44222 0 6.97235V10.7507C0 12.2664 1.2315 13.5001 2.74575 13.5001H6.1035C9.99375 13.5001 13.2352 10.75 13.4827 7.2386ZM10.4625 3.03798C11.5395 4.1142 12.0945 5.60665 11.9872 7.13285C11.7975 9.81626 9.15825 11.9994 6.1035 11.9994H2.74575C2.05875 11.9994 1.5 11.4392 1.5 10.75V6.97161C1.5 4.19969 3.729 1.70003 6.3675 1.51328C6.49275 1.50428 6.61725 1.49978 6.74175 1.49978C8.13525 1.49978 9.47475 2.04876 10.4625 3.03798Z" fill="black"/>
</svg>
