<svg width="22" height="22" viewBox="0 0 22 22" fill="none" xmlns="http://www.w3.org/2000/svg">
<path d="M7.79167 8.70825C7.79167 9.21333 7.909 9.69183 8.118 10.1172C7.66883 10.6928 7.38925 11.4069 7.35167 12.1852C6.48908 11.2795 5.95833 10.0548 5.95833 8.70917C5.95833 5.58242 8.82017 3.11108 12.0624 3.77658C13.9709 4.16892 15.5173 5.70617 15.9243 7.61192C16.0472 8.18758 16.0701 8.75133 16.0078 9.29033C15.9546 9.74683 15.554 10.0842 15.0938 10.0842H15.0526C14.5099 10.0842 14.1286 9.60108 14.1882 9.06208C14.2285 8.7 14.2074 8.31958 14.1148 7.93183C13.8417 6.78325 12.9048 5.85283 11.7544 5.58792C9.65892 5.10667 7.79075 6.69433 7.79075 8.70917L7.79167 8.70825ZM4.22583 7.52117C4.477 6.06092 5.19108 4.72992 6.29842 3.69133C7.7 2.37775 9.53517 1.72875 11.4593 1.84792C15.0828 2.08258 17.9163 5.257 17.8741 9.0575C17.8567 10.6488 16.5238 11.9157 14.9334 11.9157H12.7279C12.5043 11.1558 11.8094 10.5966 10.9771 10.5966C9.96417 10.5966 9.14375 11.417 9.14375 12.4299C9.14375 13.4428 9.96417 14.2633 10.9771 14.2633C11.4703 14.2633 11.9167 14.0662 12.2458 13.749H14.9334C17.5175 13.749 19.6708 11.6911 19.7074 9.10792C19.7753 4.322 16.1801 0.316167 11.5775 0.0191672C9.1355 -0.139416 6.81908 0.690167 5.04533 2.35483C3.67125 3.64275 2.75733 5.34775 2.42825 7.182C2.32833 7.73933 2.76925 8.25083 3.33483 8.25083C3.7675 8.25083 4.15342 7.94925 4.22583 7.52208V7.52117ZM11 15.5833C7.61292 15.5833 4.68233 17.6843 3.70792 20.8101C3.55667 21.2932 3.82708 21.8074 4.31017 21.9587C4.79233 22.1044 5.30658 21.8386 5.45783 21.3564C6.18108 19.0373 8.459 17.4166 10.9991 17.4166C13.5392 17.4166 15.818 19.0373 16.5403 21.3564C16.6632 21.7488 17.0243 21.9999 17.4158 21.9999C17.5065 21.9999 17.5973 21.9862 17.6889 21.9587C18.172 21.8074 18.4415 21.2932 18.2912 20.8101C17.3168 17.6843 14.3862 15.5833 10.9991 15.5833H11Z" fill="black"/>
</svg>
