<svg width="18" height="18" viewBox="0 0 18 18" fill="none" xmlns="http://www.w3.org/2000/svg">
<g clip-path="url(#clip0_52_1203)">
<path d="M7.5 17.25C7.5 17.664 7.164 18 6.75 18H3.75C1.68225 18 0 16.3177 0 14.25V3.75C0 1.68225 1.68225 0 3.75 0H9.75C11.8177 0 13.5 1.68225 13.5 3.75V5.25C13.5 5.664 13.164 6 12.75 6C12.336 6 12 5.664 12 5.25V3.75C12 2.5095 10.9905 1.5 9.75 1.5H3.75C2.5095 1.5 1.5 2.5095 1.5 3.75V14.25C1.5 15.4905 2.5095 16.5 3.75 16.5H6.75C7.164 16.5 7.5 16.836 7.5 17.25ZM10.5 4.5C10.5 4.086 10.164 3.75 9.75 3.75H3.75C3.336 3.75 3 4.086 3 4.5C3 4.914 3.336 5.25 3.75 5.25H9.75C10.164 5.25 10.5 4.914 10.5 4.5ZM3.75 11.25C3.336 11.25 3 11.586 3 12C3 12.414 3.336 12.75 3.75 12.75H5.25C5.664 12.75 6 12.414 6 12C6 11.586 5.664 11.25 5.25 11.25H3.75ZM18 12.75C18 15.645 15.645 18 12.75 18C9.855 18 7.5 15.645 7.5 12.75C7.5 9.855 9.855 7.5 12.75 7.5C15.645 7.5 18 9.855 18 12.75ZM16.5 12.75C16.5 10.6823 14.8177 9 12.75 9C10.6823 9 9 10.6823 9 12.75C9 14.8177 10.6823 16.5 12.75 16.5C14.8177 16.5 16.5 14.8177 16.5 12.75ZM12.75 9.75C12.129 9.75 11.625 10.254 11.625 10.875C11.625 11.496 12.129 12 12.75 12C13.371 12 13.875 11.496 13.875 10.875C13.875 10.254 13.371 9.75 12.75 9.75ZM12.75 12.75C12.336 12.75 12 13.086 12 13.5V15C12 15.414 12.336 15.75 12.75 15.75C13.164 15.75 13.5 15.414 13.5 15V13.5C13.5 13.086 13.164 12.75 12.75 12.75ZM7.5 8.25C7.5 7.836 7.164 7.5 6.75 7.5H3.75C3.336 7.5 3 7.836 3 8.25C3 8.664 3.336 9 3.75 9H6.75C7.164 9 7.5 8.664 7.5 8.25Z" fill="black"/>
</g>
<defs>
<clipPath id="clip0_52_1203">
<rect width="18" height="18" fill="white"/>
</clipPath>
</defs>
</svg>
