<svg width="20" height="18" viewBox="0 0 20 18" fill="none" xmlns="http://www.w3.org/2000/svg">
<path d="M17.6094 14.6753C18.2522 14.9967 18.7834 15.4487 19.2031 16.0313C19.6229 16.6139 19.8885 17.2701 20 18H18.9179C18.8457 17.6183 18.7113 17.2634 18.5145 16.9353C18.3178 16.6072 18.0784 16.3259 17.7964 16.0916C17.5143 15.8572 17.1963 15.6697 16.8421 15.5291C16.4879 15.3884 16.1207 15.3215 15.7403 15.3282C15.3533 15.3282 14.9861 15.3951 14.6385 15.5291C14.2909 15.663 13.9728 15.8471 13.6842 16.0815C13.3956 16.3159 13.1563 16.6005 12.9661 16.9353C12.7759 17.2701 12.6414 17.625 12.5627 18H11.4806C11.5855 17.2768 11.8478 16.6239 12.2676 16.0413C12.6873 15.4587 13.2218 15.0034 13.8711 14.6753C13.4973 14.3739 13.2087 14.009 13.0054 13.5804C12.8021 13.1519 12.6972 12.6965 12.6906 12.2144C12.6906 11.9131 12.73 11.6218 12.8087 11.3405C12.8874 11.0593 13.0054 10.7948 13.1628 10.547C13.3202 10.2992 13.5071 10.0783 13.7236 9.88407C13.94 9.68988 14.1827 9.52582 14.4515 9.39189C14.2745 9.13074 14.0712 8.89971 13.8416 8.69882C13.6121 8.49793 13.3628 8.32048 13.094 8.16647C12.8251 8.01245 12.543 7.90196 12.2479 7.835C11.9528 7.76804 11.6478 7.72786 11.333 7.71447C10.8083 7.71447 10.3066 7.81826 9.82784 8.02584C9.34907 8.23343 8.93261 8.53811 8.57846 8.93989C8.73586 9.37515 8.81456 9.8238 8.81456 10.2858C8.81456 10.9019 8.68011 11.4811 8.41121 12.0235C8.14232 12.5659 7.76521 13.0213 7.27988 13.3896C7.70618 13.6106 8.08985 13.8818 8.43089 14.2032C8.77193 14.5246 9.06706 14.8862 9.31628 15.288C9.5655 15.6898 9.75242 16.1183 9.87703 16.5737C10.0016 17.029 10.0672 17.5045 10.0738 18H8.81456C8.81456 17.471 8.71618 16.9721 8.51943 16.5034C8.32268 16.0346 8.05378 15.6262 7.71274 15.2779C7.3717 14.9297 6.96836 14.6518 6.50271 14.4443C6.03706 14.2367 5.54845 14.1362 5.03689 14.1429C4.51222 14.1429 4.02361 14.2434 3.57108 14.4443C3.11854 14.6451 2.71848 14.9197 2.37088 15.2679C2.02328 15.6161 1.75111 16.0279 1.55435 16.5034C1.3576 16.9788 1.25922 17.4777 1.25922 18H0C0 17.5112 0.0655845 17.0391 0.196754 16.5837C0.327923 16.1284 0.514839 15.6998 0.757501 15.298C1.00016 14.8963 1.29202 14.5347 1.63305 14.2132C1.97409 13.8918 2.36104 13.6173 2.7939 13.3896C2.30858 13.0213 1.93146 12.5659 1.66257 12.0235C1.39367 11.4811 1.25922 10.9019 1.25922 10.2858C1.25922 9.75684 1.3576 9.25797 1.55435 8.78922C1.75111 8.32048 2.02 7.91201 2.36104 7.5638C2.70208 7.21559 3.10215 6.93769 3.56124 6.73011C4.02033 6.52252 4.51222 6.42208 5.03689 6.42877C5.59436 6.42877 6.12232 6.54931 6.62076 6.79037C7.1192 7.03144 7.55206 7.36626 7.91933 7.79482C8.08985 7.62741 8.27349 7.47675 8.47024 7.34282C8.667 7.20889 8.87359 7.08166 9.09002 6.96113C8.60469 6.59283 8.22758 6.13748 7.95868 5.59508C7.68979 5.05268 7.55534 4.47345 7.55534 3.85739C7.55534 3.32838 7.65371 2.82951 7.85047 2.36076C8.04722 1.89202 8.31612 1.48355 8.65716 1.13534C8.9982 0.787131 9.39826 0.509234 9.85735 0.301648C10.3164 0.0940623 10.8083 -0.00638242 11.333 0.00031389C11.8511 0.00031389 12.3397 0.100759 12.7988 0.301648C13.2579 0.502537 13.658 0.777086 13.999 1.12529C14.3401 1.4735 14.6122 1.88533 14.8155 2.36076C15.0189 2.8362 15.1172 3.33508 15.1107 3.85739C15.1107 4.47345 14.9762 5.05268 14.7073 5.59508C14.4384 6.13748 14.0613 6.59283 13.576 6.96113C14.0351 7.20889 14.4483 7.51023 14.8155 7.86513C15.1828 8.22004 15.4943 8.63186 15.7501 9.1006C16.1699 9.1006 16.5634 9.18096 16.9306 9.34167C17.2979 9.50238 17.6226 9.72671 17.9046 10.0146C18.1866 10.3026 18.403 10.6307 18.5539 10.999C18.7047 11.3673 18.7834 11.7724 18.79 12.2144C18.79 12.6965 18.6883 13.1519 18.485 13.5804C18.2817 14.009 17.9898 14.3739 17.6094 14.6753ZM5.03689 12.8572C5.38449 12.8572 5.70913 12.7903 6.01082 12.6563C6.31251 12.5224 6.58141 12.3383 6.81751 12.1039C7.05362 11.8695 7.23397 11.5983 7.35858 11.2903C7.48319 10.9823 7.54878 10.6474 7.55534 10.2858C7.55534 9.93094 7.48975 9.59948 7.35858 9.29145C7.22741 8.98342 7.04706 8.70887 6.81751 8.4678C6.58797 8.22673 6.32235 8.04258 6.02066 7.91535C5.71897 7.78812 5.39105 7.72116 5.03689 7.71447C4.68929 7.71447 4.36465 7.78143 4.06296 7.91535C3.76127 8.04928 3.49238 8.23343 3.25627 8.4678C3.02017 8.70217 2.83981 8.97337 2.7152 9.2814C2.59059 9.58943 2.525 9.92425 2.51845 10.2858C2.51845 10.6408 2.58403 10.9722 2.7152 11.2803C2.84637 11.5883 3.02673 11.8628 3.25627 12.1039C3.48582 12.345 3.75143 12.5291 4.05312 12.6563C4.35481 12.7836 4.68273 12.8505 5.03689 12.8572ZM8.81456 3.85739C8.81456 4.21229 8.88014 4.54376 9.01131 4.85179C9.14248 5.15982 9.32284 5.43437 9.55239 5.67544C9.78193 5.91651 10.0475 6.10065 10.3492 6.22788C10.6509 6.35511 10.9788 6.42208 11.333 6.42877C11.6806 6.42877 12.0052 6.36181 12.3069 6.22788C12.6086 6.09396 12.8775 5.90981 13.1136 5.67544C13.3497 5.44107 13.5301 5.16987 13.6547 4.86184C13.7793 4.55381 13.8449 4.21899 13.8515 3.85739C13.8515 3.50249 13.7859 3.17102 13.6547 2.86299C13.5235 2.55496 13.3432 2.28041 13.1136 2.03934C12.8841 1.79827 12.6185 1.61413 12.3168 1.4869C12.0151 1.35967 11.6872 1.2927 11.333 1.28601C10.9854 1.28601 10.6608 1.35297 10.3591 1.4869C10.0574 1.62082 9.78849 1.80497 9.55239 2.03934C9.31628 2.27371 9.13592 2.54491 9.01131 2.85294C8.8867 3.16097 8.82112 3.49579 8.81456 3.85739ZM15.7403 10.1854C15.4648 10.1854 15.2091 10.239 14.9729 10.3461C14.7368 10.4533 14.527 10.5972 14.3433 10.778C14.1597 10.9588 14.0154 11.1731 13.9105 11.4209C13.8055 11.6686 13.7531 11.9331 13.7531 12.2144C13.7531 12.4956 13.8055 12.7568 13.9105 12.9979C14.0154 13.2389 14.1564 13.4532 14.3335 13.6407C14.5106 13.8282 14.7204 13.9755 14.9631 14.0827C15.2058 14.1898 15.4648 14.2434 15.7403 14.2434C16.0157 14.2434 16.2715 14.1898 16.5076 14.0827C16.7437 13.9755 16.9536 13.8315 17.1372 13.6507C17.3209 13.4699 17.4652 13.2557 17.5701 13.0079C17.675 12.7601 17.7275 12.4956 17.7275 12.2144C17.7275 11.9331 17.675 11.672 17.5701 11.4309C17.4652 11.1899 17.3242 10.9756 17.1471 10.7881C16.97 10.6006 16.7601 10.4533 16.5175 10.3461C16.2748 10.239 16.0157 10.1854 15.7403 10.1854Z" fill="black"/>
</svg>
