<svg width="20" height="19" viewBox="0 0 20 19" fill="none" xmlns="http://www.w3.org/2000/svg">
<path fill-rule="evenodd" clip-rule="evenodd" d="M3.75 18.8085H16.75C17.4793 18.8085 18.1788 18.5187 18.6945 18.003C19.2103 17.4873 19.5 16.7878 19.5 16.0585V10.5585C19.5 10.3596 19.421 10.1688 19.2803 10.0281C19.1397 9.88749 18.9489 9.80847 18.75 9.80847H15.5V2.00147C15.5 0.578469 13.891 -0.249531 12.733 0.577469L12.558 0.702469C12.1748 0.974496 11.7163 1.1203 11.2464 1.11958C10.7764 1.11886 10.3184 0.971664 9.936 0.698469C9.29762 0.244137 8.53355 0 7.75 0C6.96645 0 6.20238 0.244137 5.564 0.698469C5.18162 0.971664 4.72359 1.11886 4.25364 1.11958C3.78369 1.1203 3.32521 0.974496 2.942 0.702469L2.767 0.577469C1.609 -0.249531 0 0.577469 0 2.00147V15.0585C0 16.053 0.395088 17.0069 1.09835 17.7101C1.80161 18.4134 2.75544 18.8085 3.75 18.8085ZM6.436 1.91847C6.81995 1.64591 7.27915 1.4995 7.75 1.4995C8.22085 1.4995 8.68005 1.64591 9.064 1.91847C9.7007 2.37359 10.4636 2.61868 11.2462 2.61958C12.0288 2.62048 12.7923 2.37713 13.43 1.92347L13.605 1.79847C13.6423 1.77188 13.6863 1.75607 13.732 1.75277C13.7777 1.74947 13.8235 1.75881 13.8643 1.77977C13.9051 1.80072 13.9393 1.83249 13.9632 1.87159C13.9872 1.91069 13.9999 1.95562 14 2.00147V16.0585C14 16.5085 14.108 16.9335 14.3 17.3085H3.75C3.15326 17.3085 2.58097 17.0714 2.15901 16.6495C1.73705 16.2275 1.5 15.6552 1.5 15.0585V2.00147C1.50012 1.95562 1.51284 1.91069 1.53678 1.87159C1.56072 1.83249 1.59495 1.80072 1.63573 1.77977C1.6765 1.75881 1.72226 1.74947 1.76798 1.75277C1.81371 1.75607 1.85765 1.77188 1.895 1.79847L2.07 1.92347C2.70775 2.37713 3.47116 2.62048 4.2538 2.61958C5.03644 2.61868 5.79929 2.37359 6.436 1.91847ZM15.5 16.0585V11.3085H18V16.0585C18 16.39 17.8683 16.7079 17.6339 16.9424C17.3995 17.1768 17.0815 17.3085 16.75 17.3085C16.4185 17.3085 16.1005 17.1768 15.8661 16.9424C15.6317 16.7079 15.5 16.39 15.5 16.0585Z" fill="black"/>
</svg>
