<svg width="15" height="20" viewBox="0 0 15 20" fill="none" xmlns="http://www.w3.org/2000/svg">
<path d="M-3.52859e-05 20.0001H1.66664V15.7976C1.6673 15.1443 1.92713 14.5179 2.38911 14.0559C2.85108 13.5939 3.47747 13.3341 4.13081 13.3334H10.8692C11.5225 13.3341 12.1489 13.5939 12.6109 14.0559C13.0728 14.5179 13.3327 15.1443 13.3333 15.7976V20.0001H15V15.7976C14.9987 14.7024 14.563 13.6525 13.7886 12.8781C13.0142 12.1037 11.9643 11.6681 10.8692 11.6667H4.13081C3.03565 11.6681 1.98572 12.1037 1.21132 12.8781C0.436925 13.6525 0.00128746 14.7024 -3.52859e-05 15.7976V20.0001Z" fill="black"/>
<path d="M7.49998 10C8.48889 10 9.4556 9.70678 10.2778 9.15737C11.1001 8.60797 11.741 7.82707 12.1194 6.91344C12.4978 5.9998 12.5969 4.99447 12.4039 4.02456C12.211 3.05465 11.7348 2.16374 11.0355 1.46447C10.3363 0.765208 9.44535 0.289003 8.47544 0.0960761C7.50553 -0.0968505 6.5002 0.00216644 5.58656 0.380606C4.67293 0.759045 3.89203 1.39991 3.34263 2.22216C2.79322 3.0444 2.49997 4.01111 2.49997 5.00002C2.5013 6.3257 3.02851 7.5967 3.9659 8.5341C4.9033 9.47149 6.1743 9.9987 7.49998 10ZM7.49998 1.66667C8.15926 1.66667 8.80372 1.86217 9.35189 2.22844C9.90006 2.59472 10.3273 3.11531 10.5796 3.7244C10.8319 4.33349 10.8979 5.00371 10.7693 5.65032C10.6407 6.29692 10.3232 6.89087 9.85701 7.35704C9.39084 7.82322 8.79689 8.14069 8.15029 8.26931C7.50368 8.39793 6.83346 8.33191 6.22437 8.07962C5.61528 7.82733 5.09468 7.40009 4.72841 6.85192C4.36214 6.30376 4.16664 5.65929 4.16664 5.00002C4.16664 4.11596 4.51783 3.26811 5.14296 2.64299C5.76808 2.01786 6.61593 1.66667 7.49998 1.66667Z" fill="black"/>
</svg>
