<svg width="19" height="19" viewBox="0 0 19 19" fill="none" xmlns="http://www.w3.org/2000/svg">
<path d="M9.16662 0.000495576C9.38921 0.000495576 9.61179 0.000495576 9.83438 0.000495576C9.85024 0.00892018 9.86561 0.0232916 9.88246 0.0252738C10.6072 0.117449 11.2115 0.448486 11.7469 0.936122C13.825 2.82868 15.9076 4.7153 17.9897 6.6034C18.3729 6.95079 18.655 7.36558 18.8166 7.85619C18.8934 8.08861 18.9395 8.33144 19 8.5698V16.0261C18.9866 16.0915 18.9703 16.1564 18.9594 16.2218C18.6926 17.8706 17.4047 19.0079 15.748 19C11.5808 18.9801 7.41371 18.994 3.24607 18.991C3.01853 18.991 2.78652 18.9791 2.56443 18.9345C1.06087 18.6303 0.00396798 17.3354 0.00148931 15.7986C-0.00148509 13.524 0.00248078 11.2493 2.10946e-06 8.97468C-0.000989359 8.0118 0.347512 7.20601 1.06087 6.5593C3.16229 4.65286 5.26321 2.74642 7.36562 0.840478C7.76667 0.477229 8.22968 0.226969 8.75467 0.0931662C8.89099 0.0584767 9.0293 0.0312206 9.16662 0V0.000495576ZM9.46406 17.1728C11.5417 17.1728 13.6193 17.1743 15.6969 17.1718C16.4494 17.1708 16.9992 16.6396 17.0007 15.8987C17.0052 13.5993 17.0042 11.2999 17.0007 9.00045C17.0002 8.56931 16.8188 8.19912 16.5099 7.91715C14.4606 6.0454 12.3934 4.19298 10.3524 2.31181C9.78381 1.788 8.99361 1.93023 8.56926 2.3128C7.94513 2.87576 7.32348 3.44219 6.70084 4.00664C5.24487 5.32732 3.79088 6.65048 2.32946 7.96522C2.13215 8.14263 1.98096 8.33342 1.93931 8.59458C1.91304 8.75861 1.90065 8.92661 1.90015 9.09263C1.89767 11.3242 1.89817 13.5552 1.89866 15.7867C1.89866 16.6426 2.43009 17.1723 3.28721 17.1723C5.346 17.1723 7.40528 17.1723 9.46406 17.1723V17.1728Z" fill="#FF541E"/>
</svg>
