<svg width="8" height="8" viewBox="0 0 8 8" fill="none" xmlns="http://www.w3.org/2000/svg">
<path d="M7.20492 3.19995C7.20492 3.09386 7.16277 2.99212 7.08776 2.9171C7.01274 2.84209 6.911 2.79994 6.80492 2.79994C6.69883 2.79994 6.59709 2.84209 6.52207 2.9171C6.44706 2.99212 6.40492 3.09386 6.40492 3.19995H7.20492ZM1.60492 3.19995C1.60492 3.09386 1.56277 2.99212 1.48776 2.9171C1.41274 2.84209 1.311 2.79994 1.20492 2.79994C1.09883 2.79994 0.997087 2.84209 0.922073 2.9171C0.847058 2.99212 0.804915 3.09386 0.804915 3.19995H1.60492ZM7.32212 4.28276C7.39756 4.35562 7.4986 4.39594 7.60348 4.39503C7.70835 4.39412 7.80868 4.35205 7.88284 4.27789C7.95701 4.20372 7.99907 4.1034 7.99999 3.99852C8.0009 3.89364 7.96058 3.7926 7.88772 3.71715L7.32212 4.28276ZM4.00492 0.399919L4.28772 0.117116C4.2127 0.0421266 4.11098 0 4.00492 0C3.89885 0 3.79713 0.0421266 3.72212 0.117116L4.00492 0.399919ZM0.122115 3.71715C0.0839112 3.75405 0.0534383 3.79819 0.0324747 3.84699C0.0115111 3.8958 0.000476629 3.94828 1.51027e-05 4.0014C-0.000446424 4.05451 0.00967427 4.10718 0.0297866 4.15634C0.049899 4.2055 0.0796002 4.25016 0.117157 4.28772C0.154714 4.32528 0.199375 4.35498 0.248534 4.37509C0.297692 4.3952 0.350364 4.40532 0.403476 4.40486C0.456588 4.4044 0.509076 4.39337 0.557877 4.3724C0.606679 4.35144 0.650817 4.32096 0.687715 4.28276L0.122115 3.71715ZM2.00492 8H6.00492V7.19999H2.00492V8ZM7.20492 6.79999V3.19995H6.40492V6.79999H7.20492ZM1.60492 6.79999V3.19995H0.804915V6.79999H1.60492ZM7.88772 3.71715L4.28772 0.117116L3.72212 0.682722L7.32212 4.28276L7.88772 3.71715ZM3.72212 0.117116L0.122115 3.71715L0.687715 4.28276L4.28772 0.682722L3.72212 0.117116ZM6.00492 8C6.32317 8 6.6284 7.87357 6.85344 7.64852C7.07849 7.42348 7.20492 7.11825 7.20492 6.79999H6.40492C6.40492 6.90608 6.36277 7.00782 6.28776 7.08283C6.21274 7.15785 6.111 7.19999 6.00492 7.19999V8ZM2.00492 7.19999C1.89883 7.19999 1.79709 7.15785 1.72207 7.08283C1.64706 7.00782 1.60492 6.90608 1.60492 6.79999H0.804915C0.804915 7.11825 0.931343 7.42348 1.15639 7.64852C1.38143 7.87357 1.68666 8 2.00492 8V7.19999Z" fill="#00A1FB"/>
</svg>
