<svg width="8" height="8" viewBox="0 0 8 8" fill="none" xmlns="http://www.w3.org/2000/svg">
<path d="M2.54545 7.2V4.8H5.45455V7.2H6.54545V0.8H1.45455V7.2H2.54545ZM3.27273 7.2H4.72727V5.6H3.27273V7.2ZM7.27273 7.2H8V8H0V7.2H0.727273V0.4C0.727273 0.293913 0.765584 0.192172 0.833779 0.117157C0.901974 0.0421427 0.994467 0 1.09091 0H6.90909C7.00553 0 7.09803 0.0421427 7.16622 0.117157C7.23442 0.192172 7.27273 0.293913 7.27273 0.4V7.2ZM3.63636 2.4V1.6H4.36364V2.4H5.09091V3.2H4.36364V4H3.63636V3.2H2.90909V2.4H3.63636Z" fill="#FF541E"/>
</svg>
