<svg width="28" height="35" viewBox="0 0 28 35" fill="none" xmlns="http://www.w3.org/2000/svg">
<g clip-path="url(#clip0_23_1397)">
<path d="M1.613 33.3503H26.387C26.387 33.0221 26.3842 32.7053 26.387 32.3914C26.3954 31.8548 26.7467 31.498 27.2441 31.5066C27.6825 31.5152 27.9916 31.8719 27.9972 32.38C28.0028 32.9394 28 33.4959 27.9972 34.0553C27.9972 34.6804 27.6825 34.9972 27.0642 35C22.9924 35 18.9205 35 14.8487 35C10.2372 35 5.62866 35 1.01726 35C0.283817 35 -4.66767e-06 34.7146 -4.66767e-06 33.9725C-4.66767e-06 25.5757 -4.66767e-06 17.1789 -4.66767e-06 8.78499C-4.66767e-06 8.648 -0.00843502 8.50814 0.0196661 8.37686C0.0955393 8.0258 0.455234 7.73183 0.767157 7.74324C1.2224 7.76037 1.55961 8.06861 1.60738 8.51671C1.61862 8.62802 1.61019 8.74504 1.61019 8.8592C1.61019 16.8678 1.61019 24.8765 1.61019 32.8851C1.61019 33.0307 1.61019 33.1763 1.61019 33.3532L1.613 33.3503Z" fill="#060606"/>
<path d="M16.0851 22.8329C14.0787 22.8329 12.0694 22.8329 10.063 22.8329C9.65836 22.8329 9.36892 22.616 9.25371 22.2478C9.15535 21.9339 9.26495 21.5571 9.5572 21.383C9.73143 21.2803 9.95624 21.2175 10.1586 21.2175C14.118 21.2089 18.0775 21.2118 22.0369 21.2118C22.3966 21.2118 22.7057 21.3259 22.8772 21.6684C23.0205 21.9538 22.9924 22.2449 22.8097 22.5047C22.6327 22.7558 22.377 22.8386 22.0791 22.8386C20.0839 22.8358 18.0859 22.8386 16.0907 22.8386L16.0851 22.8329Z" fill="#060606"/>
<path d="M11.7041 31.9947C9.7764 31.9947 7.84866 31.9947 5.92092 31.9947C5.50221 31.9947 5.1931 31.7977 5.08351 31.4467C4.97953 31.1156 5.03292 30.7931 5.31394 30.5876C5.48535 30.462 5.7214 30.3707 5.92935 30.3707C9.77359 30.3592 13.6206 30.3592 17.4649 30.365C18.0016 30.365 18.3894 30.7417 18.3754 31.2041C18.3585 31.6636 17.9791 31.9975 17.4593 31.9975C15.5428 31.9975 13.6263 31.9975 11.7098 31.9975L11.7041 31.9947Z" fill="#060606"/>
<path d="M9.82135 27.4138C8.53431 27.4138 7.24447 27.4138 5.95744 27.4138C5.40384 27.4138 5.0582 27.117 5.04696 26.6403C5.03291 26.1408 5.37293 25.7869 5.92372 25.7869C8.52307 25.7784 11.1224 25.7784 13.719 25.7869C14.2641 25.7869 14.621 26.1551 14.6042 26.6403C14.5873 27.1141 14.2332 27.4138 13.6853 27.4138C12.3982 27.4138 11.1084 27.4138 9.82135 27.4138Z" fill="#060606"/>
<path d="M19.1622 27.4137C18.2208 27.4137 17.2766 27.4137 16.3352 27.4137C15.7788 27.4137 15.4163 27.0912 15.4135 26.6031C15.4135 26.1379 15.7732 25.7869 16.3015 25.784C18.232 25.7754 20.1598 25.7754 22.0903 25.784C22.6242 25.784 22.9615 26.1379 22.953 26.6203C22.9446 27.1055 22.6046 27.4109 22.0566 27.4109C21.0927 27.4109 20.126 27.4109 19.1622 27.4109V27.4137Z" fill="#060606"/>
<path d="M21.2332 31.9946C20.941 31.9946 20.6516 32.0003 20.3593 31.9946C19.9097 31.9832 19.5528 31.6521 19.5219 31.2297C19.4938 30.8387 19.7748 30.4306 20.2019 30.3992C20.8904 30.3507 21.5873 30.345 22.2758 30.3963C22.7423 30.4306 22.9924 30.833 22.9474 31.2925C22.9081 31.6892 22.5737 31.9804 22.1353 31.9975C22.1241 31.9975 22.1128 31.9975 22.1016 31.9975C21.8093 31.9975 21.5199 31.9975 21.2276 31.9975L21.2332 31.9946Z" fill="#060606"/>
<path d="M6.64874 22.8329C6.36773 22.8329 6.08953 22.8415 5.80852 22.8329C5.39824 22.8158 5.07789 22.5104 5.04697 22.1165C5.01325 21.6741 5.24649 21.2946 5.67644 21.2603C6.31996 21.2118 6.9719 21.2146 7.61542 21.2603C8.02851 21.2888 8.29547 21.6884 8.25894 22.0766C8.22241 22.4876 7.89643 22.8158 7.48897 22.8329C7.21076 22.8443 6.92975 22.8329 6.64874 22.8329Z" fill="#060606"/>
<path d="M15.8856 -2.90778e-05C15.9839 0.0456367 16.0795 0.0941567 16.1807 0.134114C16.9366 0.433796 17.4199 1.13305 17.434 1.94648C17.434 2.05779 17.434 2.17195 17.434 2.32322C17.937 2.32322 18.4147 2.32322 18.8924 2.32322C19.2858 2.32322 19.6764 2.32322 20.0699 2.32322C20.9045 2.32322 21.1152 2.51445 21.2108 3.41349C21.3204 3.41349 21.4384 3.41349 21.5564 3.41349C23.3858 3.41349 25.2124 3.41349 27.0418 3.41349C27.7106 3.41349 28 3.71032 28 4.39245C28 12.8692 28 21.3459 28 29.8226C28 30.5162 27.601 30.89 27.0052 30.7588C26.6624 30.6845 26.4179 30.3849 26.3898 29.9996C26.3814 29.8854 26.3898 29.7712 26.3898 29.6571C26.3898 21.6142 26.3898 13.5684 26.3898 5.52554V5.06888H21.1489C21.1489 5.19446 21.1489 5.31718 21.1489 5.43706C21.1489 6.22194 21.1546 7.00967 21.1461 7.79456C21.1405 8.29117 20.8314 8.60512 20.3452 8.60512C16.116 8.60512 11.8868 8.60512 7.65757 8.60512C7.17423 8.60512 6.86793 8.28832 6.86231 7.7917C6.85388 6.90407 6.85388 6.01359 6.84826 5.12596C6.84826 5.1174 6.83702 5.10598 6.81735 5.07458H1.61301C1.61301 5.44847 1.62144 5.83092 1.61301 6.21338C1.59896 6.64149 1.29547 6.98113 0.899242 7.03251C0.517066 7.08388 0.162992 6.85555 0.0449668 6.47025C0.0112454 6.36464 0.00562521 6.24763 0.00562521 6.13346C0.0028151 5.52839 4.98118e-06 4.92617 0.00562521 4.3211C0.00843533 3.73315 0.320358 3.41064 0.896432 3.41064C2.73706 3.40778 4.57487 3.41064 6.4155 3.41064C6.53634 3.41064 6.65998 3.41064 6.79487 3.41064C6.80611 3.29647 6.81454 3.20799 6.82578 3.11952C6.89041 2.60578 7.1939 2.32322 7.70253 2.32037C8.52028 2.31751 9.34083 2.32037 10.1586 2.32037C10.2794 2.32037 10.4031 2.32037 10.5548 2.32037C10.5689 2.08062 10.5548 1.85229 10.597 1.63538C10.7431 0.916141 11.1505 0.405255 11.8278 0.128406C11.9261 0.0884484 12.0245 0.0399285 12.1228 -0.0057373C13.379 -0.0057373 14.6351 -0.0057373 15.8912 -0.0057373L15.8856 -2.90778e-05ZM8.48094 3.96433V6.94974C8.81534 6.94974 9.12445 6.94974 9.43638 6.94974C12.6652 6.94974 15.8968 6.94688 19.1257 6.95545C19.4179 6.95545 19.5247 6.88409 19.5078 6.57585C19.4825 6.13346 19.5022 5.68822 19.5022 5.24298C19.5022 4.82628 19.5022 4.41243 19.5022 3.96433C19.3814 3.96433 19.2605 3.96433 19.1397 3.96433C18.2882 3.96433 17.434 3.96719 16.5825 3.96148C16.1104 3.95863 15.8013 3.65038 15.7957 3.17375C15.79 2.83411 15.8013 2.49161 15.8182 2.15197C15.835 1.79806 15.7114 1.64679 15.3517 1.64679C14.444 1.64394 13.5363 1.64679 12.6259 1.64679C12.3167 1.64679 12.1762 1.79806 12.1819 2.11202C12.1875 2.43168 12.1847 2.74848 12.1819 3.06814C12.1762 3.63611 11.8615 3.95863 11.3079 3.96148C10.7909 3.96433 10.2766 3.96148 9.75954 3.96148C9.33521 3.96148 8.91369 3.96148 8.48094 3.96148V3.96433Z" fill="#060606"/>
<path d="M19.2871 13.7681C19.2702 13.7295 18.8699 12.8033 17.9858 11.8819C16.8028 10.651 15.3119 10 13.667 10C12.0221 10 10.5312 10.651 9.34961 11.8819C8.46548 12.8033 8.06522 13.7295 8.04694 13.7681C8.01599 13.8412 8 13.9203 8 14.0002C8 14.0802 8.01599 14.1592 8.04694 14.2324C8.06385 14.2714 8.46411 15.1971 9.3487 16.1186C10.5312 17.3495 12.0221 18 13.667 18C15.3119 18 16.8028 17.3495 17.9839 16.1186C18.8685 15.1971 19.2688 14.2714 19.2857 14.2324C19.3169 14.1593 19.3331 14.0803 19.3333 14.0004C19.3336 13.9204 19.3178 13.8413 19.2871 13.7681ZM17.1825 15.3395C16.2015 16.3462 15.019 16.8571 13.667 16.8571C12.315 16.8571 11.1325 16.3462 10.1529 15.339C9.76739 14.9415 9.4358 14.491 9.1673 14C9.43588 13.5092 9.76746 13.0588 10.1529 12.6614C11.133 11.6538 12.315 11.1429 13.667 11.1429C15.019 11.1429 16.2011 11.6538 17.1811 12.6614C17.5666 13.0588 17.8982 13.5091 18.1667 14C17.8982 14.491 17.5666 14.9415 17.1811 15.339L17.1825 15.3395ZM13.667 11.9048C13.2694 11.9048 12.8807 12.0276 12.5501 12.2579C12.2195 12.4881 11.9618 12.8153 11.8096 13.1982C11.6574 13.581 11.6176 14.0023 11.6952 14.4088C11.7728 14.8152 11.9643 15.1885 12.2454 15.4816C12.5266 15.7746 12.8848 15.9741 13.2748 16.055C13.6648 16.1358 14.069 16.0943 14.4364 15.9357C14.8037 15.7772 15.1177 15.5086 15.3386 15.1641C15.5595 14.8195 15.6774 14.4144 15.6774 14C15.6768 13.4445 15.4648 12.9119 15.0879 12.5191C14.711 12.1263 14.2 11.9054 13.667 11.9048ZM13.667 14.9524C13.4863 14.9524 13.3096 14.8965 13.1593 14.7919C13.009 14.6872 12.8919 14.5385 12.8227 14.3645C12.7536 14.1904 12.7355 13.9989 12.7707 13.8142C12.806 13.6295 12.893 13.4598 13.0208 13.3266C13.1486 13.1934 13.3115 13.1027 13.4887 13.0659C13.666 13.0292 13.8497 13.048 14.0167 13.1201C14.1837 13.1922 14.3264 13.3143 14.4268 13.4709C14.5272 13.6275 14.5808 13.8116 14.5808 14C14.5808 14.2526 14.4846 14.4948 14.3132 14.6734C14.1418 14.852 13.9094 14.9524 13.667 14.9524Z" fill="black"/>
</g>
<defs>
<clipPath id="clip0_23_1397">
<rect width="28" height="35" fill="white"/>
</clipPath>
</defs>
</svg>
