<svg width="19" height="18" viewBox="0 0 19 18" fill="none" xmlns="http://www.w3.org/2000/svg">
<circle cx="10" cy="9" r="8.375" fill="#FFC75B" stroke="#FFE8BC" stroke-width="1.25"/>
<path d="M6.39 6.56V6.2H9.41H12.44V6.24C12.4533 6.28667 12.5033 6.71667 12.59 7.53C12.69 8.36333 12.7433 8.79333 12.75 8.82V8.86H12.39H12.03C12.03 8.83333 12.02 8.76333 12 8.65C11.9667 8.38333 11.93 8.18 11.89 8.04C11.7567 7.52 11.4633 7.18333 11.01 7.03C10.9433 7.00333 10.87 6.98333 10.79 6.97C10.6567 6.94333 10.33 6.92667 9.81 6.92H9.14V8.08V9.24H9.3C9.68667 9.24 9.95333 9.16667 10.1 9.02C10.2267 8.89333 10.3 8.64333 10.32 8.27V8.07H10.68H11.04V9.6V11.13H10.68H10.32V10.93C10.3 10.5567 10.2267 10.3067 10.1 10.18C9.95333 10.0333 9.68667 9.96 9.3 9.96H9.14V11.12V12.28H9.82H10.49V12.64V13H10.35L9.26 12.98C8.62667 12.9733 8.03333 12.9733 7.48 12.98C6.83333 12.9933 6.51333 13 6.52 13H6.39V12.64V12.28H6.93H7.47V9.6V6.92H6.93H6.39V6.56Z" fill="#FFE8BC"/>
<path d="M6.39 6.56V6.2H9.41H12.44V6.24C12.4533 6.28667 12.5033 6.71667 12.59 7.53C12.69 8.36333 12.7433 8.79333 12.75 8.82V8.86H12.39H12.03C12.03 8.83333 12.02 8.76333 12 8.65C11.9667 8.38333 11.93 8.18 11.89 8.04C11.7567 7.52 11.4633 7.18333 11.01 7.03C10.9433 7.00333 10.87 6.98333 10.79 6.97C10.6567 6.94333 10.33 6.92667 9.81 6.92H9.14V8.08V9.24H9.3C9.68667 9.24 9.95333 9.16667 10.1 9.02C10.2267 8.89333 10.3 8.64333 10.32 8.27V8.07H10.68H11.04V9.6V11.13H10.68H10.32V10.93C10.3 10.5567 10.2267 10.3067 10.1 10.18C9.95333 10.0333 9.68667 9.96 9.3 9.96H9.14V11.12V12.28H9.82H10.49V12.64V13H10.35L9.26 12.98C8.62667 12.9733 8.03333 12.9733 7.48 12.98C6.83333 12.9933 6.51333 13 6.52 13H6.39V12.64V12.28H6.93H7.47V9.6V6.92H6.93H6.39V6.56Z" fill="#FFF1D7"/>
<circle cx="9" cy="9" r="8.25" stroke="#FFB932" stroke-width="1.5"/>
</svg>
