<svg width="32" height="32" viewBox="0 0 32 32" fill="none" xmlns="http://www.w3.org/2000/svg">
<path d="M15.9921 32.0004C7.17468 31.9871 -0.00190423 24.8081 3.79015e-07 16.0002C0.00190499 7.17333 7.20896 -0.0208983 16.0273 4.56133e-05C24.8485 0.0209895 32.0175 7.2095 32.0004 16.0174C31.9832 24.8385 24.7971 32.0128 15.9921 32.0004ZM15.994 29.7147C23.5734 29.7223 29.7101 23.5924 29.7158 16.0078C29.7224 8.42615 23.5953 2.2934 16.0092 2.28674C8.43172 2.28007 2.29315 8.41092 2.28649 15.9936C2.27982 23.5695 8.41172 29.708 15.994 29.7156V29.7147Z" fill="black"/>
<path d="M5.71381 15.9907C5.71857 10.3254 10.3477 5.71014 16.0197 5.7168C21.6859 5.72347 26.3017 10.3568 26.2874 16.0269C26.2741 21.6789 21.6545 26.2856 16.0016 26.2846C10.3354 26.2846 5.71 21.6551 5.71381 15.9907ZM15.9968 7.99969C11.5743 8.00254 8.00601 11.564 7.99934 15.9841C7.99268 20.4204 11.5667 23.998 16.0044 23.998C20.4269 23.998 23.9943 20.4346 24.0009 16.0126C24.0076 11.5735 20.4346 7.99778 15.9968 8.00064V7.99969Z" fill="black"/>
<path d="M21.7135 16.6971C21.6745 19.08 19.6175 21.1239 17.2396 21.141C16.5406 21.1458 16.0187 20.6803 16.0006 20.0358C15.9825 19.3817 16.4682 18.8896 17.1653 18.8562C18.4652 18.7934 19.3718 17.8938 19.427 16.6114C19.4584 15.886 19.9413 15.4024 20.6145 15.4214C21.2754 15.4405 21.7249 15.9622 21.7135 16.6971Z" fill="black"/>
</svg>
