<svg width="22" height="22" viewBox="0 0 22 22" fill="none" xmlns="http://www.w3.org/2000/svg">
<g clip-path="url(#clip0_229_491)">
<path d="M20.1667 12.8333C20.1667 13.3403 19.756 13.75 19.25 13.75H6.17558C6.55692 14.8262 7.57625 15.5833 8.76058 15.5833H17.4167C17.9227 15.5833 18.3333 15.9931 18.3333 16.5C18.3333 17.0069 17.9227 17.4167 17.4167 17.4167H8.76058C6.43683 17.4167 4.47975 15.6768 4.20842 13.3696L2.94708 2.64367C2.893 2.18167 2.50158 1.83333 2.03683 1.83333H0.916667C0.410667 1.83333 0 1.42358 0 0.916667C0 0.40975 0.410667 0 0.916667 0H2.03683C3.43108 0 4.60533 1.04408 4.76758 2.42825L4.80517 2.75H8.25C8.756 2.75 9.16667 3.15975 9.16667 3.66667C9.16667 4.17358 8.756 4.58333 8.25 4.58333H5.0215L5.88408 11.9167H19.25C19.756 11.9167 20.1667 12.3264 20.1667 12.8333ZM6.41667 18.3333C5.40375 18.3333 4.58333 19.1537 4.58333 20.1667C4.58333 21.1796 5.40375 22 6.41667 22C7.42958 22 8.25 21.1796 8.25 20.1667C8.25 19.1537 7.42958 18.3333 6.41667 18.3333ZM15.5833 18.3333C14.5704 18.3333 13.75 19.1537 13.75 20.1667C13.75 21.1796 14.5704 22 15.5833 22C16.5963 22 17.4167 21.1796 17.4167 20.1667C17.4167 19.1537 16.5963 18.3333 15.5833 18.3333ZM17.4167 5.1205V3.66667C17.4167 3.15975 17.006 2.75 16.5 2.75C15.994 2.75 15.5833 3.15975 15.5833 3.66667V5.5C15.5833 5.74383 15.6796 5.97667 15.8519 6.14808L16.7686 7.06475C16.9473 7.2435 17.182 7.33333 17.4167 7.33333C17.6513 7.33333 17.886 7.2435 18.0648 7.06475C18.4232 6.70633 18.4232 6.127 18.0648 5.76858L17.4167 5.1205ZM22 5.5C22 8.53325 19.5333 11 16.5 11C13.4668 11 11 8.53325 11 5.5C11 2.46675 13.4668 0 16.5 0C19.5333 0 22 2.46675 22 5.5ZM20.1667 5.5C20.1667 3.47783 18.5222 1.83333 16.5 1.83333C14.4778 1.83333 12.8333 3.47783 12.8333 5.5C12.8333 7.52217 14.4778 9.16667 16.5 9.16667C18.5222 9.16667 20.1667 7.52217 20.1667 5.5Z" fill="#8E8E8E"/>
</g>
<defs>
<clipPath id="clip0_229_491">
<rect width="22" height="22" fill="white"/>
</clipPath>
</defs>
</svg>
