<svg width="10" height="12" viewBox="0 0 10 12" fill="none" xmlns="http://www.w3.org/2000/svg">
<path d="M2.77777 3.77778V3.22222C2.77777 2.63285 3.0119 2.06762 3.42864 1.65087C3.84539 1.23413 4.41062 1 4.99999 1C5.58936 1 6.15459 1.23413 6.57134 1.65087C6.98809 2.06762 7.22222 2.63285 7.22222 3.22222V3.77778" stroke="black" stroke-width="2" stroke-linecap="round"/>
<path fill-rule="evenodd" clip-rule="evenodd" d="M0.325556 3.54772C-3.31137e-08 3.87328 0 4.39661 0 5.44439V7.11106C0 9.20606 -6.62274e-08 10.2538 0.651111 10.9044C1.30222 11.5549 2.34944 11.5555 4.44444 11.5555H5.55556C7.65056 11.5555 8.69833 11.5555 9.34889 10.9044C9.99944 10.2533 10 9.20606 10 7.11106V5.44439C10 4.39661 10 3.87328 9.67444 3.54772C9.34889 3.22217 8.82556 3.22217 7.77778 3.22217H2.22222C1.17444 3.22217 0.651111 3.22217 0.325556 3.54772ZM3.88889 5.99995C3.88889 5.8526 3.83036 5.7113 3.72617 5.60711C3.62198 5.50292 3.48068 5.44439 3.33333 5.44439C3.18599 5.44439 3.04468 5.50292 2.9405 5.60711C2.83631 5.7113 2.77778 5.8526 2.77778 5.99995V7.11106C2.77778 7.2584 2.83631 7.39971 2.9405 7.50389C3.04468 7.60808 3.18599 7.66661 3.33333 7.66661C3.48068 7.66661 3.62198 7.60808 3.72617 7.50389C3.83036 7.39971 3.88889 7.2584 3.88889 7.11106V5.99995ZM7.22222 5.99995C7.22222 5.8526 7.16369 5.7113 7.0595 5.60711C6.95532 5.50292 6.81401 5.44439 6.66667 5.44439C6.51932 5.44439 6.37802 5.50292 6.27383 5.60711C6.16964 5.7113 6.11111 5.8526 6.11111 5.99995V7.11106C6.11111 7.2584 6.16964 7.39971 6.27383 7.50389C6.37802 7.60808 6.51932 7.66661 6.66667 7.66661C6.81401 7.66661 6.95532 7.60808 7.0595 7.50389C7.16369 7.39971 7.22222 7.2584 7.22222 7.11106V5.99995Z" fill="black"/>
</svg>
