<svg width="22" height="22" viewBox="0 0 22 22" fill="none" xmlns="http://www.w3.org/2000/svg">
<path d="M7.79167 8.70831C7.79167 9.2134 7.909 9.69189 8.118 10.1172C7.66884 10.6929 7.38925 11.407 7.35167 12.1852C6.48909 11.2796 5.95834 10.0549 5.95834 8.70923C5.95834 5.58248 8.82017 3.11115 12.0624 3.77665C13.9709 4.16898 15.5173 5.70623 15.9243 7.61198C16.0472 8.18764 16.0701 8.7514 16.0078 9.29039C15.9546 9.74689 15.554 10.0842 15.0938 10.0842H15.0526C14.5099 10.0842 14.1286 9.60114 14.1882 9.06214C14.2285 8.70006 14.2074 8.31964 14.1148 7.93189C13.8417 6.78331 12.9048 5.8529 11.7544 5.58798C9.65892 5.10673 7.79075 6.6944 7.79075 8.70923L7.79167 8.70831ZM4.22584 7.52123C4.477 6.06098 5.19109 4.72998 6.29842 3.6914C7.7 2.37781 9.53517 1.72881 11.4593 1.84798C15.0828 2.08264 17.9163 5.25706 17.8741 9.05756C17.8567 10.6489 16.5238 11.9157 14.9334 11.9157H12.7279C12.5043 11.1558 11.8094 10.5966 10.9771 10.5966C9.96417 10.5966 9.14375 11.4171 9.14375 12.43C9.14375 13.4429 9.96417 14.2633 10.9771 14.2633C11.4703 14.2633 11.9167 14.0662 12.2458 13.7491H14.9334C17.5175 13.7491 19.6708 11.6911 19.7074 9.10798C19.7753 4.32206 16.1801 0.316228 11.5775 0.0192282C9.1355 -0.139355 6.81909 0.690228 5.04534 2.35489C3.67125 3.64281 2.75734 5.34781 2.42825 7.18206C2.32834 7.7394 2.76925 8.2509 3.33484 8.2509C3.7675 8.2509 4.15342 7.94931 4.22584 7.52215V7.52123ZM11 15.5833C7.61292 15.5833 4.68234 17.6843 3.70792 20.8101C3.55667 21.2932 3.82709 21.8075 4.31017 21.9587C4.79234 22.1045 5.30659 21.8386 5.45784 21.3565C6.18109 19.0373 8.459 17.4166 10.9991 17.4166C13.5392 17.4166 15.818 19.0373 16.5403 21.3565C16.6632 21.7488 17.0243 22 17.4158 22C17.5065 22 17.5973 21.9862 17.6889 21.9587C18.172 21.8075 18.4415 21.2932 18.2912 20.8101C17.3168 17.6843 14.3862 15.5833 10.9991 15.5833H11Z" fill="#8E8E8E"/>
</svg>
