<svg width="21" height="20" viewBox="0 0 21 20" fill="none" xmlns="http://www.w3.org/2000/svg">
<path d="M18.5 6H2.5C1.67157 6 1 6.67157 1 7.5V17.5C1 18.3284 1.67157 19 2.5 19H18.5C19.3284 19 20 18.3284 20 17.5V7.5C20 6.67157 19.3284 6 18.5 6Z" stroke="white" stroke-width="2" stroke-linejoin="round"/>
<path d="M15.25 2.75V5.75H13.75V2.75H15.25ZM7.25 2.75V5.75H5.75V2.75H7.25ZM13.25 0.264648C13.7547 0.321082 14.2282 0.546592 14.5908 0.90918C14.9534 1.27177 15.1789 1.74528 15.2354 2.25H13.7041C13.6671 2.14589 13.6099 2.04934 13.5303 1.96973C13.4506 1.89004 13.3542 1.83188 13.25 1.79492V0.264648ZM7.75 1.79492C7.64577 1.83188 7.54941 1.89004 7.46973 1.96973C7.39012 2.04934 7.33287 2.14589 7.2959 2.25H5.76465C5.82108 1.74528 6.04659 1.27177 6.40918 0.90918C6.77177 0.546592 7.24528 0.321082 7.75 0.264648V1.79492ZM12.75 0.25V1.75H8.25V0.25H12.75Z" fill="white" stroke="white" stroke-width="0.5"/>
<path d="M7.5 12.5H13.5M10.5 9.5V15.5" stroke="white" stroke-width="2" stroke-linecap="round" stroke-linejoin="round"/>
</svg>
