<svg width="28" height="28" viewBox="0 0 28 28" fill="none" xmlns="http://www.w3.org/2000/svg">
<g clip-path="url(#clip0_1_35)">
<path d="M13.176 0C13.7228 0 14.2695 0 14.8163 0C14.8856 0.0154015 14.9549 0.0385038 15.0242 0.0462046C16.9802 0.184818 18.8361 0.685369 20.538 1.64026C25.1353 4.22002 27.6381 8.15512 27.9692 13.4224C28.1078 15.6865 27.6843 17.8812 26.6678 19.9142C24.1804 24.8966 20.1375 27.615 14.5776 27.9769C12.0517 28.1386 9.64136 27.5765 7.42354 26.3597C3.48845 24.1804 1.07041 20.8691 0.223322 16.4334C0.123212 15.9021 0.0770077 15.3553 0 14.8163C0 14.2695 0 13.7228 0 13.176C0.0154015 13.099 0.0385038 13.022 0.0462046 12.9373C0.20022 10.758 0.823982 8.71727 1.9637 6.85368C4.18922 3.22662 7.39274 1.0011 11.5897 0.215622C12.1133 0.123212 12.6447 0.0693069 13.176 0ZM14 15.7019C13.1144 15.7019 12.2288 15.7019 11.3509 15.7019C8.85589 15.725 6.93069 17.4422 6.63036 19.9065C6.53795 20.6766 6.70737 21.3619 7.32343 21.8779C8.9791 23.2717 10.8889 24.088 13.0451 24.2805C15.5556 24.5039 17.8504 23.8878 19.9142 22.4477C20.3146 22.1705 20.6997 21.8471 21.0077 21.4697C21.4697 20.9076 21.4235 20.2145 21.3003 19.5369C20.8922 17.2882 18.9978 15.7173 16.6568 15.6942C15.7712 15.6865 14.8933 15.6942 14.0077 15.6942L14 15.7019ZM18.6282 8.80968C18.6128 6.25303 16.5413 4.18922 13.9923 4.19692C11.4433 4.19692 9.37184 6.26073 9.36414 8.81738C9.36414 11.3663 11.4664 13.4686 14.0077 13.4532C16.5567 13.4378 18.6359 11.3432 18.6282 8.80968Z" fill="black"/>
</g>
<defs>
<clipPath id="clip0_1_35">
<rect width="28" height="28" fill="white"/>
</clipPath>
</defs>
</svg>
