<svg width="14" height="10" viewBox="0 0 14 10" fill="none" xmlns="http://www.w3.org/2000/svg">
<path d="M8.90909 0C10.2593 0 11.5542 0.526784 12.5089 1.46447C13.4636 2.40215 14 3.67392 14 5C14 6.32608 13.4636 7.59785 12.5089 8.53553C11.5542 9.47322 10.2593 10 8.90909 10C7.5589 10 6.264 9.47322 5.30927 8.53553C4.35454 7.59785 3.81818 6.32608 3.81818 5C3.81818 3.67392 4.35454 2.40215 5.30927 1.46447C6.264 0.526784 7.5589 0 8.90909 0ZM8.90909 1.25C7.89645 1.25 6.92528 1.64509 6.20923 2.34835C5.49318 3.05161 5.09091 4.00544 5.09091 5C5.09091 5.99456 5.49318 6.94839 6.20923 7.65165C6.92528 8.35491 7.89645 8.75 8.90909 8.75C9.92174 8.75 10.8929 8.35491 11.609 7.65165C12.325 6.94839 12.7273 5.99456 12.7273 5C12.7273 4.00544 12.325 3.05161 11.609 2.34835C10.8929 1.64509 9.92174 1.25 8.90909 1.25ZM8.27273 2.5H9.22727V4.8625L10.71 6.31875L10.0355 6.98125L8.27273 5.25V2.5ZM0.636364 8.75C0.467589 8.75 0.305728 8.68415 0.186387 8.56694C0.0670452 8.44973 0 8.29076 0 8.125C0 7.95924 0.0670452 7.80027 0.186387 7.68306C0.305728 7.56585 0.467589 7.5 0.636364 7.5H3.07364C3.27091 7.94375 3.52545 8.3625 3.81818 8.75H0.636364ZM1.27273 5.625C1.10395 5.625 0.942092 5.55915 0.82275 5.44194C0.703409 5.32473 0.636364 5.16576 0.636364 5C0.636364 4.83424 0.703409 4.67527 0.82275 4.55806C0.942092 4.44085 1.10395 4.375 1.27273 4.375H2.57727L2.54545 5L2.57727 5.625H1.27273ZM1.90909 2.5C1.74032 2.5 1.57846 2.43415 1.45911 2.31694C1.33977 2.19973 1.27273 2.04076 1.27273 1.875C1.27273 1.70924 1.33977 1.55027 1.45911 1.43306C1.57846 1.31585 1.74032 1.25 1.90909 1.25H3.81818C3.52545 1.6375 3.27091 2.05625 3.07364 2.5H1.90909Z" fill="#FFC839"/>
</svg>
