<svg width="10" height="7" viewBox="0 0 10 7" fill="none" xmlns="http://www.w3.org/2000/svg">
<path d="M6.36364 0C7.32806 0 8.25298 0.368749 8.93493 1.02513C9.61688 1.6815 10 2.57174 10 3.5C10 4.42826 9.61688 5.3185 8.93493 5.97487C8.25298 6.63125 7.32806 7 6.36364 7C5.39921 7 4.47429 6.63125 3.79234 5.97487C3.11039 5.3185 2.72727 4.42826 2.72727 3.5C2.72727 2.57174 3.11039 1.6815 3.79234 1.02513C4.47429 0.368749 5.39921 0 6.36364 0ZM6.36364 0.875C5.64032 0.875 4.94663 1.15156 4.43516 1.64384C3.9237 2.13613 3.63636 2.80381 3.63636 3.5C3.63636 4.19619 3.9237 4.86387 4.43516 5.35616C4.94663 5.84844 5.64032 6.125 6.36364 6.125C7.08695 6.125 7.78065 5.84844 8.29211 5.35616C8.80357 4.86387 9.09091 4.19619 9.09091 3.5C9.09091 2.80381 8.80357 2.13613 8.29211 1.64384C7.78065 1.15156 7.08695 0.875 6.36364 0.875ZM5.90909 1.75H6.59091V3.40375L7.65 4.42312L7.16818 4.88688L5.90909 3.675V1.75ZM0.454545 6.125C0.333993 6.125 0.218377 6.07891 0.133133 5.99686C0.0478895 5.91481 0 5.80353 0 5.6875C0 5.57147 0.0478895 5.46019 0.133133 5.37814C0.218377 5.29609 0.333993 5.25 0.454545 5.25H2.19545C2.33636 5.56063 2.51818 5.85375 2.72727 6.125H0.454545ZM0.909091 3.9375C0.788538 3.9375 0.672923 3.89141 0.587679 3.80936C0.502435 3.72731 0.454545 3.61603 0.454545 3.5C0.454545 3.38397 0.502435 3.27269 0.587679 3.19064C0.672923 3.10859 0.788538 3.0625 0.909091 3.0625H1.84091L1.81818 3.5L1.84091 3.9375H0.909091ZM1.36364 1.75C1.24308 1.75 1.12747 1.70391 1.04222 1.62186C0.95698 1.53981 0.909091 1.42853 0.909091 1.3125C0.909091 1.19647 0.95698 1.08519 1.04222 1.00314C1.12747 0.921094 1.24308 0.875 1.36364 0.875H2.72727C2.51818 1.14625 2.33636 1.43938 2.19545 1.75H1.36364Z" fill="#00AA44"/>
</svg>
