<svg width="18" height="18" viewBox="0 0 18 18" fill="none" xmlns="http://www.w3.org/2000/svg">
<path d="M17.7921 1.63801L17.2046 2.25151C17.8373 3.10801 17.7232 4.38526 16.9427 5.12176L16.3858 5.67151C17.1931 6.88501 17.6159 8.28301 17.6159 9.75C17.6159 12.7215 15.8382 15.2865 13.273 16.5H15.3181C15.7417 16.5 16.0841 16.836 16.0841 17.25C16.0841 17.664 15.7417 18 15.3181 18H4.59567C4.17211 18 3.82973 17.664 3.82973 17.25C3.82973 16.836 4.17211 16.5 4.59567 16.5H6.64074C5.27813 15.8588 4.12692 14.8268 3.34182 13.5H0.765956C0.342389 13.5 1.25317e-05 13.164 1.25317e-05 12.75C1.25317e-05 12.336 0.342389 12 0.765956 12H7.65945C8.08301 12 8.42539 12.336 8.42539 12.75C8.42539 13.164 8.08301 13.5 7.65945 13.5H5.19005C6.33973 14.904 8.07076 15.75 9.95728 15.75C13.3359 15.75 16.0848 13.0583 16.0848 9.75C16.0848 8.68801 15.7976 7.67701 15.2676 6.77476L11.3452 10.6448C10.9362 11.049 10.3778 11.2725 9.80256 11.2725C9.68767 11.2725 9.57201 11.2635 9.45635 11.2455C9.03891 11.1795 8.75551 10.794 8.82292 10.3853C8.89032 9.97651 9.27559 9.696 9.70145 9.76426C9.90519 9.79801 10.1097 9.73275 10.2568 9.58876L15.8581 4.06276C16.1584 3.78226 16.1584 3.28126 15.8604 3.00076L15.3189 2.46976C15.0194 2.17726 14.5353 2.17726 14.2358 2.46976L11.6508 5.02801C11.3536 5.32126 10.868 5.32501 10.5677 5.03326C10.2667 4.74151 10.2644 4.26676 10.5616 3.97201L13.1497 1.41151C13.9624 0.615762 15.2277 0.547512 16.1247 1.18726L16.6754 0.612012C16.9641 0.309012 17.4497 0.294012 17.7576 0.577512C18.0663 0.860262 18.0824 1.33501 17.7929 1.63726L17.7921 1.63801ZM1.68509 6.28951C1.48135 5.97376 1.32892 5.62426 1.24161 5.25001H0.765956C0.342389 5.25001 1.25317e-05 4.91401 1.25317e-05 4.50001C1.25317e-05 4.08601 0.342389 3.75001 0.765956 3.75001H1.24161C1.32892 3.37501 1.48135 3.02626 1.68509 2.71051L1.20867 2.24401C0.556087 2.29276 -0.0022853 1.76176 1.25317e-05 1.12501C1.25317e-05 0.504012 0.514727 1.22709e-05 1.14893 1.22709e-05C1.79921 -0.00298773 2.3415 0.544512 2.29172 1.18351L2.76813 1.65001C3.09059 1.45051 3.44752 1.30126 3.82973 1.21576V0.750012C3.82973 0.336012 4.17211 1.22709e-05 4.59567 1.22709e-05C5.01924 1.22709e-05 5.36162 0.336012 5.36162 0.750012V1.21576C5.74459 1.30126 6.10075 1.45051 6.42321 1.65001L6.89963 1.18351C6.84984 0.544512 7.39213 -0.00298773 8.04242 1.22709e-05C8.67662 1.22709e-05 9.19133 0.504012 9.19133 1.12501C9.1944 1.76176 8.63526 2.29276 7.98268 2.24401L7.50626 2.71051C7.71 3.02626 7.86242 3.37576 7.94974 3.75001H8.42539C8.84896 3.75001 9.19133 4.08601 9.19133 4.50001C9.19133 4.91401 8.84896 5.25001 8.42539 5.25001H7.94974C7.86242 5.62501 7.71 5.97376 7.50626 6.28951L7.98268 6.75601C8.63526 6.70726 9.1944 7.23826 9.19133 7.87501C9.19133 8.49601 8.67662 9.00001 8.04242 9.00001C7.39213 9.00301 6.84984 8.45551 6.89963 7.81651L6.42321 7.35001C6.10075 7.54951 5.74382 7.69876 5.36162 7.78426V8.25001C5.36162 8.66401 5.01924 9.00001 4.59567 9.00001C4.17211 9.00001 3.82973 8.66401 3.82973 8.25001V7.78426C3.44676 7.69876 3.09059 7.54951 2.76813 7.35001L2.29172 7.81651C2.3415 8.45551 1.79921 9.00301 1.14893 9.00001C0.514727 9.00001 1.25317e-05 8.49601 1.25317e-05 7.87501C-0.00305124 7.23826 0.556087 6.70726 1.20867 6.75601L1.68509 6.28951ZM2.68081 4.50001C2.68081 5.53351 3.53944 6.37501 4.59567 6.37501C5.65191 6.37501 6.51053 5.53351 6.51053 4.50001C6.51053 3.46651 5.65191 2.62501 4.59567 2.62501C3.53944 2.62501 2.68081 3.46651 2.68081 4.50001Z" fill="#8E8E8E"/>
</svg>
