<svg width="271" height="284" viewBox="0 0 271 284" fill="none" xmlns="http://www.w3.org/2000/svg">
<g clip-path="url(#clip0_164_585)">
<path d="M26.6176 38.95H183.652C188.606 38.95 192.908 42.9694 193.262 47.9262L208.418 260.661C208.77 265.618 205.041 269.637 200.088 269.637H43.0527C38.0981 269.637 33.7972 265.619 33.4432 260.661L18.2875 47.9262C17.935 42.9694 21.663 38.95 26.6176 38.95Z" fill="black"/>
<path d="M31.285 38.95H188.32C193.273 38.95 197.575 42.9694 197.929 47.9262L213.085 260.661C213.438 265.618 209.708 269.637 204.755 269.637H47.7201C42.767 269.637 38.4645 265.619 38.1105 260.661L22.9548 47.9262C22.6024 42.9694 26.3304 38.95 31.285 38.95Z" fill="white"/>
<path d="M204.755 269.979H47.72C42.5977 269.979 38.1353 265.81 37.7704 260.686L22.6132 47.951C22.4346 45.4509 23.2436 43.1013 24.8894 41.3352C26.5275 39.5769 28.7975 38.6085 31.2834 38.6085H188.318C193.441 38.6085 197.903 42.777 198.268 47.9014L213.424 260.636C213.602 263.136 212.793 265.486 211.147 267.252C209.509 269.01 207.239 269.979 204.753 269.979H204.755ZM31.2849 39.2929C28.9916 39.2929 26.8986 40.1837 25.3909 41.8008C23.8755 43.4272 23.1318 45.5937 23.2964 47.9029L38.4521 260.638C38.7921 265.411 42.9502 269.296 47.72 269.296H204.755C207.048 269.296 209.141 268.405 210.649 266.788C212.164 265.161 212.908 262.995 212.743 260.686L197.588 47.951C197.248 43.1774 193.09 39.2929 188.32 39.2929H31.2849Z" fill="black"/>
<path d="M57.5981 246.613H194.723L180.943 53.1949H43.8181L57.5981 246.613Z" fill="white"/>
<path d="M57.5981 246.613H194.723L180.943 53.1949H43.8181L57.5981 246.613Z" fill="white"/>
<path d="M194.723 246.956H57.5982C57.4196 246.956 57.2706 246.818 57.2566 246.638L43.4766 53.2182C43.4688 53.1235 43.5029 53.0304 43.5666 52.9606C43.6318 52.8907 43.7219 52.8519 43.8166 52.8519H180.941C181.122 52.8519 181.269 52.99 181.283 53.1701L195.063 246.59C195.071 246.684 195.037 246.777 194.973 246.847C194.908 246.917 194.818 246.956 194.723 246.956ZM57.9165 246.271H194.357L180.625 53.5363H44.1861L57.918 246.271H57.9165Z" fill="black"/>
<path d="M164.544 86.8295H64.9626C64.7825 86.8295 64.635 86.6914 64.621 86.5114L63.9968 77.7539C63.9891 77.6593 64.0232 77.5662 64.0869 77.4963C64.1521 77.4265 64.2421 77.3877 64.3368 77.3877H163.916C164.095 77.3877 164.244 77.5258 164.258 77.7058L164.882 86.4633C164.89 86.5579 164.856 86.6511 164.791 86.7209C164.725 86.7907 164.635 86.8295 164.541 86.8295H164.544ZM65.2824 86.1467H164.176L163.6 78.0721H64.7064L65.2824 86.1467Z" fill="black"/>
<path d="M107.768 138.185H63.3648C63.1862 138.185 63.0372 138.047 63.0232 137.867L59.8573 93.4313C59.8495 93.3366 59.8837 93.2435 59.9473 93.1737C60.0126 93.1039 60.1026 93.0651 60.1973 93.0651H104.601C104.779 93.0651 104.928 93.2032 104.942 93.3832L108.108 137.819C108.116 137.914 108.082 138.007 108.017 138.077C107.952 138.147 107.861 138.185 107.767 138.185H107.768ZM63.6831 137.503H107.4L104.283 93.751H60.5653L63.6831 137.503Z" fill="black"/>
<path d="M174.065 100.094H116.845C116.665 100.094 116.518 99.9555 116.504 99.7755L116.052 93.4344C116.044 93.3397 116.078 93.2466 116.143 93.1768C116.209 93.1069 116.299 93.0681 116.393 93.0681H173.613C173.793 93.0681 173.94 93.2062 173.954 93.3863L174.406 99.7274C174.414 99.822 174.38 99.9152 174.316 99.985C174.251 100.055 174.161 100.094 174.066 100.094H174.065ZM117.165 99.4108H173.698L173.294 93.7525H116.761L117.165 99.4108Z" fill="black"/>
<path d="M174.79 110.252H117.572C117.393 110.252 117.244 110.114 117.23 109.934L116.779 103.593C116.771 103.499 116.805 103.405 116.87 103.336C116.935 103.266 117.025 103.227 117.12 103.227H174.338C174.518 103.227 174.666 103.365 174.68 103.545L175.131 109.886C175.139 109.981 175.105 110.074 175.04 110.144C174.975 110.214 174.884 110.252 174.79 110.252ZM117.889 109.57H174.422L174.018 103.911H117.485L117.889 109.57Z" fill="black"/>
<path d="M175.513 120.413H137.55C137.361 120.413 137.209 120.259 137.209 120.071C137.209 119.884 137.362 119.73 137.55 119.73H175.145L174.742 114.072H138.015C137.825 114.072 137.673 113.918 137.673 113.73C137.673 113.543 137.827 113.389 138.015 113.389H175.06C175.24 113.389 175.388 113.527 175.402 113.707L175.853 120.048C175.861 120.143 175.827 120.236 175.762 120.306C175.697 120.376 175.607 120.414 175.512 120.414L175.513 120.413Z" fill="black"/>
<path d="M121.253 120.413H118.294C118.115 120.413 117.966 120.275 117.952 120.095L117.5 113.754C117.493 113.659 117.527 113.566 117.592 113.496C117.657 113.426 117.747 113.387 117.842 113.387H128.703C128.892 113.387 129.045 113.539 129.045 113.729C129.045 113.918 128.891 114.07 128.703 114.07H118.208L118.612 119.728H121.252C121.441 119.728 121.593 119.882 121.593 120.07C121.593 120.258 121.44 120.411 121.252 120.411L121.253 120.413Z" fill="black"/>
<path d="M176.013 131.115H131.731C131.541 131.115 131.389 130.961 131.389 130.773C131.389 130.586 131.543 130.432 131.731 130.432H175.647L175.243 124.774H137.552C137.362 124.774 137.21 124.622 137.21 124.432C137.21 124.243 137.364 124.091 137.552 124.091H175.563C175.743 124.091 175.891 124.229 175.905 124.409L176.356 130.75C176.364 130.845 176.33 130.938 176.266 131.008C176.201 131.078 176.111 131.116 176.016 131.116L176.013 131.115Z" fill="black"/>
<path d="M176.259 142.273H127.655C127.466 142.273 127.313 142.119 127.313 141.932C127.313 141.744 127.467 141.59 127.655 141.59H175.892L175.488 135.932H130.448C130.259 135.932 130.107 135.78 130.107 135.591C130.107 135.401 130.259 135.249 130.448 135.249H175.807C175.985 135.249 176.134 135.387 176.148 135.567L176.6 141.908C176.608 142.003 176.574 142.096 176.51 142.166C176.445 142.236 176.355 142.275 176.26 142.275L176.259 142.273Z" fill="black"/>
<path d="M174.468 171.198H123.339C123.159 171.198 123.011 171.06 122.997 170.88L122.761 167.559C122.753 167.464 122.787 167.371 122.853 167.301C122.918 167.231 123.008 167.192 123.103 167.192H174.232C174.413 167.192 174.56 167.33 174.574 167.51L174.81 170.832C174.818 170.926 174.784 171.019 174.72 171.089C174.655 171.159 174.565 171.198 174.47 171.198H174.468ZM123.657 170.513H174.1L173.913 167.877H123.469L123.657 170.513Z" fill="black"/>
<path d="M174.847 176.516H123.718C123.537 176.516 123.39 176.378 123.376 176.198L123.14 172.877C123.132 172.782 123.166 172.689 123.232 172.619C123.297 172.549 123.387 172.511 123.482 172.511H174.611C174.791 172.511 174.939 172.649 174.953 172.829L175.189 176.15C175.197 176.245 175.163 176.338 175.097 176.407C175.032 176.477 174.942 176.516 174.847 176.516ZM124.037 175.833H174.481L174.293 173.197H123.85L124.037 175.833Z" fill="black"/>
<path d="M175.226 181.836H124.096C123.916 181.836 123.769 181.698 123.755 181.518L123.519 178.197C123.511 178.102 123.545 178.009 123.61 177.939C123.676 177.869 123.766 177.831 123.86 177.831H174.99C175.17 177.831 175.318 177.969 175.332 178.149L175.568 181.47C175.575 181.565 175.541 181.658 175.478 181.728C175.412 181.797 175.322 181.836 175.228 181.836H175.226ZM124.416 181.153H174.86L174.672 178.517H124.228L124.416 181.153Z" fill="black"/>
<path d="M176.198 195.467H125.068C124.888 195.467 124.741 195.328 124.727 195.148L124.491 191.827C124.483 191.733 124.517 191.64 124.582 191.57C124.648 191.5 124.738 191.461 124.832 191.461H175.962C176.142 191.461 176.29 191.599 176.304 191.779L176.54 195.1C176.548 195.195 176.513 195.288 176.45 195.358C176.384 195.428 176.294 195.467 176.2 195.467H176.198ZM125.387 194.782H175.83L175.642 192.145H125.199L125.387 194.782Z" fill="black"/>
<path d="M176.577 200.787H125.447C125.267 200.787 125.12 200.648 125.106 200.468L124.87 197.147C124.862 197.053 124.896 196.959 124.96 196.89C125.025 196.82 125.115 196.781 125.21 196.781H176.339C176.519 196.781 176.667 196.919 176.681 197.099L176.917 200.42C176.925 200.515 176.891 200.608 176.827 200.678C176.762 200.748 176.672 200.787 176.577 200.787ZM125.766 200.102H176.209L176.021 197.465H125.578L125.766 200.102Z" fill="black"/>
<path d="M176.956 206.105H125.826C125.646 206.105 125.499 205.967 125.485 205.787L125.249 202.466C125.241 202.371 125.275 202.278 125.34 202.208C125.405 202.138 125.495 202.099 125.59 202.099H176.72C176.9 202.099 177.047 202.238 177.061 202.418L177.297 205.739C177.305 205.833 177.271 205.927 177.207 205.996C177.142 206.066 177.052 206.105 176.957 206.105H176.956ZM126.144 205.422H176.588L176.4 202.785H125.957L126.144 205.422Z" fill="black"/>
<path d="M177.926 219.735H126.796C126.618 219.735 126.469 219.597 126.455 219.417L126.219 216.096C126.211 216.001 126.245 215.908 126.309 215.839C126.374 215.769 126.464 215.73 126.559 215.73H177.689C177.869 215.73 178.016 215.868 178.03 216.048L178.266 219.369C178.274 219.464 178.24 219.557 178.175 219.627C178.109 219.697 178.019 219.735 177.925 219.735H177.926ZM127.116 219.053H177.56L177.372 216.416H126.928L127.116 219.053Z" fill="black"/>
<path d="M178.305 225.055H127.175C126.997 225.055 126.848 224.917 126.834 224.737L126.598 221.416C126.59 221.321 126.624 221.228 126.688 221.158C126.753 221.089 126.843 221.05 126.938 221.05H178.068C178.248 221.05 178.395 221.188 178.409 221.368L178.645 224.689C178.653 224.784 178.619 224.877 178.555 224.947C178.49 225.016 178.4 225.055 178.305 225.055ZM127.495 224.371H177.939L177.751 221.734H127.307L127.495 224.371Z" fill="black"/>
<path d="M178.685 230.375H127.556C127.377 230.375 127.228 230.237 127.214 230.057L126.978 226.736C126.97 226.641 127.005 226.548 127.068 226.478C127.133 226.409 127.223 226.37 127.318 226.37H178.448C178.628 226.37 178.776 226.508 178.789 226.688L179.026 230.009C179.033 230.104 178.999 230.197 178.935 230.267C178.87 230.336 178.78 230.375 178.685 230.375ZM127.874 229.691H178.317L178.13 227.054H127.686L127.874 229.691Z" fill="black"/>
<path d="M118.151 171.196H67.0214C66.8429 171.196 66.6938 171.058 66.6798 170.878L66.4438 167.557C66.4361 167.462 66.4702 167.369 66.5339 167.299C66.5991 167.229 66.6892 167.191 66.7839 167.191H117.914C118.094 167.191 118.241 167.329 118.255 167.509L118.491 170.83C118.499 170.925 118.465 171.018 118.4 171.088C118.334 171.157 118.244 171.196 118.15 171.196H118.151ZM67.3397 170.513H117.783L117.595 167.877H67.1519L67.3397 170.513Z" fill="black"/>
<path d="M118.53 176.516H67.4003C67.2218 176.516 67.0727 176.378 67.0588 176.198L66.8227 172.877C66.815 172.782 66.8491 172.689 66.9128 172.619C66.978 172.549 67.0681 172.511 67.1628 172.511H118.293C118.473 172.511 118.62 172.649 118.634 172.829L118.87 176.15C118.878 176.245 118.844 176.338 118.778 176.407C118.713 176.477 118.623 176.516 118.529 176.516H118.53ZM67.7186 175.832H118.162L117.974 173.195H67.5308L67.7186 175.832Z" fill="black"/>
<path d="M118.909 181.836H67.7791C67.6006 181.836 67.4515 181.698 67.4375 181.518L67.2015 178.197C67.1938 178.102 67.2279 178.009 67.2916 177.939C67.3568 177.869 67.4469 177.831 67.5416 177.831H118.671C118.851 177.831 118.999 177.969 119.013 178.149L119.249 181.47C119.257 181.564 119.222 181.658 119.157 181.727C119.092 181.797 119.002 181.836 118.907 181.836H118.909ZM68.0974 181.152H118.541L118.353 178.515H67.9095L68.0974 181.152Z" fill="black"/>
<path d="M119.881 195.465H68.7512C68.5726 195.465 68.4236 195.327 68.4096 195.147L68.1736 191.826C68.1658 191.731 68.2 191.638 68.2652 191.568C68.3304 191.498 68.4204 191.459 68.5152 191.459H119.645C119.825 191.459 119.973 191.598 119.986 191.778L120.222 195.099C120.23 195.193 120.196 195.287 120.131 195.356C120.066 195.426 119.976 195.465 119.881 195.465ZM69.0695 194.782H119.513L119.325 192.145H68.8816L69.0695 194.782Z" fill="black"/>
<path d="M120.26 200.785H69.1301C68.95 200.785 68.8025 200.647 68.7885 200.467L68.5525 197.146C68.5447 197.051 68.5789 196.958 68.6441 196.888C68.7093 196.818 68.7994 196.779 68.8941 196.779H120.024C120.204 196.779 120.351 196.918 120.365 197.098L120.601 200.419C120.609 200.513 120.575 200.606 120.51 200.676C120.445 200.746 120.355 200.785 120.26 200.785ZM69.4484 200.102H119.892L119.704 197.465H69.2605L69.4484 200.102Z" fill="black"/>
<path d="M120.639 206.105H69.5089C69.3303 206.105 69.1812 205.967 69.1673 205.787L68.9313 202.466C68.9235 202.371 68.9577 202.278 69.0213 202.208C69.0865 202.138 69.1766 202.099 69.2713 202.099H120.401C120.581 202.099 120.729 202.237 120.743 202.418L120.979 205.739C120.986 205.833 120.952 205.926 120.887 205.996C120.822 206.066 120.732 206.105 120.637 206.105H120.639ZM69.8272 205.42H120.271L120.083 202.784H69.6393L69.8272 205.42Z" fill="black"/>
<path d="M121.609 219.735H70.4793C70.2992 219.735 70.1517 219.597 70.1377 219.417L69.9017 216.096C69.894 216.001 69.9281 215.908 69.9933 215.839C70.0585 215.769 70.1486 215.73 70.2433 215.73H121.373C121.553 215.73 121.701 215.868 121.715 216.048L121.951 219.369C121.958 219.464 121.924 219.557 121.859 219.627C121.794 219.697 121.704 219.735 121.609 219.735ZM70.7976 219.051H121.241L121.053 216.414H70.6097L70.7976 219.051Z" fill="black"/>
<path d="M121.988 225.054H70.8582C70.6797 225.054 70.5306 224.916 70.5166 224.736L70.2806 221.414C70.2729 221.32 70.307 221.227 70.3707 221.157C70.4359 221.087 70.5259 221.048 70.6207 221.048H121.75C121.929 221.048 122.078 221.186 122.092 221.366L122.328 224.687C122.336 224.782 122.302 224.875 122.236 224.945C122.171 225.015 122.081 225.054 121.986 225.054H121.988ZM71.1765 224.371H121.62L121.432 221.734H70.9887L71.1765 224.371Z" fill="black"/>
<path d="M122.367 230.374H71.237C71.0585 230.374 70.9094 230.236 70.8954 230.056L70.6594 226.735C70.6517 226.64 70.6858 226.547 70.7495 226.477C70.8147 226.407 70.9047 226.368 70.9995 226.368H122.129C122.308 226.368 122.457 226.506 122.471 226.686L122.707 230.008C122.715 230.102 122.68 230.195 122.615 230.265C122.55 230.335 122.46 230.374 122.365 230.374H122.367ZM71.5569 229.691H122L121.812 227.054H71.369L71.5569 229.691Z" fill="black"/>
<path d="M144.983 161.967H98.5533C98.3638 161.967 98.2117 161.815 98.2117 161.626C98.2117 161.436 98.3654 161.284 98.5533 161.284H144.635L144.558 156.157H113.352C113.162 156.157 113.01 156.003 113.01 155.815C113.01 155.627 113.162 155.474 113.352 155.474H144.895C145.081 155.474 145.233 155.624 145.236 155.811L145.325 161.621C145.325 161.712 145.29 161.801 145.227 161.866C145.162 161.931 145.075 161.969 144.983 161.969V161.967Z" fill="black"/>
<path d="M64.7359 64.4401H154.911C158.248 64.4401 160.76 61.7335 160.522 58.3938L159.718 47.1005C159.176 39.4946 152.576 33.3289 144.975 33.3289H70.2401C62.6398 33.3289 56.9166 39.4946 57.4585 47.1005L58.2628 58.3938C58.5003 61.7335 61.3992 64.4401 64.7359 64.4401Z" fill="black"/>
<path d="M89.6021 17.2092L91.4762 43.5125C91.6874 46.4782 94.2617 48.8837 97.2258 48.8837H120.202C123.166 48.8837 125.398 46.4782 125.186 43.5125L123.312 17.2092C122.649 7.89304 114.565 0.341431 105.255 0.341431C95.9448 0.341431 88.9376 7.89304 89.6006 17.2092H89.6021ZM100.948 13.4613C100.741 10.5623 102.921 8.21428 105.818 8.21428C108.716 8.21428 111.229 10.5639 111.436 13.4613C111.642 16.3603 109.462 18.7099 106.565 18.7099C103.668 18.7099 101.154 16.3603 100.948 13.4613Z" fill="black"/>
<path d="M66.5308 64.4401H156.706C160.042 64.4401 162.555 61.7335 162.317 58.3938L161.513 47.1005C160.971 39.4946 154.371 33.3289 146.77 33.3289H72.0351C64.4347 33.3289 58.7115 39.4946 59.2534 47.1005L60.0577 58.3938C60.2953 61.7335 63.1941 64.4401 66.5308 64.4401Z" fill="white"/>
<path d="M156.706 64.7814H66.5308C63.0233 64.7814 59.9661 61.9259 59.7161 58.417L58.9118 47.1238C58.6417 43.3402 59.8652 39.7832 62.3557 37.1108C64.8337 34.4508 68.2714 32.9858 72.0335 32.9858H146.769C154.534 32.9858 161.3 39.3068 161.853 47.0757L162.657 58.3689C162.78 60.0838 162.224 61.6962 161.094 62.9098C159.97 64.1172 158.411 64.7814 156.704 64.7814H156.706ZM72.0335 33.6702C68.4623 33.6702 65.2033 35.0576 62.8572 37.5764C60.4971 40.1091 59.3388 43.483 59.5934 47.0757L60.3977 58.3689C60.6229 61.5286 63.3742 64.0986 66.5308 64.0986H156.704C158.218 64.0986 159.598 63.5104 160.594 62.4442C161.594 61.3719 162.084 59.941 161.976 58.4186L161.171 47.1253C160.643 39.7072 154.183 33.6702 146.769 33.6702H72.0335Z" fill="black"/>
<path d="M91.397 17.2092L93.2711 43.5125C93.4823 46.4782 96.0566 48.8837 99.0207 48.8837H121.997C124.961 48.8837 127.192 46.4782 126.981 43.5125L125.107 17.2092C124.444 7.89304 116.359 0.341431 107.05 0.341431C97.7397 0.341431 90.7325 7.89304 91.3955 17.2092H91.397ZM102.742 13.4613C102.536 10.5623 104.716 8.21428 107.613 8.21428C110.511 8.21428 113.024 10.5639 113.231 13.4613C113.437 16.3603 111.257 18.7099 108.36 18.7099C105.463 18.7099 102.949 16.3603 102.742 13.4613Z" fill="white"/>
<path d="M121.999 49.2251H99.0222C95.8873 49.2251 93.1546 46.6738 92.931 43.5358L91.0569 17.2324C90.7278 12.6186 92.2183 8.28411 95.2554 5.02509C98.2753 1.7847 102.464 0 107.051 0C116.521 0 124.775 7.7099 125.45 17.1859L127.324 43.4892C127.435 45.0225 126.938 46.4658 125.925 47.5522C124.919 48.6323 123.525 49.2267 121.999 49.2267V49.2251ZM107.051 0.682842C102.657 0.682842 98.6449 2.3915 95.7554 5.49222C92.8503 8.61001 91.4234 12.7629 91.7386 17.1843L93.6127 43.4877C93.8114 46.2749 96.2382 48.5407 99.0222 48.5407H121.999C123.332 48.5407 124.55 48.0224 125.425 47.0835C126.306 46.1384 126.738 44.8782 126.643 43.5358L124.769 17.2324C124.118 8.10719 116.172 0.68129 107.053 0.68129L107.051 0.682842ZM108.36 19.0513C105.293 19.0513 102.62 16.5543 102.401 13.4861C102.294 11.9854 102.78 10.5732 103.769 9.51167C104.753 8.45482 106.118 7.87285 107.612 7.87285C110.678 7.87285 113.352 10.3699 113.571 13.438C113.678 14.9387 113.192 16.351 112.203 17.4125C111.218 18.4693 109.854 19.0513 108.36 19.0513ZM107.612 8.55569C106.31 8.55569 105.123 9.06007 104.27 9.97725C103.412 10.8991 102.989 12.1282 103.082 13.438C103.277 16.157 105.643 18.3684 108.36 18.3684C109.661 18.3684 110.847 17.8641 111.701 16.9469C112.56 16.025 112.982 14.7959 112.889 13.4861C112.695 10.7672 110.329 8.55569 107.613 8.55569H107.612Z" fill="black"/>
<path d="M68.5431 94.4401C67.818 94.3609 63.5653 93.9621 59.7131 96.4901C55.968 98.9484 56.3158 101.734 52.7167 103.356C50.0228 104.569 48.6331 103.745 45.3849 104.143C40.5483 104.734 34.6621 107.832 32.2167 112.647C28.3909 120.177 32.9371 131.993 41.3107 135.147C46.7389 137.191 55.7848 134.344 56.8422 133.859C59.3715 132.698 59.4646 131.372 64.472 124.847C69.6533 118.094 70.8613 113.359 70.9281 110.471C70.9374 110.052 70.9203 108.527 71.8628 107.894C72.6655 107.354 73.5009 107.88 74.5458 107.819C76.7755 107.689 79.1153 104.934 79.2955 102.673C79.6075 98.7792 73.6313 94.9925 68.5431 94.4385V94.4401Z" fill="black"/>
<path d="M31.5396 261.458C30.4947 263.578 28.2883 268.291 27.1378 273.071C26.6735 275.002 27.1735 276.093 27.6144 277.657C28.2479 279.906 28.9606 280.958 28.6516 281.598C28.0011 282.937 20.5404 282.606 18.0655 278.532C17.2751 277.23 17.1121 275.322 18.4164 268.524C19.7548 261.55 19.2564 260.46 20.2873 259.612C23.5278 256.941 30.6406 260.94 31.5427 261.458H31.5396Z" fill="white"/>
<path d="M26.1844 282.643C23.6147 282.643 19.5514 281.638 17.772 278.708C16.9351 277.331 16.7534 275.368 18.0779 268.457C18.6229 265.614 18.8651 263.732 19.0266 262.487C19.2657 260.63 19.3542 259.934 20.0684 259.348C23.3896 256.61 30.3503 260.378 31.712 261.163C31.8688 261.253 31.9278 261.449 31.8486 261.61C30.4248 264.499 28.5088 268.845 27.4731 273.152C27.0958 274.718 27.3877 275.688 27.7557 276.917C27.8178 277.126 27.883 277.341 27.9467 277.566C28.1796 278.394 28.4265 279.065 28.6252 279.603C28.9963 280.609 29.2184 281.216 28.9622 281.746C28.6252 282.44 27.3458 282.602 26.6145 282.636C26.4779 282.642 26.335 282.645 26.1891 282.645L26.1844 282.643ZM23.2172 259.047C22.177 259.047 21.2267 259.278 20.5016 259.874C20.0156 260.274 19.9411 260.726 19.7035 262.574C19.5421 263.828 19.2983 265.723 18.7486 268.586C17.4723 275.241 17.6245 277.151 18.3543 278.352C20.0684 281.175 24.3041 282.052 26.5772 281.951C27.807 281.894 28.2697 281.596 28.3426 281.447C28.4731 281.178 28.2666 280.617 27.9793 279.838C27.7775 279.288 27.5244 278.602 27.2837 277.749C27.2216 277.528 27.1579 277.317 27.0974 277.111C26.7154 275.837 26.3847 274.736 26.8055 272.991C27.8225 268.766 29.6686 264.514 31.0909 261.598C29.9435 260.966 26.2139 259.047 23.2172 259.047Z" fill="black"/>
<path d="M27.1518 281.213C27.1425 281.213 27.1316 281.213 27.1223 281.213C24.0604 280.946 21.868 279.828 20.6057 277.888C18.272 274.299 19.9722 269.243 20.0452 269.028C20.1057 268.85 20.2983 268.755 20.4799 268.816C20.6585 268.878 20.7532 269.072 20.6926 269.25C20.6756 269.3 19.0282 274.209 21.1817 277.517C22.3229 279.271 24.3414 280.285 27.1813 280.531C27.3692 280.548 27.5089 280.713 27.4918 280.902C27.4763 281.081 27.3272 281.214 27.1518 281.214V281.213Z" fill="black"/>
<path d="M65.3973 270.273C65.3973 270.273 65.784 273.276 64.5185 280.181C64.3369 281.172 65.3896 281.987 66.3926 282.076C70.4932 282.439 80.1167 283.089 88.1503 282.834C88.894 282.811 89.4359 282.245 89.6021 281.761C91.0895 277.428 79.255 276.043 78.7737 273.109C77.9135 267.855 65.3958 270.273 65.3958 270.273H65.3973Z" fill="white"/>
<path d="M84.2749 283.235C75.9028 283.235 67.433 282.512 66.3632 282.417C65.6396 282.353 64.9331 281.978 64.5217 281.436C64.2158 281.034 64.0978 280.578 64.1816 280.12C65.4191 273.368 65.062 270.348 65.0574 270.318C65.0356 270.14 65.1552 269.974 65.3322 269.94C65.6877 269.871 74.08 268.285 77.6046 270.742C78.4492 271.33 78.9569 272.109 79.1122 273.056C79.2861 274.12 81.5763 275.1 83.7904 276.048C87.1147 277.471 90.8815 279.085 89.9251 281.872C89.7092 282.499 89.0338 283.149 88.1612 283.177C86.888 283.218 85.5822 283.235 84.2749 283.235ZM65.7654 270.554C65.829 271.504 65.8989 274.547 64.854 280.241C64.8043 280.51 64.8757 280.772 65.0651 281.02C65.3601 281.407 65.8927 281.688 66.4222 281.734C67.655 281.843 78.7473 282.788 88.1379 282.491C88.7637 282.471 89.1689 281.964 89.2776 281.647C90.0291 279.459 86.7203 278.042 83.5203 276.673C80.918 275.559 78.6697 274.597 78.4352 273.163C78.3095 272.396 77.9089 271.786 77.2117 271.301C74.2787 269.257 67.3025 270.293 65.7623 270.554H65.7654Z" fill="black"/>
<path d="M82.7905 281.427C75.4137 281.427 67.7155 280.345 66.5681 279.61C66.4097 279.507 66.3631 279.296 66.4656 279.138C66.5681 278.98 66.7792 278.933 66.9376 279.035C68.0881 279.776 78.9445 281.189 87.1597 280.598C87.3476 280.584 87.5122 280.725 87.5261 280.915C87.5401 281.104 87.3988 281.267 87.2094 281.281C85.7887 281.383 84.295 281.428 82.7889 281.428L82.7905 281.427Z" fill="black"/>
<path d="M84.9518 162.543C84.9518 162.543 83.9317 234.869 87.374 267.474C87.9345 272.787 83.5979 277.344 78.2613 277.049C76.5922 276.957 74.6544 276.591 72.4108 275.835C67.3833 274.142 63.4286 273.832 60.6167 273.995C57.8607 274.155 55.5518 271.931 55.5596 269.171C55.5969 255.137 55.9493 219.707 58.4973 204.832C58.4973 204.832 47.6937 236.14 38.8388 263.788C37.7892 267.065 34.6605 269.207 31.2214 269.03C27.335 268.832 21.9224 267.81 16.002 264.471C11.979 262.202 10.077 257.433 11.3735 253C16.1712 236.597 30.8394 194.113 62.424 158.498L84.9503 162.539L84.9518 162.543Z" fill="black"/>
<path d="M56.5316 212.337C56.499 212.337 56.4664 212.333 56.4338 212.323C56.2521 212.269 56.1497 212.08 56.204 211.898C57.4896 207.595 60.7984 198.907 63.4674 192.212C64.9968 188.377 68.3118 185.525 72.3348 184.581C72.5196 184.539 72.7028 184.653 72.7463 184.836C72.7897 185.02 72.6748 185.204 72.4916 185.247C68.686 186.139 65.5496 188.838 64.104 192.465C61.4412 199.146 58.1402 207.81 56.8608 212.094C56.8173 212.241 56.6807 212.337 56.5332 212.337H56.5316Z" fill="white"/>
<path d="M134.324 115.821C134.681 115.315 134.523 114.598 133.953 114.3C133.551 114.089 133.052 114.185 132.726 114.502L127.548 119.513L126.997 119.407C125.911 119.199 124.874 119.949 124.73 121.045C124.73 121.045 124.797 124.248 123.831 125.502C118.851 131.962 107.452 143.291 105.693 143.291C103.804 143.291 100.657 141.53 100.657 141.53L86.4315 144.298C86.4315 144.298 93.7338 155.874 106.197 153.107C116.695 150.775 126.21 133.626 128.95 128.273C129.278 127.632 129.809 127.125 130.45 126.796C130.719 126.659 130.97 126.486 131.201 126.276L133.34 124.339C134.147 123.607 134.412 122.449 134.004 121.439L133.492 120.172C132.982 118.915 133.149 117.488 133.93 116.379L134.325 115.819L134.324 115.821Z" fill="white"/>
<path d="M102.418 153.871C92.1966 153.871 86.2079 144.584 86.1412 144.48C86.0806 144.384 86.0713 144.266 86.1163 144.162C86.1614 144.058 86.2545 143.983 86.3648 143.962L100.59 141.193C100.67 141.176 100.752 141.19 100.823 141.23C100.854 141.247 103.915 142.948 105.693 142.948C107.121 142.948 118.221 132.218 123.559 125.292C124.291 124.344 124.404 121.909 124.387 121.051C124.387 121.034 124.387 121.017 124.39 121C124.472 120.376 124.798 119.828 125.309 119.46C125.82 119.092 126.443 118.953 127.061 119.072L127.438 119.143L132.489 114.256C132.933 113.825 133.586 113.723 134.111 113.997C134.467 114.184 134.725 114.513 134.818 114.899C134.911 115.285 134.833 115.694 134.603 116.018L134.207 116.578C133.489 117.595 133.34 118.891 133.807 120.045L134.319 121.311C134.78 122.449 134.478 123.768 133.568 124.592L131.431 126.529C131.183 126.754 130.905 126.946 130.607 127.099C130.012 127.404 129.545 127.864 129.256 128.427C126.557 133.696 116.926 151.071 106.273 153.438C104.93 153.736 103.645 153.869 102.421 153.869L102.418 153.871ZM87.0091 144.533C88.2948 146.316 93.8099 153.185 102.426 153.186C103.601 153.186 104.834 153.059 106.123 152.772C116.485 150.47 125.981 133.319 128.646 128.117C129 127.424 129.57 126.863 130.293 126.492C130.539 126.366 130.767 126.208 130.97 126.023L133.107 124.086C133.805 123.453 134.037 122.441 133.684 121.568L133.172 120.301C132.618 118.931 132.795 117.391 133.647 116.184L134.043 115.624C134.159 115.459 134.198 115.254 134.152 115.059C134.103 114.86 133.976 114.699 133.793 114.603C133.534 114.466 133.192 114.525 132.964 114.747L127.786 119.758C127.705 119.836 127.593 119.868 127.483 119.848L126.932 119.743C126.5 119.659 126.065 119.756 125.71 120.013C125.36 120.265 125.134 120.638 125.072 121.063C125.076 121.408 125.09 124.425 124.101 125.708C119.535 131.632 107.759 143.631 105.693 143.631C103.919 143.631 101.191 142.206 100.601 141.887L87.0091 144.531V144.533Z" fill="black"/>
<path d="M89.4934 131.048C87.0293 127.631 81.5545 123.49 77.3421 123.562L56.5548 123.855C54.4183 123.886 52.6964 125.612 52.6716 127.747L52.507 142.115L50.1221 164.739C61.0281 156.619 72.3937 163.565 78.7535 165.69C85.1133 167.814 87.0634 164.934 87.0634 164.934L86.4346 145.933C86.4346 145.933 88.5726 150.74 94.3331 154.361C95.083 154.833 96.0736 154.516 96.44 153.709C98.1542 149.93 101.426 147.357 101.665 141.867C101.718 140.654 101.18 139.495 100.241 138.725C96.8205 135.924 91.782 134.219 89.4949 131.048H89.4934Z" fill="white"/>
<path d="M82.9939 166.815C81.834 166.815 80.3994 166.599 78.6433 166.013C77.6263 165.673 76.4711 165.207 75.2491 164.712C68.54 162.003 59.3497 158.293 50.3255 165.012C50.2168 165.092 50.0693 165.102 49.9513 165.035C49.8333 164.968 49.7665 164.836 49.7805 164.703L52.1654 142.079L52.3285 127.744C52.3549 125.405 54.2103 123.548 56.5487 123.515L77.3359 123.222C77.3732 123.222 77.412 123.222 77.4493 123.222C81.9008 123.222 87.4485 127.631 89.7698 130.851C91.1004 132.698 93.3922 134.029 95.8175 135.438C97.4152 136.368 99.0672 137.327 100.454 138.463C101.48 139.304 102.059 140.583 102.002 141.882C101.836 145.698 100.246 148.132 98.7086 150.484C97.9772 151.603 97.2879 152.658 96.746 153.852C96.527 154.333 96.1125 154.696 95.6079 154.848C95.1141 154.997 94.58 154.926 94.1452 154.653C90.1253 152.126 87.8569 149.063 86.8181 147.363L87.4004 164.925C87.4035 164.996 87.3818 165.068 87.3414 165.128C87.2793 165.221 86.1474 166.818 82.9908 166.818L82.9939 166.815ZM61.5219 160.569C66.8119 160.569 71.723 162.552 75.5038 164.077C76.7164 164.568 77.8623 165.03 78.8591 165.362C84.2562 167.166 86.3384 165.238 86.7141 164.816L86.0884 145.943C86.0822 145.78 86.194 145.636 86.3539 145.599C86.5138 145.563 86.6768 145.644 86.7436 145.793C86.7653 145.841 88.9158 150.553 94.5117 154.071C94.7834 154.241 95.1032 154.285 95.4138 154.192C95.729 154.097 95.9883 153.869 96.1249 153.568C96.687 152.328 97.4245 151.2 98.1372 150.109C99.6246 147.834 101.162 145.479 101.32 141.851C101.368 140.765 100.882 139.695 100.022 138.989C98.6775 137.887 97.0503 136.942 95.4743 136.027C92.9838 134.579 90.6315 133.211 89.2155 131.248C86.6427 127.679 81.3232 123.903 77.4477 123.903C77.4136 123.903 77.381 123.903 77.3468 123.903L56.558 124.196C54.5923 124.224 53.0349 125.786 53.0117 127.75L52.8471 142.118L50.5398 164.015C54.2196 161.469 57.9569 160.569 61.5219 160.569Z" fill="black"/>
<path d="M56.3173 123.93C52.5319 123.995 48.9716 125.719 46.5665 128.643C43.5791 132.273 39.4071 137.653 35.9011 143.332C35.5254 143.94 35.4788 144.703 35.8157 145.333C38.2441 149.885 42.7251 149.275 46.1659 151.294C46.6876 151.6 47.3521 151.464 47.6999 150.968C50.6997 146.696 54.2025 143.858 54.2025 143.858L57.5268 123.911L56.3188 123.931L56.3173 123.93Z" fill="black"/>
<path d="M77.3421 123.562L76.9695 213.569L92.8146 209.93L87.7528 151.456C87.7528 151.456 93.8456 161.548 107.146 156.402C120.446 151.256 126.975 133.86 126.975 133.86L119.963 128.056C119.963 128.056 102.696 146.355 90.22 129.743C90.22 129.743 84.9611 122.509 77.3437 123.56L77.3421 123.562Z" fill="white"/>
<path d="M76.9695 213.911C76.8934 213.911 76.8173 213.885 76.7552 213.836C76.6745 213.771 76.6263 213.672 76.6263 213.568L76.999 123.56C76.999 123.389 77.1263 123.247 77.294 123.223C85.0279 122.153 90.4405 129.468 90.4933 129.543C93.7027 133.815 97.5238 136.106 101.851 136.349C111.068 136.86 119.626 127.912 119.712 127.822C119.836 127.691 120.041 127.679 120.179 127.794L127.191 133.598C127.303 133.691 127.345 133.845 127.293 133.981C127.228 134.157 120.556 151.578 107.268 156.72C96.4339 160.912 90.2185 155.081 88.1969 152.627L93.1546 209.901C93.1686 210.07 93.0568 210.225 92.8907 210.264L77.0456 213.903C77.0207 213.909 76.9943 213.912 76.9695 213.912V213.911ZM77.6822 123.864L77.3126 213.14L92.4466 209.663L87.4112 151.484C87.3973 151.325 87.4951 151.18 87.6457 151.13C87.7963 151.082 87.9625 151.142 88.0447 151.277C88.2885 151.679 94.1576 161.059 107.022 156.082C119.213 151.366 125.741 136.014 126.565 133.966L119.986 128.522C118.538 129.982 110.616 137.523 101.814 137.032C97.277 136.778 93.2835 134.394 89.9452 129.949C89.8909 129.875 84.8447 123.079 77.6822 123.864Z" fill="black"/>
<path d="M63.4766 123.74L61.3479 211.979C61.3479 211.979 42.3384 215.458 28.7975 204.98L40.0994 174.199C40.0994 174.199 26.0787 159.8 35.901 143.313C45.7248 126.825 48.4792 122.806 63.4766 123.74Z" fill="white"/>
<path d="M53.9152 212.853C47.0679 212.853 36.7923 211.597 28.5879 205.25C28.4699 205.158 28.4249 205.001 28.4761 204.862L39.7051 174.278C39.0079 173.515 36.0097 170.063 33.999 165.066C31.892 159.83 30.4604 151.775 35.6076 143.137C45.5898 126.385 48.515 122.463 63.4984 123.399C63.6816 123.41 63.8229 123.565 63.8182 123.748L61.6895 211.987C61.6848 212.148 61.5684 212.285 61.4084 212.314C61.3339 212.328 58.3388 212.853 53.9137 212.853H53.9152ZM29.2059 204.862C41.5776 214.269 58.6524 212.05 61.0141 211.687L63.1273 124.063C48.7898 123.222 46.127 126.821 36.196 143.49C31.198 151.878 32.5845 159.703 34.6263 164.791C36.8497 170.33 40.3106 173.927 40.3448 173.963C40.4364 174.058 40.4659 174.196 40.4209 174.319L29.2059 204.863V204.862Z" fill="black"/>
<path d="M73.7042 164.408L54.7957 145.29C54.3143 144.803 53.5287 144.798 53.0427 145.281L28.0383 169.987C27.5508 170.468 27.5461 171.254 28.0275 171.739L46.936 190.857C47.4173 191.345 48.203 191.349 48.689 190.868L73.6933 166.162C74.1809 165.681 74.1855 164.895 73.7026 164.41L73.7042 164.408Z" fill="white"/>
<path d="M47.8179 191.567C47.8179 191.567 47.8117 191.567 47.8086 191.567C47.3863 191.563 46.9903 191.397 46.6922 191.098L27.7837 171.98C27.4871 171.679 27.3241 171.281 27.3272 170.859C27.3303 170.437 27.4964 170.041 27.7961 169.744L52.8004 145.037C53.4215 144.424 54.4246 144.43 55.0379 145.049L73.9464 164.167C74.243 164.469 74.406 164.866 74.4029 165.288C74.3998 165.71 74.2336 166.106 73.934 166.404L48.9296 191.11C48.6315 191.405 48.2371 191.567 47.8179 191.567ZM53.9137 145.264C53.6855 145.264 53.4572 145.349 53.2818 145.523L28.2774 170.229C28.1066 170.398 28.0119 170.623 28.0104 170.862C28.0104 171.103 28.1004 171.328 28.2697 171.499L47.1782 190.617C47.3474 190.787 47.5726 190.882 47.8117 190.884H47.8163C48.0539 190.884 48.2775 190.792 48.4467 190.624L73.4511 165.918C73.6219 165.749 73.7166 165.524 73.7181 165.285C73.7181 165.044 73.6265 164.819 73.4588 164.649L54.5503 145.531C54.3749 145.354 54.1435 145.265 53.9122 145.265L53.9137 145.264Z" fill="black"/>
<path d="M69.5693 158.098L61.0591 149.494C60.4706 148.9 59.5111 148.894 58.9164 149.482L56.946 151.428L67.5866 162.186L69.5569 160.24C70.1516 159.651 70.1578 158.692 69.5693 158.098Z" fill="black"/>
<path d="M68.8768 150.278C67.6145 149.001 65.5541 148.988 64.2763 150.251L61.9628 152.537L66.537 157.162L68.8505 154.876C70.1283 153.614 70.1392 151.555 68.8768 150.278ZM66.8677 152.261C66.6177 152.008 66.6208 151.602 66.8723 151.353C67.1254 151.103 67.5322 151.107 67.7807 151.358C68.0306 151.611 68.0275 152.018 67.776 152.266C67.5229 152.516 67.1161 152.513 66.8677 152.261Z" fill="black"/>
<path d="M53.711 153.614L65.3635 165.396C65.6255 165.661 65.622 166.088 65.358 166.348L65.2609 166.444C64.9959 166.706 64.5677 166.704 64.3057 166.439L52.6532 154.657C52.3912 154.392 52.3948 153.966 52.6587 153.705L52.7559 153.609C53.0209 153.347 53.4491 153.349 53.711 153.614Z" fill="black"/>
<path d="M62.1397 168.581L50.4869 156.801C50.2245 156.535 50.2276 156.108 50.4931 155.846L50.5909 155.75C50.8564 155.488 51.2834 155.491 51.5442 155.756L63.1971 167.537C63.4595 167.802 63.4564 168.229 63.1909 168.491L63.0931 168.587C62.8276 168.85 62.4006 168.847 62.1382 168.581H62.1397Z" fill="black"/>
<path d="M49.3761 157.897L61.0286 169.678C61.2905 169.943 61.287 170.37 61.0231 170.631L60.9259 170.727C60.6609 170.989 60.2327 170.986 59.9707 170.721L48.3193 158.941C48.0574 158.676 48.0598 158.248 48.3248 157.986L48.422 157.89C48.687 157.628 49.1141 157.632 49.375 157.896L49.3761 157.897Z" fill="black"/>
<path d="M46.8226 173.28C47.1114 172.877 47.4002 172.473 47.689 172.071C48.9343 173.617 50.7788 174.565 52.7694 174.689C54.0923 174.772 55.5611 174.854 56.4213 174.866C57.5967 174.885 58.0438 174.838 58.3435 175.745C58.9242 177.508 53.7445 176.791 53.7445 176.791L59.3527 179.78C59.3527 179.78 60.1632 182.413 56.5144 183.329C53.9277 183.978 50.2649 180.888 48.3505 179.033C47.8707 178.568 47.3614 178.133 46.8288 177.728C46.3164 177.337 45.5898 176.764 44.7405 176.035C45.3926 175.091 46.1612 174.201 46.8226 173.279V173.28Z" fill="white"/>
<path d="M55.7847 183.759C53.156 183.759 49.9156 181.026 48.1129 179.28C47.6533 178.835 47.1518 178.405 46.6223 178.001C46.1503 177.643 45.4035 177.055 44.5185 176.296C44.3849 176.181 44.3601 175.985 44.4595 175.843C44.8197 175.32 45.2187 174.811 45.6053 174.317C45.9221 173.914 46.2481 173.495 46.5447 173.082L47.4127 171.873C47.4748 171.786 47.5741 171.733 47.6813 171.73C47.7806 171.728 47.8893 171.775 47.9576 171.857C49.1377 173.322 50.9 174.23 52.7927 174.348C54.4867 174.454 55.7102 174.514 56.4291 174.525L56.6154 174.528C57.6728 174.542 58.3109 174.55 58.6696 175.639C58.8217 176.102 58.6696 176.42 58.5143 176.605C57.9973 177.224 56.5657 177.32 55.3795 177.277L59.5142 179.48C59.5934 179.524 59.654 179.595 59.6804 179.682C59.6943 179.725 60.0033 180.765 59.404 181.828C58.9102 182.704 57.9678 183.32 56.5983 183.663C56.3359 183.728 56.0642 183.759 55.7847 183.759ZM45.2001 175.978C45.9687 176.629 46.6146 177.135 47.0369 177.457C47.5881 177.876 48.1098 178.324 48.588 178.788C50.1112 180.262 53.9215 183.625 56.4306 182.998C57.6044 182.704 58.4025 182.201 58.8016 181.501C59.1525 180.888 59.0981 180.27 59.0531 180.009L53.583 177.093C53.4371 177.016 53.3672 176.844 53.4184 176.687C53.4697 176.529 53.6296 176.431 53.7911 176.454C55.2646 176.657 57.5408 176.702 57.988 176.167C58.0361 176.11 58.0765 176.029 58.019 175.853C57.8203 175.251 57.6759 175.226 56.6045 175.213L56.4166 175.209C55.6884 175.197 54.4541 175.138 52.7492 175.031C50.8146 174.91 49.0042 174.039 47.7154 172.625L47.1021 173.481C46.7978 173.906 46.4655 174.329 46.1457 174.739C45.8289 175.144 45.5044 175.56 45.2016 175.979L45.2001 175.978Z" fill="black"/>
<path d="M73.8066 102.302C74.4743 102.853 74.8609 103.01 75.4028 103.533C76.5052 104.599 77.4663 107.748 79.3217 108.398C79.5189 109.427 78.6976 109.546 78.3839 110.119C78.6153 110.625 78.9957 112.982 79.3978 114.424C79.5391 114.928 79.2814 115.465 78.7954 115.663C77.9771 115.995 77.0548 116.21 76.0207 116.286C76.0207 116.286 70.5103 123.917 75.8919 128.056L63.4751 124.569L68.9778 114.132C68.8194 114.075 66.7559 113.283 66.537 111.576C66.4562 110.949 66.5944 109.951 67.1596 109.739C67.7108 109.531 68.6347 110.085 69.2169 111.266C69.3458 110.985 69.456 110.625 69.5709 110.209C69.7277 109.64 69.8442 108.988 69.6812 108.66C74.8314 107.265 70.2013 102.263 73.8051 102.302H73.8066Z" fill="white"/>
<path d="M75.8934 128.397C75.8624 128.397 75.8313 128.393 75.8003 128.385L63.3835 124.898C63.2841 124.87 63.2018 124.799 63.1614 124.704C63.1211 124.609 63.1257 124.501 63.1739 124.411L68.5027 114.301C67.8086 113.974 66.391 113.127 66.1985 111.621C66.1069 110.898 66.2544 109.716 67.04 109.421C67.6875 109.177 68.5166 109.618 69.1408 110.476C69.1765 110.356 69.2107 110.235 69.2433 110.121C69.501 109.18 69.411 108.884 69.3768 108.814C69.3318 108.722 69.3287 108.615 69.3722 108.522C69.4141 108.429 69.4964 108.359 69.5942 108.333C72.1406 107.642 72.0505 106.083 71.9636 104.576C71.9154 103.738 71.8689 102.945 72.3564 102.436C72.6669 102.111 73.139 101.965 73.8128 101.964C73.8905 101.964 73.9665 101.992 74.0271 102.043C74.3066 102.273 74.5333 102.431 74.7522 102.583C75.0425 102.785 75.3174 102.976 75.6434 103.292C76.0797 103.714 76.4803 104.41 76.9027 105.144C77.5951 106.346 78.3792 107.71 79.4366 108.08C79.5515 108.12 79.6369 108.218 79.6587 108.337C79.8279 109.216 79.3699 109.616 79.036 109.908C78.9367 109.995 78.8404 110.079 78.7659 110.169C78.8777 110.513 79.0065 111.117 79.1897 111.986C79.3543 112.773 79.5407 113.664 79.7285 114.336C79.918 115.012 79.5733 115.72 78.9258 115.982C78.0982 116.317 77.1852 116.53 76.2133 116.617C75.5441 117.615 71.417 124.184 76.103 127.788C76.2335 127.888 76.2738 128.065 76.2008 128.211C76.1418 128.329 76.0223 128.401 75.895 128.401L75.8934 128.397ZM63.9766 124.355L74.6497 127.351C70.8783 122.946 75.6916 116.159 75.7444 116.086C75.8034 116.004 75.895 115.953 75.9959 115.945C76.9601 115.875 77.8576 115.673 78.6665 115.346C78.991 115.214 79.1634 114.859 79.0686 114.517C78.8746 113.823 78.6851 112.92 78.519 112.123C78.3513 111.322 78.179 110.493 78.0718 110.262C78.0268 110.164 78.0315 110.051 78.0827 109.956C78.2162 109.711 78.4119 109.54 78.5842 109.39C78.8528 109.155 79.0283 109 79.0081 108.642C77.8203 108.112 77.0191 106.717 76.3064 105.48C75.9089 104.788 75.5316 104.135 75.1652 103.779C74.878 103.502 74.6373 103.334 74.3578 103.14C74.1622 103.004 73.9432 102.851 73.6855 102.645C73.2803 102.654 73.007 102.74 72.8486 102.906C72.566 103.201 72.6017 103.82 72.6437 104.535C72.729 106.01 72.844 108.007 70.0911 108.898C70.1268 109.244 70.0647 109.709 69.9001 110.302C69.8007 110.665 69.678 111.081 69.5274 111.41C69.4731 111.53 69.3535 111.609 69.2215 111.61C69.074 111.61 68.9685 111.537 68.9095 111.42C68.38 110.349 67.6099 109.937 67.2791 110.062C66.9562 110.183 66.7994 110.94 66.8754 111.536C67.0695 113.054 69.0119 113.785 69.0942 113.814C69.1874 113.848 69.2604 113.92 69.2945 114.013C69.3302 114.104 69.324 114.207 69.2774 114.295L63.9735 124.358L63.9766 124.355Z" fill="black"/>
<path d="M71.7788 115.661C71.7788 115.661 73.5395 116.752 75.8546 116.306L71.7788 115.661Z" fill="white"/>
<path d="M74.7243 116.755C72.9216 116.755 71.6624 115.99 71.5987 115.951C71.4388 115.852 71.3891 115.641 71.4885 115.481C71.5879 115.321 71.7975 115.27 71.9589 115.369C71.976 115.38 73.6436 116.384 75.791 115.97C75.9773 115.936 76.1558 116.055 76.1915 116.241C76.2273 116.428 76.1061 116.606 75.9198 116.642C75.5022 116.722 75.1016 116.755 74.7243 116.755Z" fill="black"/>
<path d="M49.1982 143.603C49.1982 143.603 41.2175 165.899 50.1205 171.912L44.7405 177.585C44.7405 177.585 32.0163 170.119 32.9075 154.307C33.8003 138.494 49.1967 143.603 49.1967 143.603H49.1982Z" fill="white"/>
<path d="M44.7405 178.087C44.68 178.087 44.621 178.071 44.5666 178.039C44.4331 177.959 31.1779 169.944 32.0722 154.105C32.0831 153.916 32.243 153.77 32.4325 153.784C32.6203 153.795 32.7647 153.956 32.7539 154.144C31.948 168.426 42.9456 176.173 44.6846 177.304L49.6004 172.12C41.0964 165.727 48.5493 144.554 48.8753 143.645C48.939 143.467 49.1346 143.375 49.3132 143.439C49.4902 143.502 49.5833 143.698 49.5197 143.876C49.4405 144.097 41.7299 165.991 50.3116 171.786C50.3954 171.842 50.4497 171.932 50.4606 172.033C50.4715 172.132 50.4373 172.231 50.369 172.304L44.989 177.978C44.9222 178.048 44.8321 178.085 44.7405 178.085V178.087Z" fill="black"/>
<path d="M82.5109 157.502C82.4985 157.502 82.4861 157.502 82.4721 157.501C82.2842 157.479 82.1492 157.311 82.1693 157.123L84.4161 136.961L80.9334 134.126C80.7921 134.009 80.7657 133.803 80.876 133.655L83.3789 130.308L79.9878 126.529C79.8621 126.388 79.8729 126.172 80.0142 126.046C80.1555 125.921 80.3698 125.932 80.4971 126.073L84.076 130.061C84.1847 130.182 84.1925 130.364 84.0947 130.494L81.6197 133.804L84.9921 136.551C85.0822 136.624 85.1288 136.739 85.1163 136.854L82.8494 157.201C82.8292 157.376 82.6817 157.505 82.5094 157.505L82.5109 157.502Z" fill="black"/>
<path d="M60.1151 151.01C59.9552 151.01 59.8108 150.897 59.7798 150.734L56.5067 133.925C56.4788 133.778 56.5486 133.63 56.6791 133.559L58.918 132.35L57.252 130.129C57.1495 129.993 57.1635 129.802 57.2862 129.681L60.9613 126.056C61.0949 125.924 61.3123 125.924 61.4442 126.059C61.5762 126.192 61.5762 126.409 61.4411 126.541L57.9787 129.957L59.7037 132.257C59.7642 132.336 59.786 132.439 59.7642 132.535C59.7425 132.633 59.6804 132.715 59.5934 132.761L57.2272 134.039L60.4521 150.601C60.4878 150.785 60.3667 150.965 60.1819 151.001C60.1602 151.006 60.1384 151.007 60.1167 151.007L60.1151 151.01Z" fill="black"/>
<path d="M186.261 125.463C198.672 125.463 208.733 115.407 208.733 103.002C208.733 90.5973 198.672 80.5413 186.261 80.5413C173.85 80.5413 163.789 90.5973 163.789 103.002C163.789 115.407 173.85 125.463 186.261 125.463Z" fill="white"/>
<path d="M186.261 125.804C173.681 125.804 163.448 115.576 163.448 103.002C163.448 90.4285 173.681 80.1982 186.261 80.1982C198.841 80.1982 209.076 90.4269 209.076 103.002C209.076 115.577 198.842 125.804 186.261 125.804ZM186.261 80.8826C174.059 80.8826 164.131 90.8056 164.131 103.002C164.131 115.199 174.059 125.121 186.261 125.121C198.464 125.121 208.391 115.199 208.391 103.002C208.391 90.8056 198.464 80.8826 186.261 80.8826Z" fill="black"/>
<path d="M198.392 107.622C198.392 114.496 192.816 120.068 185.94 120.068C179.063 120.068 173.487 114.496 173.487 107.622C173.487 101.382 183.741 86.2693 185.631 83.538C185.795 83.299 186.14 83.2866 186.323 83.5116C188.483 86.1716 198.392 101.362 198.392 107.622Z" fill="#FF5224"/>
<path d="M175.245 105.291C175.215 105.291 175.184 105.288 175.155 105.279C174.973 105.229 174.864 105.041 174.914 104.86C175.515 102.654 176.827 99.7213 178.816 96.1411C178.908 95.9766 179.114 95.916 179.28 96.0076C179.445 96.0992 179.505 96.3071 179.414 96.4716C177.453 100.005 176.161 102.887 175.574 105.038C175.532 105.19 175.395 105.29 175.245 105.29V105.291Z" fill="white"/>
<path d="M186.092 118.853C180.623 118.853 175.858 114.972 174.763 109.624C174.725 109.439 174.844 109.258 175.03 109.221C175.215 109.183 175.397 109.301 175.434 109.488C176.465 114.519 180.946 118.169 186.092 118.169C187.829 118.169 189.489 117.772 191.028 116.988C191.195 116.901 191.402 116.969 191.487 117.137C191.573 117.305 191.506 117.511 191.338 117.596C189.703 118.43 187.939 118.852 186.092 118.852V118.853Z" fill="white"/>
<path d="M266.227 65.2889C266.039 65.2889 265.887 65.1384 265.885 64.9506L265.862 62.2984C265.861 62.109 266.013 61.9554 266.201 61.9539C266.382 61.9601 266.544 62.1044 266.545 62.2922L266.569 64.9444C266.57 65.1337 266.418 65.2874 266.23 65.2889H266.227Z" fill="#FF541E"/>
<path d="M266.283 71.4656C266.095 71.4656 265.943 71.3151 265.941 71.1273L265.918 68.4766C265.917 68.2873 266.069 68.1336 266.257 68.1321H266.26C266.448 68.1321 266.6 68.2826 266.601 68.4704L266.625 71.1211C266.626 71.3104 266.474 71.464 266.286 71.4656H266.283Z" fill="#FF541E"/>
<path d="M261.827 67.0906C261.639 67.0906 261.487 66.9401 261.485 66.7523C261.484 66.563 261.636 66.4094 261.824 66.4078L264.476 66.3845H264.479C264.667 66.3845 264.819 66.5351 264.82 66.7228C264.822 66.9122 264.67 67.0658 264.482 67.0674L261.83 67.0906H261.827Z" fill="#FF541E"/>
<path d="M268.007 67.0349C267.819 67.0349 267.666 66.8843 267.665 66.6965C267.663 66.5072 267.816 66.3536 268.003 66.352L270.657 66.3287H270.66C270.848 66.3287 271 66.4793 271.002 66.6671C271.003 66.8564 270.851 67.01 270.663 67.0116L268.01 67.0349H268.007Z" fill="#FF541E"/>
<path d="M149.489 19.0916C149.445 19.0916 149.404 19.0838 149.362 19.0668C149.186 18.9954 149.102 18.7967 149.172 18.6214L150.166 16.1631C150.237 15.9878 150.438 15.904 150.612 15.9738C150.787 16.0452 150.871 16.2438 150.801 16.4192L149.807 18.8774C149.753 19.0109 149.626 19.0916 149.49 19.0916H149.489Z" fill="#FF541E"/>
<path d="M147.174 24.8198C147.13 24.8198 147.088 24.812 147.047 24.7949C146.871 24.7235 146.787 24.5249 146.857 24.3495L147.851 21.8913C147.922 21.7159 148.123 21.6321 148.296 21.702C148.472 21.7733 148.556 21.972 148.486 22.1474L147.492 24.6056C147.438 24.7391 147.311 24.8198 147.175 24.8198H147.174Z" fill="#FF541E"/>
<path d="M147.193 20.0663C147.149 20.0663 147.107 20.0585 147.065 20.0414L144.606 19.0482C144.43 18.9768 144.346 18.7782 144.416 18.6028C144.488 18.4274 144.688 18.3452 144.862 18.4135L147.321 19.4067C147.497 19.4781 147.581 19.6767 147.511 19.8521C147.456 19.9856 147.329 20.0663 147.194 20.0663H147.193Z" fill="#FF541E"/>
<path d="M152.923 22.3785C152.88 22.3785 152.838 22.3708 152.796 22.3537L150.337 21.3605C150.161 21.2891 150.077 21.0904 150.147 20.9151C150.219 20.7397 150.419 20.6574 150.593 20.7257L153.052 21.719C153.228 21.7903 153.312 21.989 153.242 22.1644C153.187 22.2978 153.06 22.3785 152.925 22.3785H152.923Z" fill="#FF541E"/>
<path d="M162.955 28.7569C162.64 28.7569 162.322 28.698 162.019 28.58C161.358 28.3224 160.837 27.818 160.553 27.16C159.973 25.8161 160.575 24.2393 161.896 23.6465C162.533 23.3609 163.241 23.3423 163.892 23.5953C164.553 23.8513 165.073 24.3557 165.357 25.0153C165.938 26.3592 165.336 27.936 164.014 28.5288C163.676 28.6809 163.316 28.7569 162.955 28.7569ZM162.955 24.1028C162.69 24.1028 162.426 24.1586 162.177 24.2704C161.196 24.7111 160.749 25.8859 161.182 26.8884C161.393 27.3788 161.778 27.7529 162.267 27.9422C162.744 28.1269 163.266 28.1144 163.735 27.9034C164.716 27.4626 165.163 26.2878 164.73 25.2853C164.519 24.7949 164.132 24.4209 163.645 24.2316C163.421 24.1447 163.188 24.1012 162.957 24.1012L162.955 24.1028Z" fill="#FF541E"/>
<path d="M9.11584 185.241C8.95281 185.241 8.80841 185.125 8.77891 184.959C8.75717 184.841 6.689 172.958 6.1968 157.102C5.74186 142.458 6.57721 121.329 13.1388 103.826C13.2056 103.649 13.4043 103.561 13.5782 103.626C13.7552 103.693 13.8453 103.89 13.7785 104.065C1.29499 137.372 9.37048 184.37 9.45277 184.841C9.48537 185.027 9.36116 185.204 9.17484 185.236C9.15465 185.239 9.13447 185.241 9.11428 185.241H9.11584Z" fill="#FF541E"/>
<path d="M0.753091 166.359C0.576086 166.359 0.427029 166.222 0.413055 166.044C0.378896 165.62 -2.78857 123.366 8.97142 98.1787C9.05216 98.008 9.25556 97.9335 9.42636 98.0142C9.59715 98.0933 9.67168 98.2982 9.59094 98.4689C-2.09297 123.49 1.06207 165.567 1.09468 165.989C1.10866 166.177 0.968914 166.342 0.78104 166.357C0.771724 166.357 0.762408 166.357 0.754644 166.357L0.753091 166.359Z" fill="#FF541E"/>
<path d="M9.79428 197.616C9.67162 197.616 9.55672 197.549 9.49617 197.442L4.88161 189.22C4.82105 189.113 4.82416 188.981 4.88626 188.877C4.94992 188.772 5.06327 188.716 5.18748 188.711L13.1356 188.908C13.249 188.911 13.353 188.969 13.4136 189.063C13.4741 189.158 13.485 189.276 13.4431 189.381L10.1095 197.406C10.0598 197.527 9.94489 197.608 9.81292 197.616C9.8067 197.616 9.79894 197.616 9.79273 197.616H9.79428ZM5.77284 189.409L9.74926 196.494L12.6217 189.58L5.77284 189.411V189.409Z" fill="#FF541E"/>
<path d="M244.166 4.37729L242.869 78.684L245.618 78.7319L246.916 4.42525L244.166 4.37729Z" fill="white"/>
<path d="M242.881 79.0281H242.875C242.685 79.025 242.535 78.8698 242.539 78.6804L243.842 4.3733C243.845 4.18397 244.01 4.04585 244.19 4.03809C244.379 4.04119 244.53 4.19638 244.525 4.38571L243.223 78.6928C243.219 78.8791 243.067 79.0281 242.881 79.0281Z" fill="black"/>
<path d="M239.407 94.4502L248.543 94.6096L248.723 84.3096L239.587 84.1502L239.407 94.4502Z" fill="white"/>
<path d="M248.547 94.9382H248.541L239.405 94.7784C239.215 94.7753 239.065 94.6201 239.069 94.4308L239.249 84.1307C239.251 84.0407 239.288 83.9538 239.353 83.8902C239.419 83.8281 239.504 83.8002 239.597 83.7939L248.735 83.9538C248.825 83.9553 248.912 83.9926 248.975 84.0578C249.037 84.123 249.073 84.2099 249.072 84.3014L248.891 94.6015C248.89 94.6915 248.853 94.7784 248.787 94.842C248.724 94.9041 248.638 94.9382 248.55 94.9382H248.547ZM239.759 94.1002L248.211 94.2476L248.381 84.6304L239.928 84.483L239.76 94.1002H239.759Z" fill="black"/>
<path d="M237.105 85.709L251.157 85.9542L247.82 70.0486L240.996 69.9307L237.105 85.709Z" fill="white"/>
<path d="M251.157 86.2956H251.15L237.097 86.0489C236.993 86.0473 236.895 85.9977 236.832 85.9154C236.768 85.8332 236.746 85.7261 236.771 85.6252L240.662 69.8469C240.701 69.6917 240.838 69.5691 241.001 69.5862L247.826 69.7057C247.986 69.7088 248.123 69.8205 248.155 69.9773L251.492 85.8828C251.514 85.9852 251.487 86.0908 251.421 86.1699C251.355 86.2491 251.259 86.2941 251.157 86.2941V86.2956ZM237.538 85.3738L250.733 85.605L247.541 70.3854L241.261 70.2752L237.538 85.3738Z" fill="black"/>
<path d="M226.992 199.303L257.272 199.831L259.132 93.3346L228.852 92.8063L226.992 199.303Z" fill="white"/>
<path d="M227.68 160.055L257.96 160.583L259.135 93.3335L228.854 92.8052L227.68 160.055Z" fill="white"/>
<path d="M234.096 263.544L247.91 263.785L249.081 196.723L235.267 196.482L234.096 263.544Z" fill="white"/>
<path d="M234.118 262.412L240.975 262.532L242.694 164.115L235.837 163.996L234.118 262.412Z" fill="black"/>
<path d="M234.099 263.543L247.913 263.784L249.668 163.273L235.854 163.032L234.099 263.543Z" fill="white"/>
<path d="M247.922 264.114H247.916L234.102 263.872C233.913 263.869 233.762 263.713 233.767 263.524L235.527 163.013C235.529 162.923 235.566 162.836 235.631 162.772C235.697 162.71 235.793 162.676 235.875 162.676L249.689 162.918C249.879 162.921 250.029 163.077 250.025 163.266L248.264 263.777C248.263 263.867 248.225 263.954 248.16 264.018C248.096 264.08 248.011 264.114 247.922 264.114ZM234.456 263.194L247.586 263.423L249.334 163.595L236.204 163.365L234.455 263.194H234.456Z" fill="black"/>
<path d="M227.566 166.304L257.847 166.832L257.967 159.93L227.687 159.402L227.566 166.304Z" fill="black"/>
<path d="M249.146 194.248H249.14L235.326 194.006C235.236 194.005 235.149 193.967 235.085 193.902C235.023 193.837 234.987 193.75 234.989 193.659L235.526 163.013C235.527 162.923 235.565 162.836 235.63 162.772C235.695 162.71 235.791 162.676 235.874 162.676L249.688 162.918C249.877 162.921 250.028 163.077 250.023 163.266L249.486 193.911C249.483 194.098 249.331 194.247 249.144 194.247L249.146 194.248ZM235.68 193.33L248.809 193.559L249.334 163.596L236.204 163.367L235.68 193.33Z" fill="black"/>
<path d="M257.277 200.159H257.271L226.991 199.629C226.801 199.626 226.651 199.47 226.656 199.281L228.522 92.7842C228.523 92.6941 228.561 92.6072 228.626 92.5436C228.691 92.4815 228.778 92.452 228.87 92.4474L259.15 92.9781C259.24 92.9797 259.327 93.0169 259.391 93.0821C259.453 93.1473 259.488 93.2342 259.487 93.3258L257.621 199.823C257.617 200.009 257.465 200.158 257.279 200.158L257.277 200.159ZM227.346 198.952L256.942 199.47L258.796 93.6579L229.2 93.1395L227.346 198.952Z" fill="black"/>
<path d="M217.401 199.658L266.836 200.521L266.948 194.098L217.514 193.236L217.401 199.658Z" fill="white"/>
<path d="M266.847 200.85H266.84L217.406 199.984C217.217 199.981 217.066 199.826 217.071 199.636L217.183 193.213C217.184 193.123 217.221 193.036 217.287 192.973C217.352 192.91 217.437 192.886 217.53 192.876L266.965 193.742C267.154 193.745 267.305 193.901 267.3 194.09L267.188 200.513C267.187 200.603 267.149 200.69 267.084 200.754C267.02 200.816 266.935 200.85 266.847 200.85ZM217.76 199.307L266.511 200.161L266.612 194.422L217.861 193.569L217.76 199.307Z" fill="black"/>
<path d="M224.315 269.045L257.488 269.624L257.6 263.202L224.427 262.623L224.315 269.045Z" fill="white"/>
<path d="M257.501 269.954H257.495L224.322 269.373C224.232 269.372 224.145 269.334 224.081 269.269C224.019 269.204 223.983 269.117 223.985 269.026L224.097 262.602C224.1 262.413 224.255 262.261 224.445 262.267L257.618 262.847C257.708 262.849 257.795 262.886 257.858 262.951C257.92 263.017 257.956 263.104 257.954 263.195L257.843 269.618C257.84 269.805 257.687 269.954 257.501 269.954ZM224.677 268.697L257.166 269.265L257.267 263.526L224.778 262.958L224.677 268.697Z" fill="black"/>
<path d="M252.862 100.469H252.855L246.76 100.362C246.57 100.359 246.42 100.204 246.424 100.015C246.427 99.8253 246.576 99.6763 246.772 99.6794L252.868 99.7865C253.057 99.7896 253.208 99.9447 253.203 100.134C253.2 100.32 253.048 100.469 252.862 100.469Z" fill="black"/>
<path d="M252.733 107.844H252.727L243.101 107.675C242.912 107.672 242.761 107.517 242.766 107.327C242.769 107.138 242.935 106.986 243.114 106.992L252.739 107.161C252.928 107.164 253.079 107.319 253.074 107.509C253.071 107.695 252.919 107.844 252.733 107.844Z" fill="black"/>
<path d="M252.591 115.861H252.585L246.489 115.754C246.3 115.751 246.149 115.596 246.154 115.407C246.157 115.22 246.309 115.071 246.496 115.071H246.502L252.598 115.178C252.787 115.181 252.938 115.337 252.933 115.526C252.93 115.712 252.778 115.861 252.591 115.861Z" fill="black"/>
<path d="M252.463 123.236H252.456L242.831 123.067C242.642 123.064 242.491 122.908 242.496 122.719C242.499 122.531 242.653 122.392 242.844 122.384L252.469 122.553C252.658 122.556 252.809 122.711 252.804 122.901C252.801 123.087 252.649 123.236 252.463 123.236Z" fill="black"/>
<path d="M252.323 131.253H252.317L246.221 131.146C246.031 131.143 245.881 130.988 245.885 130.798C245.889 130.609 246.045 130.451 246.233 130.463L252.329 130.57C252.519 130.573 252.669 130.728 252.664 130.918C252.661 131.104 252.509 131.253 252.323 131.253Z" fill="black"/>
<path d="M252.188 138.949H252.182L242.557 138.78C242.367 138.777 242.217 138.621 242.221 138.432C242.224 138.246 242.376 138.097 242.563 138.097H242.569L252.194 138.266C252.383 138.269 252.534 138.424 252.529 138.614C252.526 138.8 252.374 138.949 252.188 138.949Z" fill="black"/>
<path d="M252.059 146.324H252.053L245.957 146.217C245.767 146.213 245.617 146.058 245.621 145.869C245.625 145.683 245.777 145.534 245.963 145.534H245.969L252.065 145.641C252.254 145.644 252.405 145.799 252.4 145.988C252.397 146.175 252.245 146.324 252.059 146.324Z" fill="black"/>
<path d="M251.913 154.661H251.907L242.282 154.491C242.092 154.488 241.942 154.333 241.946 154.144C241.949 153.954 242.12 153.798 242.294 153.809L251.919 153.978C252.109 153.981 252.259 154.136 252.255 154.325C252.251 154.512 252.099 154.661 251.913 154.661Z" fill="black"/>
<path d="M251.755 163.64H251.748L245.653 163.533C245.463 163.53 245.312 163.374 245.317 163.185C245.32 162.996 245.48 162.834 245.665 162.85L251.761 162.957C251.95 162.96 252.101 163.115 252.096 163.305C252.093 163.491 251.941 163.64 251.755 163.64Z" fill="white"/>
<path d="M251.643 170.052H251.637L242.012 169.883C241.822 169.88 241.671 169.725 241.676 169.536C241.679 169.346 241.838 169.202 242.024 169.2L251.649 169.37C251.838 169.373 251.989 169.528 251.984 169.717C251.981 169.903 251.829 170.052 251.643 170.052Z" fill="black"/>
<path d="M174.807 160.763V146.265H227.514V160.53C227.514 165.719 229.919 170.617 234.029 173.789C238.138 176.963 240.544 181.859 240.544 187.049V261.376C240.544 268.087 235.101 273.528 228.387 273.528H174.529C167.815 273.528 162.371 268.087 162.371 261.376V186.815C162.371 181.758 164.655 176.971 168.588 173.789L168.592 173.786C172.524 170.605 174.808 165.819 174.808 160.761L174.807 160.763Z" fill="white"/>
<path d="M234.028 173.789C238.136 176.963 240.543 181.859 240.543 187.049V261.376C240.543 268.087 235.099 273.528 228.385 273.528H174.527C167.814 273.528 162.37 268.087 162.37 261.376V186.815C162.37 181.758 164.654 176.971 168.587 173.789L168.59 173.786H234.029L234.028 173.789Z" fill="white"/>
<path d="M228.385 273.871H174.527C167.635 273.871 162.028 268.267 162.028 261.378V186.816C162.028 181.631 164.34 176.788 168.373 173.526C168.433 173.476 168.512 173.446 168.59 173.446H234.029C234.105 173.446 234.178 173.473 234.239 173.519C238.402 176.733 240.886 181.793 240.886 187.05V261.379C240.886 268.268 235.279 273.872 228.387 273.872L228.385 273.871ZM168.711 174.129C164.891 177.272 162.711 181.883 162.711 186.815V261.376C162.711 267.888 168.012 273.186 174.527 273.186H228.385C234.9 273.186 240.201 267.888 240.201 261.376V187.047C240.201 182.039 237.852 177.218 233.911 174.129H168.711Z" fill="black"/>
<path d="M240.616 197.444H162.873V232.998H240.616V197.444Z" fill="white"/>
<path d="M240.616 233.341H162.873C162.684 233.341 162.531 233.187 162.531 233V197.445C162.531 197.256 162.685 197.104 162.873 197.104H240.616C240.805 197.104 240.957 197.256 240.957 197.445V233C240.957 233.189 240.803 233.341 240.616 233.341ZM163.215 232.657H240.274V197.785H163.215V232.657Z" fill="black"/>
<path d="M228.385 273.871H174.527C167.635 273.871 162.028 268.267 162.028 261.378V186.816C162.028 181.631 164.34 176.788 168.373 173.526C172.245 170.391 174.465 165.741 174.465 160.764V146.266C174.465 146.077 174.619 145.925 174.807 145.925H227.514C227.704 145.925 227.856 146.078 227.856 146.266V160.531C227.856 165.578 230.241 170.436 234.237 173.521C238.4 176.735 240.884 181.794 240.884 187.052V261.381C240.884 268.27 235.278 273.874 228.385 273.874V273.871ZM175.148 146.606V160.763C175.148 165.948 172.837 170.791 168.804 174.053C164.932 177.188 162.711 181.838 162.711 186.815V261.376C162.711 267.888 168.012 273.186 174.527 273.186H228.385C234.9 273.186 240.201 267.888 240.201 261.376V187.047C240.201 182.001 237.816 177.143 233.82 174.058C229.657 170.844 227.173 165.785 227.173 160.527V146.605H175.148V146.606Z" fill="black"/>
<path d="M174.638 156.526H228.177C230.696 156.526 232.737 154.485 232.737 151.968V147.424C232.737 144.907 230.696 142.866 228.177 142.866H174.638C172.119 142.866 170.077 144.907 170.077 147.424V151.968C170.077 154.485 172.119 156.526 174.638 156.526Z" fill="black"/>
<path d="M192.986 164.669H178.616C178.426 164.669 178.274 164.517 178.274 164.327C178.274 164.138 178.428 163.986 178.616 163.986H192.986C193.175 163.986 193.327 164.138 193.327 164.327C193.327 164.517 193.174 164.669 192.986 164.669Z" fill="black"/>
<path d="M216.78 145.69H174.338C174.148 145.69 173.996 145.538 173.996 145.349C173.996 145.16 174.15 145.008 174.338 145.008H216.78C216.97 145.008 217.122 145.16 217.122 145.349C217.122 145.538 216.968 145.69 216.78 145.69Z" fill="white"/>
<path d="M228.57 145.69H222.021C221.831 145.69 221.679 145.538 221.679 145.349C221.679 145.16 221.831 145.008 222.021 145.008H228.57C228.759 145.008 228.911 145.16 228.911 145.349C228.911 145.538 228.758 145.69 228.57 145.69Z" fill="white"/>
<path d="M154.018 196.452H195.419C195.419 196.452 195.602 275.292 195.589 275.8C195.544 277.817 186.23 279.428 174.692 279.428C163.154 279.428 153.889 277.827 153.807 275.811C153.767 274.833 154.017 196.45 154.017 196.45L154.018 196.452Z" fill="white"/>
<path d="M174.692 279.77C164.224 279.77 153.572 278.415 153.467 275.825C153.426 274.85 153.666 199.65 153.676 196.45C153.676 196.261 153.83 196.109 154.018 196.109H195.419C195.608 196.109 195.76 196.261 195.76 196.45C195.768 199.669 195.944 275.302 195.933 275.806C195.875 278.408 185.204 279.77 174.692 279.77ZM154.358 196.793C154.339 202.425 154.111 274.87 154.148 275.797C154.203 277.141 161.55 279.085 174.69 279.085C187.831 279.085 195.217 277.137 195.246 275.79C195.257 275.218 195.088 202.441 195.076 196.792H154.357L154.358 196.793Z" fill="black"/>
<path d="M154.226 249.172C168.646 252.893 182.373 252.81 195.332 249.172V225.615C180.223 228.781 166.416 229.266 154.226 225.615V249.172Z" fill="white"/>
<path d="M175.207 252.265C168.312 252.265 161.274 251.345 154.139 249.503C153.989 249.464 153.883 249.327 153.883 249.172V225.616C153.883 225.507 153.934 225.406 154.021 225.341C154.107 225.276 154.22 225.257 154.324 225.288C165.654 228.681 179.044 228.679 195.262 225.28C195.364 225.259 195.467 225.285 195.548 225.35C195.627 225.415 195.673 225.513 195.673 225.616V249.172C195.673 249.326 195.571 249.459 195.423 249.501C188.86 251.343 182.104 252.265 175.207 252.265ZM154.568 248.907C168.539 252.47 182.135 252.471 194.99 248.913V226.036C179.052 229.328 165.818 229.34 154.568 226.073V248.907Z" fill="black"/>
<path d="M174.692 279.732C164.482 279.732 153.572 278.329 153.467 275.731C153.426 274.757 153.666 199.503 153.676 196.3C153.676 196.111 153.83 195.958 154.018 195.958H195.419C195.608 195.958 195.76 196.111 195.76 196.3C195.768 199.522 195.944 275.226 195.933 275.731C195.875 278.331 184.946 279.732 174.692 279.732ZM154.358 196.641C154.339 202.276 154.111 274.775 154.148 275.702C154.204 277.069 161.552 279.048 174.69 279.048C187.829 279.048 195.217 277.077 195.246 275.716C195.257 275.143 195.088 202.297 195.076 196.643H154.357L154.358 196.641Z" fill="black"/>
<path d="M174.846 193.578C187.672 193.578 198.069 192.677 198.069 191.567C198.069 190.456 187.672 189.555 174.846 189.555C162.02 189.555 151.622 190.456 151.622 191.567C151.622 192.677 162.02 193.578 174.846 193.578Z" fill="black"/>
<path d="M151.798 191.396H198.069L198.041 199.705C198.049 199.725 198.052 199.789 198.052 199.809C198.052 200.92 187.862 201.985 175.035 201.985C162.208 201.985 151.812 201.095 151.812 199.984C151.812 199.955 151.821 199.844 151.835 199.817L151.796 191.396H151.798Z" fill="black"/>
<path d="M196.437 200.043C196.693 200.043 196.905 199.834 196.905 199.576V193.469C196.905 193.213 196.695 193.002 196.437 193.002C196.179 193.002 195.97 193.212 195.97 193.469V199.576C195.97 199.834 196.179 200.043 196.437 200.043Z" fill="white"/>
<path d="M193.826 200.619C194.082 200.619 194.293 200.409 194.293 200.152V194.045C194.293 193.789 194.083 193.578 193.826 193.578C193.568 193.578 193.358 193.787 193.358 194.045V200.152C193.358 200.408 193.568 200.619 193.826 200.619Z" fill="white"/>
<path d="M191.237 200.906C191.493 200.906 191.705 200.697 191.705 200.439V194.332C191.705 194.074 191.495 193.865 191.237 193.865C190.98 193.865 190.77 194.074 190.77 194.332V200.439C190.77 200.695 190.98 200.906 191.237 200.906Z" fill="white"/>
<path d="M188.554 201.097C188.812 201.097 189.022 200.887 189.022 200.63V194.523C189.022 194.267 188.812 194.056 188.554 194.056C188.296 194.056 188.087 194.265 188.087 194.523V200.63C188.087 200.886 188.296 201.097 188.554 201.097Z" fill="white"/>
<path d="M185.823 201.241C186.079 201.241 186.29 201.032 186.29 200.774V194.667C186.29 194.41 186.081 194.2 185.823 194.2C185.565 194.2 185.356 194.41 185.356 194.667V200.774C185.356 201.032 185.565 201.241 185.823 201.241Z" fill="white"/>
<path d="M183.235 201.384C183.491 201.384 183.702 201.174 183.702 200.917V194.81C183.702 194.554 183.492 194.343 183.235 194.343C182.977 194.343 182.767 194.552 182.767 194.81V200.917C182.767 201.173 182.977 201.384 183.235 201.384Z" fill="white"/>
<path d="M180.648 201.48C180.904 201.48 181.115 201.271 181.115 201.013V194.906C181.115 194.65 180.906 194.439 180.648 194.439C180.39 194.439 180.181 194.649 180.181 194.906V201.013C180.181 201.271 180.39 201.48 180.648 201.48Z" fill="white"/>
<path d="M177.821 201.432C178.077 201.432 178.288 201.223 178.288 200.965V194.858C178.288 194.602 178.078 194.391 177.821 194.391C177.563 194.391 177.353 194.601 177.353 194.858V200.965C177.353 201.221 177.563 201.432 177.821 201.432Z" fill="white"/>
<path d="M174.706 201.48C174.962 201.48 175.173 201.271 175.173 201.013V194.906C175.173 194.65 174.964 194.439 174.706 194.439C174.448 194.439 174.239 194.649 174.239 194.906V201.013C174.239 201.271 174.448 201.48 174.706 201.48Z" fill="white"/>
<path d="M153.19 199.995C152.934 199.995 152.723 199.785 152.723 199.528V193.421C152.723 193.163 152.933 192.954 153.19 192.954C153.448 192.954 153.658 193.163 153.658 193.421V199.528C153.658 199.785 153.448 199.995 153.19 199.995Z" fill="white"/>
<path d="M155.802 200.571C155.546 200.571 155.335 200.361 155.335 200.104V193.997C155.335 193.741 155.544 193.53 155.802 193.53C156.06 193.53 156.269 193.739 156.269 193.997V200.104C156.269 200.36 156.06 200.571 155.802 200.571Z" fill="white"/>
<path d="M158.39 200.858C158.134 200.858 157.923 200.648 157.923 200.391V194.284C157.923 194.028 158.133 193.817 158.39 193.817C158.648 193.817 158.858 194.026 158.858 194.284V200.391C158.858 200.647 158.648 200.858 158.39 200.858Z" fill="white"/>
<path d="M161.073 201.049C160.816 201.049 160.606 200.839 160.606 200.582V194.475C160.606 194.219 160.816 194.008 161.073 194.008C161.331 194.008 161.541 194.217 161.541 194.475V200.582C161.541 200.838 161.331 201.049 161.073 201.049Z" fill="white"/>
<path d="M163.805 201.193C163.548 201.193 163.337 200.984 163.337 200.726V194.619C163.337 194.362 163.547 194.152 163.805 194.152C164.062 194.152 164.272 194.362 164.272 194.619V200.726C164.272 200.984 164.062 201.193 163.805 201.193Z" fill="white"/>
<path d="M166.393 201.336C166.137 201.336 165.925 201.126 165.925 200.869V194.762C165.925 194.506 166.135 194.295 166.393 194.295C166.651 194.295 166.86 194.504 166.86 194.762V200.869C166.86 201.125 166.651 201.336 166.393 201.336Z" fill="white"/>
<path d="M168.98 201.432C168.723 201.432 168.512 201.223 168.512 200.965V194.858C168.512 194.602 168.722 194.391 168.98 194.391C169.237 194.391 169.447 194.601 169.447 194.858V200.965C169.447 201.221 169.237 201.432 168.98 201.432Z" fill="white"/>
<path d="M171.807 201.384C171.551 201.384 171.34 201.174 171.34 200.917V194.81C171.34 194.554 171.549 194.343 171.807 194.343C172.065 194.343 172.274 194.552 172.274 194.81V200.917C172.274 201.173 172.065 201.384 171.807 201.384Z" fill="white"/>
<path d="M175.035 202.351C168.823 202.351 162.98 202.141 158.584 201.759C151.47 201.143 151.47 200.397 151.47 199.997C151.47 199.939 151.481 199.889 151.493 199.851L151.456 191.59C151.456 191.4 151.608 191.247 151.796 191.247H151.798C151.986 191.247 152.139 191.399 152.139 191.587L152.178 199.917C152.178 199.934 152.178 199.95 152.175 199.967C152.999 200.695 161.215 201.669 175.035 201.669C188.059 201.669 196.892 200.608 197.693 199.826C197.693 199.818 197.693 199.809 197.693 199.803L197.712 191.59C197.712 191.4 197.866 191.248 198.054 191.248C198.243 191.248 198.395 191.402 198.395 191.591L198.376 199.747C198.384 199.776 198.392 199.815 198.392 199.86C198.392 200.236 198.392 201.019 191.385 201.693C186.953 202.12 181.146 202.354 175.035 202.354V202.351Z" fill="black"/>
<path d="M174.846 193.919C168.633 193.919 162.791 193.71 158.395 193.33C151.281 192.713 151.281 191.967 151.281 191.567C151.281 191.166 151.281 190.42 158.395 189.804C162.791 189.423 168.633 189.214 174.846 189.214C181.058 189.214 186.901 189.423 191.296 189.804C198.411 190.42 198.411 191.166 198.411 191.567C198.411 191.967 198.411 192.713 191.296 193.33C186.901 193.71 181.058 193.919 174.846 193.919ZM152.023 191.567C153.041 192.29 161.219 193.236 174.846 193.236C188.472 193.236 196.65 192.29 197.668 191.567C196.65 190.843 188.472 189.897 174.846 189.897C161.219 189.897 153.041 190.843 152.023 191.567Z" fill="white"/>
<path d="M169.093 276.735C169.557 279.866 172.473 282.026 175.605 281.562L195.797 278.567C198.196 278.211 199.853 275.978 199.496 273.58L199.216 271.698C198.821 269.035 196.341 267.197 193.677 267.592L173.673 270.559C170.702 271 168.65 273.765 169.091 276.734L169.093 276.735Z" fill="black"/>
<path d="M199.32 272.389C200.074 277.14 197.091 278.334 193.332 278.891L184.832 280.153L183.201 269.167L191.7 267.905C195.457 267.348 198.507 267.969 199.319 272.389H199.32Z" fill="white"/>
<path d="M190.872 277.968C190.706 277.968 190.559 277.847 190.534 277.676C190.506 277.49 190.635 277.316 190.823 277.288L192.799 276.995C195.263 276.628 197.032 274.734 196.74 272.772C196.712 272.586 196.841 272.412 197.029 272.384C197.218 272.358 197.389 272.485 197.417 272.673C197.763 275.008 195.737 277.251 192.9 277.673L190.924 277.966C190.906 277.969 190.889 277.969 190.874 277.969L190.872 277.968Z" fill="white"/>
<path d="M174.807 281.958C173.499 281.958 172.232 281.542 171.163 280.749C169.844 279.773 168.987 278.34 168.747 276.718C168.523 275.21 168.899 273.703 169.809 272.479C170.717 271.253 172.049 270.455 173.56 270.231L192.899 267.362C194.471 267.128 196.043 267.522 197.321 268.468C198.599 269.415 199.431 270.804 199.665 272.378L199.715 272.71C200.165 275.742 198.063 278.576 195.029 279.026L175.723 281.891C175.417 281.936 175.111 281.959 174.808 281.959L174.807 281.958ZM193.784 267.981C193.523 267.981 193.26 268 192.998 268.039L173.659 270.908C172.33 271.105 171.158 271.808 170.357 272.887C169.556 273.965 169.225 275.291 169.422 276.619C169.636 278.061 170.399 279.332 171.569 280.199C172.74 281.067 174.18 281.427 175.622 281.213L194.928 278.348C197.589 277.954 199.432 275.468 199.038 272.808L198.988 272.475C198.782 271.082 198.044 269.854 196.914 269.016C195.996 268.335 194.906 267.978 193.785 267.978L193.784 267.981Z" fill="black"/>
<path d="M193.333 260.665C192.211 263.625 193.7 266.932 196.659 268.056L215.746 275.294C218.013 276.153 220.549 275.013 221.409 272.747L222.084 270.969C223.039 268.451 221.772 265.636 219.254 264.682L200.347 257.512C197.538 256.447 194.398 257.86 193.332 260.667L193.333 260.665Z" fill="white"/>
<path d="M221.837 271.619C220.173 276.133 216.987 275.719 213.436 274.372L205.402 271.325L209.343 260.942L217.377 263.988C220.929 265.335 223.286 267.365 221.837 271.619Z" fill="black"/>
<path d="M216.818 275.68C216.162 275.68 215.498 275.564 214.85 275.319L196.602 268.399C195.068 267.817 193.852 266.673 193.18 265.178C192.507 263.682 192.456 262.016 193.038 260.482C194.155 257.538 197.462 256.05 200.407 257.169L218.687 264.1C221.758 265.264 223.308 268.709 222.143 271.779L222.024 272.092C221.182 274.311 219.061 275.68 216.816 275.68H216.818ZM198.386 257.479C196.355 257.479 194.439 258.716 193.676 260.724C193.159 262.087 193.204 263.569 193.802 264.897C194.4 266.226 195.481 267.242 196.842 267.759L215.091 274.679C217.608 275.632 220.429 274.363 221.382 271.85L221.502 271.537C222.533 268.819 221.16 265.771 218.442 264.739L200.162 257.808C199.577 257.586 198.974 257.481 198.383 257.481L198.386 257.479Z" fill="black"/>
<path d="M218.536 276.351C218.299 273.196 215.546 270.829 212.389 271.068L192.032 272.6C189.613 272.781 187.801 274.889 187.983 277.307L188.126 279.203C188.327 281.888 190.669 283.899 193.355 283.697L213.52 282.18C216.515 281.955 218.76 279.344 218.535 276.351H218.536Z" fill="white"/>
<path d="M188.074 278.506C187.666 273.712 190.728 272.738 194.516 272.452L203.086 271.807L203.919 282.881L195.35 283.527C191.562 283.812 188.565 282.971 188.074 278.506Z" fill="black"/>
<path d="M190.333 278.678C190.156 278.678 190.006 278.542 189.993 278.362C189.816 276.008 192 273.916 194.86 273.7L196.853 273.549C197.038 273.535 197.206 273.677 197.22 273.864C197.234 274.052 197.092 274.217 196.904 274.231L194.911 274.381C192.426 274.569 190.526 276.33 190.675 278.309C190.689 278.497 190.548 278.661 190.36 278.675C190.351 278.675 190.343 278.675 190.333 278.675V278.678Z" fill="white"/>
<path d="M193.659 284C192.237 284 190.875 283.497 189.785 282.56C188.579 281.523 187.849 280.078 187.73 278.492L187.705 278.157C187.593 276.677 188.065 275.241 189.034 274.114C190.003 272.989 191.352 272.306 192.833 272.196L212.296 270.731C213.928 270.605 215.518 271.128 216.762 272.198C218.005 273.267 218.758 274.755 218.881 276.391C218.996 277.912 218.51 279.388 217.516 280.544C216.521 281.7 215.134 282.4 213.613 282.515L194.117 283.981C193.964 283.994 193.812 283.998 193.661 283.998L193.659 284ZM212.762 271.397C212.625 271.397 212.487 271.402 212.349 271.412L192.886 272.877C191.587 272.975 190.403 273.573 189.554 274.561C188.705 275.548 188.29 276.808 188.388 278.107L188.413 278.443C188.518 279.846 189.164 281.124 190.233 282.043C191.301 282.962 192.666 283.404 194.066 283.302L213.562 281.835C214.902 281.734 216.122 281.118 216.998 280.1C217.873 279.082 218.3 277.783 218.199 276.444C217.984 273.584 215.586 271.398 212.76 271.398L212.762 271.397Z" fill="black"/>
</g>
<defs>
<clipPath id="clip0_164_585">
<rect width="271" height="284" fill="white"/>
</clipPath>
</defs>
</svg>
