<svg width="5" height="8" viewBox="0 0 5 8" fill="none" xmlns="http://www.w3.org/2000/svg">
<path d="M1.21941 7.97714C1.1656 7.95246 1.12087 7.90902 1.0923 7.85366C1.06373 7.79831 1.05294 7.73419 1.06163 7.67143L1.54025 4.28576H0.270054C0.229785 4.28694 0.189805 4.27805 0.153199 4.25978C0.116594 4.24151 0.0843406 4.21435 0.0589285 4.18039C0.0335164 4.14643 0.0156246 4.10658 0.00663372 4.06392C-0.00235719 4.02126 -0.00220692 3.97693 0.00707287 3.93434L0.796015 0.220099C0.809897 0.156177 0.843627 0.0994031 0.891525 0.0593338C0.939423 0.0192645 0.998565 -0.00165311 1.059 0.000102116H3.6888C3.72809 -4.30166e-05 3.76691 0.00937733 3.80241 0.027671C3.8379 0.0459646 3.86918 0.0726667 3.89393 0.105815C3.91903 0.139338 3.9368 0.17861 3.94591 0.220675C3.95502 0.262741 3.95523 0.306503 3.94652 0.348669L3.49157 2.5715H4.74073C4.79001 2.57139 4.83834 2.58633 4.88019 2.61462C4.92203 2.64291 4.95572 2.68341 4.97741 2.7315C4.99625 2.77765 5.00351 2.8284 4.99842 2.87859C4.99334 2.92878 4.97611 2.97661 4.94848 3.01721L1.52973 7.87429C1.50663 7.9115 1.47578 7.94227 1.43968 7.96411C1.40358 7.98595 1.36326 7.99825 1.32198 8C1.28679 7.99929 1.25202 7.99154 1.21941 7.97714Z" fill="#FF541E"/>
</svg>
