<svg width="6" height="6" viewBox="0 0 6 6" fill="none" xmlns="http://www.w3.org/2000/svg">
<g clip-path="url(#clip0_1_64)">
<path d="M4.68023 0.937619C4.61322 0.942838 4.54918 0.967454 4.49592 1.00846C4.44266 1.04947 4.4025 1.1051 4.38033 1.16855C4.35816 1.232 4.35494 1.30054 4.37107 1.36579C4.3872 1.43104 4.42197 1.49019 4.47115 1.536C4.66361 1.72808 4.8162 1.9563 4.92016 2.20754C5.02412 2.45879 5.0774 2.7281 5.07692 3C5.07724 3.27188 5.0239 3.54115 4.91995 3.79238C4.816 4.0436 4.66349 4.27184 4.47115 4.464C4.43773 4.49593 4.41102 4.53421 4.3926 4.5766C4.37418 4.61899 4.36441 4.66463 4.36388 4.71085C4.36335 4.75707 4.37206 4.80292 4.3895 4.84573C4.40694 4.88853 4.43276 4.92742 4.46545 4.9601C4.49813 4.99278 4.53701 5.0186 4.57982 5.03604C4.62262 5.05348 4.66848 5.0622 4.71469 5.06166C4.76091 5.06113 4.80656 5.05137 4.84895 5.03295C4.89134 5.01452 4.92962 4.98781 4.96154 4.95439C5.47886 4.43551 5.76935 3.7327 5.76935 3C5.76935 2.2673 5.47886 1.56449 4.96154 1.04562C4.9299 1.01217 4.89191 0.985372 4.84979 0.966788C4.80767 0.948204 4.76226 0.938209 4.71623 0.937388C4.70424 0.936764 4.69222 0.936764 4.68023 0.937388V0.937619ZM1.24039 0.944542C1.16367 0.954717 1.09258 0.990303 1.03846 1.04562C0.521144 1.56449 0.230648 2.2673 0.230648 3C0.230648 3.7327 0.521144 4.43551 1.03846 4.95439C1.07038 4.98781 1.10866 5.01452 1.15105 5.03295C1.19345 5.05137 1.23909 5.06113 1.28531 5.06166C1.33152 5.0622 1.37738 5.05348 1.42018 5.03604C1.46299 5.0186 1.50187 4.99278 1.53456 4.9601C1.56724 4.92742 1.59306 4.88853 1.6105 4.84573C1.62794 4.80292 1.63665 4.75707 1.63612 4.71085C1.63559 4.66463 1.62583 4.61899 1.6074 4.5766C1.58898 4.53421 1.56227 4.49593 1.52885 4.464C1.33639 4.27193 1.1838 4.04371 1.07984 3.79247C0.975881 3.54122 0.922606 3.27191 0.923077 3C0.922757 2.72812 0.976102 2.45885 1.08005 2.20763C1.184 1.95641 1.33652 1.72817 1.52885 1.536C1.58117 1.48519 1.61611 1.41914 1.62867 1.34729C1.64123 1.27543 1.63077 1.20145 1.59879 1.13589C1.5668 1.07034 1.51493 1.01656 1.45057 0.98224C1.3862 0.947918 1.31264 0.934575 1.24039 0.944542ZM2.12031 1.70908C2.04441 1.71724 1.97334 1.75026 1.91815 1.803C1.75068 1.9543 1.61671 2.13895 1.52482 2.34509C1.43294 2.55123 1.38518 2.77431 1.38462 3C1.38462 3.47262 1.58539 3.90231 1.911 4.19723C1.94464 4.22801 1.98401 4.25186 2.02686 4.26742C2.06972 4.28298 2.11522 4.28994 2.16077 4.28792C2.20631 4.28589 2.25102 4.27492 2.29232 4.25561C2.33363 4.23631 2.37073 4.20907 2.4015 4.17543C2.43228 4.14179 2.45612 4.10242 2.47168 4.05956C2.48724 4.01671 2.49421 3.97121 2.49218 3.92566C2.49016 3.88011 2.47918 3.83541 2.45988 3.79411C2.44058 3.7528 2.41333 3.7157 2.37969 3.68493C2.28389 3.59848 2.2074 3.49279 2.15523 3.37477C2.10306 3.25675 2.07638 3.12904 2.07692 3C2.07645 2.87092 2.10318 2.74319 2.15539 2.62513C2.2076 2.50707 2.28411 2.40135 2.37992 2.31485C2.43523 2.26674 2.47383 2.20231 2.49017 2.13086C2.50651 2.0594 2.49974 1.9846 2.47085 1.91723C2.44195 1.84987 2.39242 1.79341 2.32938 1.75601C2.26634 1.7186 2.19328 1.70217 2.12031 1.70908ZM3.82939 1.70908C3.76074 1.71287 3.69477 1.73701 3.63989 1.77843C3.58502 1.81985 3.54372 1.87668 3.52127 1.94166C3.49881 2.00665 3.49622 2.07685 3.51382 2.14331C3.53142 2.20977 3.56841 2.26949 3.62008 2.31485C3.71595 2.4013 3.7925 2.50702 3.84471 2.62508C3.89692 2.74315 3.92363 2.87091 3.92308 3C3.92356 3.12909 3.89682 3.25682 3.84461 3.37488C3.7924 3.49293 3.71589 3.59866 3.62008 3.68516C3.58151 3.71396 3.54937 3.7505 3.52572 3.79243C3.50207 3.83436 3.48742 3.88076 3.48272 3.92867C3.47801 3.97658 3.48335 4.02494 3.49839 4.07067C3.51344 4.1164 3.53786 4.15849 3.57009 4.19425C3.60232 4.23001 3.64165 4.25865 3.68558 4.27835C3.7295 4.29805 3.77705 4.30836 3.82519 4.30865C3.87333 4.30893 3.921 4.29916 3.96515 4.27998C4.00931 4.2608 4.04897 4.23261 4.08162 4.19723C4.24916 4.04593 4.38319 3.86126 4.47512 3.65507C4.56704 3.44889 4.61482 3.22575 4.61539 3C4.61624 2.77473 4.56984 2.55178 4.47917 2.34556C4.3885 2.13934 4.25558 1.95443 4.089 1.80277C4.05447 1.77019 4.0136 1.74505 3.96894 1.72893C3.92427 1.71281 3.87677 1.70606 3.82939 1.70908ZM3 2.58185C2.91731 2.5819 2.83648 2.60646 2.76775 2.65243C2.69901 2.69841 2.64545 2.76373 2.61384 2.84014C2.58223 2.91655 2.57398 3.00062 2.59014 3.08172C2.6063 3.16282 2.64614 3.23731 2.70463 3.29576C2.76312 3.35422 2.83763 3.39402 2.91874 3.41014C2.99985 3.42626 3.08391 3.41796 3.16031 3.38631C3.2367 3.35465 3.30199 3.30105 3.34793 3.23229C3.39387 3.16353 3.41839 3.0827 3.41839 3C3.41848 2.94504 3.40772 2.89059 3.38672 2.83979C3.36573 2.78899 3.33492 2.74283 3.29605 2.70396C3.25718 2.66509 3.21102 2.63427 3.16022 2.61328C3.10942 2.59229 3.05497 2.58176 3 2.58185Z" fill="#00AA44"/>
</g>
<defs>
<clipPath id="clip0_1_64">
<rect width="6" height="6" fill="white"/>
</clipPath>
</defs>
</svg>
