<svg width="27" height="26" viewBox="0 0 27 26" fill="none" xmlns="http://www.w3.org/2000/svg">
<path d="M22.0526 6.26316V2.31579C22.0526 1.96682 21.914 1.63214 21.6672 1.38539C21.4205 1.13863 21.0858 1 20.7368 1H3.63158C2.93364 1 2.26429 1.27725 1.77077 1.77077C1.27725 2.26429 1 2.93364 1 3.63158C1 4.32952 1.27725 4.99887 1.77077 5.49239C2.26429 5.9859 2.93364 6.26316 3.63158 6.26316H23.3684C23.7174 6.26316 24.0521 6.40179 24.2988 6.64854C24.5456 6.8953 24.6842 7.22998 24.6842 7.57895V12.8421M24.6842 12.8421H20.7368C20.0389 12.8421 19.3696 13.1194 18.876 13.6129C18.3825 14.1064 18.1053 14.7757 18.1053 15.4737C18.1053 16.1716 18.3825 16.841 18.876 17.3345C19.3696 17.828 20.0389 18.1053 20.7368 18.1053H24.6842C25.0332 18.1053 25.3679 17.9666 25.6146 17.7199C25.8614 17.4731 26 17.1384 26 16.7895V14.1579C26 13.8089 25.8614 13.4742 25.6146 13.2275C25.3679 12.9807 25.0332 12.8421 24.6842 12.8421Z" stroke="#FF5224" stroke-width="2" stroke-linecap="round" stroke-linejoin="round"/>
<path d="M1 3.63158V22.0526C1 22.7506 1.27725 23.4199 1.77077 23.9134C2.26429 24.407 2.93364 24.6842 3.63158 24.6842H23.3684C23.7174 24.6842 24.0521 24.5456 24.2988 24.2988C24.5456 24.0521 24.6842 23.7174 24.6842 23.3684V18.1053" stroke="#FF5224" stroke-width="2" stroke-linecap="round" stroke-linejoin="round"/>
</svg>
