<svg width="8" height="8" viewBox="0 0 8 8" fill="none" xmlns="http://www.w3.org/2000/svg">
<path fill-rule="evenodd" clip-rule="evenodd" d="M0 0.440241C0 0.323482 0.0463862 0.211505 0.128954 0.128944C0.211522 0.0463824 0.323509 0 0.440277 0H3.59795C3.94807 0.000191513 4.2838 0.139379 4.53134 0.386972L7.61328 3.46866C7.8609 3.71633 8 4.0522 8 4.40241C8 4.75262 7.8609 5.08849 7.61328 5.33616L5.33704 7.61309C5.21439 7.73575 5.06877 7.83306 4.90851 7.89944C4.74824 7.96583 4.57647 8 4.403 8C4.22952 8 4.05775 7.96583 3.89748 7.89944C3.73722 7.83306 3.5916 7.73575 3.46895 7.61309L0.387004 4.5314C0.139283 4.28378 7.48085e-05 3.9479 0 3.59765V0.440241ZM2.64166 1.98109C2.46651 1.98109 2.29853 2.05066 2.17468 2.1745C2.05083 2.29834 1.98125 2.46631 1.98125 2.64145V2.64585C1.98125 2.82099 2.05083 2.98895 2.17468 3.1128C2.29853 3.23664 2.46651 3.30621 2.64166 3.30621H2.64607C2.82122 3.30621 2.9892 3.23664 3.11305 3.1128C3.2369 2.98895 3.30648 2.82099 3.30648 2.64585V2.64145C3.30648 2.46631 3.2369 2.29834 3.11305 2.1745C2.9892 2.05066 2.82122 1.98109 2.64607 1.98109H2.64166Z" fill="#00AA44"/>
</svg>
