<svg width="22" height="27" viewBox="0 0 22 27" fill="none" xmlns="http://www.w3.org/2000/svg">
<path d="M12.4825 0.00440349C12.5598 0.0396314 12.6348 0.0770611 12.7143 0.107886C13.3082 0.339069 13.688 0.878496 13.6991 1.50599C13.6991 1.59186 13.6991 1.67993 13.6991 1.79662C14.0943 1.79662 14.4696 1.79662 14.845 1.79662C15.1541 1.79662 15.461 1.79662 15.7701 1.79662C16.4259 1.79662 16.5915 1.94414 16.6665 2.63769C16.7526 2.63769 16.8454 2.63769 16.9381 2.63769C18.3755 2.63769 19.8107 2.63769 21.248 2.63769C21.7735 2.63769 22.0009 2.86667 22.0009 3.39289C22.0009 9.93207 22.0009 16.4713 22.0009 23.0104C22.0009 23.5455 21.6874 23.8339 21.2193 23.7326C20.95 23.6754 20.7579 23.4442 20.7358 23.1469C20.7292 23.0589 20.7358 22.9708 20.7358 22.8827C20.7358 16.6782 20.7358 10.4715 20.7358 4.26698V3.9147H16.618C16.618 4.01158 16.618 4.10625 16.618 4.19873C16.618 4.80421 16.6224 5.41189 16.6158 6.01737C16.6113 6.40047 16.3685 6.64266 15.9865 6.64266C12.6635 6.64266 9.34056 6.64266 6.0176 6.64266C5.63783 6.64266 5.39717 6.39827 5.39275 6.01517C5.38613 5.33042 5.38613 4.64348 5.38171 3.95874C5.38171 3.95213 5.37288 3.94333 5.35742 3.91911H1.2683C1.2683 4.20753 1.27493 4.50257 1.2683 4.7976C1.25726 5.12786 1.01881 5.38987 0.707485 5.4295C0.407204 5.46913 0.129002 5.29299 0.0362684 4.99576C0.00977303 4.91429 0.00535714 4.82402 0.00535714 4.73595C0.00314919 4.26918 0.000941239 3.80462 0.00535714 3.33785C0.00756509 2.88429 0.252647 2.63549 0.705277 2.63549C2.15148 2.63329 3.59548 2.63549 5.04169 2.63549C5.13663 2.63549 5.23378 2.63549 5.33976 2.63549C5.34859 2.54742 5.35522 2.47916 5.36405 2.41091C5.41483 2.0146 5.65329 1.79662 6.05293 1.79442C6.69544 1.79222 7.34016 1.79442 7.98268 1.79442C8.07762 1.79442 8.17477 1.79442 8.294 1.79442C8.30504 1.60948 8.294 1.43334 8.32712 1.266C8.44193 0.711164 8.76208 0.317051 9.2942 0.103482C9.37148 0.0726576 9.44875 0.0352279 9.52603 0C10.513 0 11.4999 0 12.4869 0L12.4825 0.00440349ZM6.66453 3.06263V5.36565C6.92728 5.36565 7.17015 5.36565 7.41523 5.36565C9.95217 5.36565 12.4913 5.36345 15.0282 5.37006C15.2579 5.37006 15.3418 5.31501 15.3285 5.07722C15.3086 4.73595 15.3241 4.39248 15.3241 4.04901C15.3241 3.72755 15.3241 3.4083 15.3241 3.06263C15.2292 3.06263 15.1342 3.06263 15.0393 3.06263C14.3703 3.06263 13.6991 3.06483 13.03 3.06043C12.6591 3.05822 12.4162 2.82044 12.4118 2.45274C12.4074 2.19074 12.4162 1.92653 12.4295 1.66452C12.4427 1.3915 12.3456 1.27481 12.063 1.27481C11.3498 1.27261 10.6366 1.27481 9.92126 1.27481C9.67838 1.27481 9.56798 1.3915 9.5724 1.63369C9.57681 1.88029 9.57461 2.12468 9.5724 2.37128C9.56798 2.80943 9.32069 3.05822 8.88573 3.06043C8.47946 3.06263 8.07541 3.06043 7.66915 3.06043C7.33575 3.06043 7.00455 3.06043 6.66453 3.06043V3.06263Z" fill="black"/>
<path d="M1.26829 25.7318H20.7336C20.7336 25.4786 20.7314 25.2342 20.7336 24.992C20.7402 24.5781 21.0162 24.3028 21.407 24.3095C21.7514 24.3161 21.9943 24.5913 21.9987 24.9832C22.0031 25.4147 22.0009 25.8441 21.9987 26.2756C21.9987 26.7578 21.7514 27.0022 21.2657 27.0044C18.0664 27.0044 14.8671 27.0044 11.6677 27.0044C8.04449 27.0044 4.42345 27.0044 0.800209 27.0044C0.223934 27.0044 0.000931478 26.7842 0.000931478 26.2118C0.000931478 19.7342 0.000931478 13.2567 0.000931478 6.78136C0.000931478 6.67568 -0.00569237 6.56779 0.0163871 6.46651C0.0760017 6.1957 0.358619 5.96892 0.603701 5.97773C0.961389 5.99094 1.22634 6.22873 1.26388 6.5744C1.27271 6.66027 1.26609 6.75054 1.26609 6.83861C1.26609 13.0167 1.26609 19.1948 1.26609 25.3729C1.26609 25.4852 1.26609 25.5975 1.26609 25.734L1.26829 25.7318Z" fill="black"/>
<path d="M11.0141 7.48595C13.0786 7.44632 15.0282 9.12845 15.0547 11.5063C15.079 13.7257 13.2088 15.573 10.9744 15.562C8.76866 15.5509 6.92282 13.7059 6.9449 11.5063C6.96919 9.11524 8.94088 7.43311 11.0119 7.48595H11.0141ZM13.7476 11.5328C13.7675 9.96512 12.478 8.65508 10.864 8.74315C9.36702 8.82241 8.15044 10.1148 8.21226 11.5746C8.28291 13.2743 9.66288 14.3378 11.2416 14.2673C12.6017 14.2057 13.8734 12.7834 13.7498 11.5328H13.7476Z" fill="black"/>
<path d="M12.6392 17.6184C11.0627 17.6184 9.48407 17.6184 7.90759 17.6184C7.58964 17.6184 7.36223 17.451 7.2717 17.167C7.19442 16.9248 7.28053 16.6342 7.51016 16.4999C7.64705 16.4206 7.82369 16.3722 7.98266 16.3722C11.0937 16.3656 14.2047 16.3678 17.3157 16.3678C17.5983 16.3678 17.8412 16.4559 17.9758 16.7201C18.0884 16.9402 18.0664 17.1648 17.9228 17.3652C17.7837 17.5589 17.5828 17.6228 17.3488 17.6228C15.7811 17.6206 14.2113 17.6228 12.6436 17.6228L12.6392 17.6184Z" fill="black"/>
<path d="M9.19703 24.6859C7.68238 24.6859 6.16773 24.6859 4.65307 24.6859C4.32409 24.6859 4.08122 24.534 3.99511 24.2632C3.91341 24.0078 3.95536 23.759 4.17616 23.6005C4.31084 23.5036 4.49631 23.4331 4.6597 23.4331C7.68017 23.4243 10.7029 23.4243 13.7233 23.4287C14.145 23.4287 14.4497 23.7194 14.4387 24.076C14.4255 24.4305 14.1274 24.6881 13.7189 24.6881C12.2131 24.6881 10.7073 24.6881 9.20145 24.6881L9.19703 24.6859Z" fill="black"/>
<path d="M7.7177 21.1522C6.70646 21.1522 5.69301 21.1522 4.68177 21.1522C4.2468 21.1522 3.97523 20.9232 3.96639 20.5555C3.95535 20.1702 4.22252 19.8972 4.65527 19.8972C6.69763 19.8906 8.73998 19.8906 10.7801 19.8972C11.2085 19.8972 11.4889 20.1812 11.4756 20.5555C11.4624 20.921 11.1842 21.1522 10.7536 21.1522C9.74239 21.1522 8.72894 21.1522 7.7177 21.1522Z" fill="black"/>
<path d="M15.0569 21.1522C14.3173 21.1522 13.5754 21.1522 12.8357 21.1522C12.3985 21.1522 12.1137 20.9034 12.1115 20.5269C12.1115 20.168 12.3941 19.8972 12.8092 19.895C14.3261 19.8884 15.8407 19.8884 17.3576 19.895C17.7771 19.895 18.0421 20.168 18.0354 20.5401C18.0288 20.9144 17.7617 21.15 17.3311 21.15C16.5738 21.15 15.8142 21.15 15.0569 21.15V21.1522Z" fill="black"/>
<path d="M16.6842 24.6859C16.4545 24.6859 16.2271 24.6903 15.9975 24.6859C15.6442 24.6771 15.3638 24.4217 15.3395 24.0959C15.3175 23.7942 15.5382 23.4794 15.8739 23.4552C16.4148 23.4177 16.9624 23.4133 17.5033 23.453C17.8698 23.4794 18.0663 23.7898 18.031 24.1443C18.0001 24.4504 17.7374 24.6749 17.3929 24.6881C17.3841 24.6881 17.3753 24.6881 17.3664 24.6881C17.1368 24.6881 16.9094 24.6881 16.6798 24.6881L16.6842 24.6859Z" fill="black"/>
<path d="M5.22492 17.6183C5.00413 17.6183 4.78554 17.6249 4.56475 17.6183C4.24239 17.6051 3.99068 17.3695 3.96639 17.0657C3.9399 16.7244 4.12316 16.4316 4.46097 16.4052C4.96659 16.3678 5.47884 16.37 5.98446 16.4052C6.30903 16.4272 6.51878 16.7354 6.49008 17.0349C6.46137 17.3519 6.20525 17.6051 5.8851 17.6183C5.66651 17.6272 5.44572 17.6183 5.22492 17.6183Z" fill="black"/>
<path d="M11.6324 10.848C11.9989 10.848 12.3323 10.8458 12.6635 10.848C13.0984 10.8524 13.3612 11.0968 13.3656 11.4975C13.3678 11.8674 13.0918 12.1316 12.6811 12.1426C12.3544 12.1492 12.0298 12.1492 11.703 12.1514C11.6876 12.1514 11.6721 12.1668 11.6324 12.1888C11.6324 12.5081 11.6324 12.8384 11.6324 13.1708C11.6302 13.5936 11.3652 13.8754 10.9788 13.871C10.577 13.8666 10.3473 13.609 10.3451 13.1642C10.3451 12.834 10.3451 12.5037 10.3451 12.1426C9.97861 12.1426 9.61872 12.1316 9.26103 12.1448C8.8084 12.1624 8.63397 11.8167 8.63397 11.5239C8.63397 11.1518 8.90334 10.8656 9.26986 10.8524C9.54365 10.8436 9.81743 10.8392 10.089 10.8524C10.2811 10.8612 10.3606 10.8061 10.3495 10.6036C10.3341 10.324 10.3407 10.0421 10.3495 9.76032C10.3584 9.41024 10.6432 9.15924 11.0163 9.15924C11.4005 9.15924 11.628 9.37721 11.6346 9.75811C11.639 10.117 11.6346 10.4759 11.6346 10.8502L11.6324 10.848Z" fill="black"/>
</svg>
