<?xml version="1.0" encoding="UTF-8"?>
<svg id="Layer_1" data-name="Layer 1" xmlns="http://www.w3.org/2000/svg" viewBox="0 0 800 800">
  <defs>
    <style>
      .cls-1 {
        fill: #000;
        stroke-width: 0px;
      }
    </style>
  </defs>
  <g>
    <path class="cls-1" d="M400,578.33c-9.94,0-18-8.06-18-18v-143.06c0-9.94,8.06-18,18-18s18,8.06,18,18v143.06c0,9.94-8.06,18-18,18Z"/>
    <path class="cls-1" d="M471.53,506.8h-143.06c-9.94,0-18-8.06-18-18s8.06-18,18-18h143.06c9.94,0,18,8.06,18,18s-8.06,18-18,18Z"/>
  </g>
  <path class="cls-1" d="M549.32,228.27h-139.26c-3.71.03-7.46-.81-10.83-2.42l-67.38-33.82c-8.42-4.19-17.85-6.41-27.26-6.42h-53.93c-57.09.07-103.6,46.57-103.66,103.67v255.99c.06,57.1,46.57,103.6,103.67,103.67h298.66c57.09-.07,103.6-46.57,103.67-103.67v-213.33c-.07-57.09-46.58-103.6-103.68-103.67ZM183.66,289.27c0-36.94,30.06-67,67-67h53.93c3.7,0,7.47.82,10.83,2.43l67.38,33.71c8.42,4.23,17.85,6.49,27.28,6.53h139.25c27.47.05,51.83,16.54,62.07,42.03l1.64,4.1-429.38,2.43v-24.23h0ZM616.33,545.27c0,36.95-30.06,67-67,67H250.66c-36.94,0-67-30.05-67-67v-195.11l432.67-2.44v197.55Z"/>
</svg>