<svg width="285" height="296" viewBox="0 0 285 296" fill="none" xmlns="http://www.w3.org/2000/svg">
<g clip-path="url(#clip0_160_368)">
<path d="M9.69029 198.077C9.08981 198.077 8.50875 197.882 8.02318 197.511C7.4227 197.052 7.0391 196.381 6.94361 195.622C6.74776 194.073 7.83381 192.636 9.36334 192.421C10.0998 192.318 10.8314 192.508 11.4221 192.96C12.0226 193.419 12.4062 194.09 12.5017 194.849C12.6976 196.398 11.6115 197.835 10.082 198.05C9.95088 198.068 9.81978 198.077 9.69029 198.077ZM9.46208 193.128C8.31614 193.29 7.50524 194.368 7.65091 195.533C7.72213 196.101 8.00861 196.602 8.45695 196.945C8.89396 197.28 9.43618 197.421 9.98325 197.345C11.1292 197.183 11.9401 196.104 11.7944 194.939C11.7232 194.372 11.4367 193.87 10.9884 193.527C10.5514 193.193 10.0091 193.052 9.46208 193.128Z" fill="black"/>
<path d="M30.9775 69.5195C30.9419 69.5195 30.9047 69.5147 30.8675 69.5018L29.0612 68.9195C28.8734 68.8596 28.7715 68.6574 28.8313 68.4714C28.8912 68.2838 29.0919 68.1803 29.2797 68.2417L31.086 68.824C31.2737 68.8839 31.3757 69.0861 31.3158 69.2721C31.2673 69.4225 31.1265 69.5195 30.9759 69.5195H30.9775Z" fill="#FF5224"/>
<path d="M24.6571 67.4815C24.6215 67.4815 24.5843 67.4767 24.5471 67.4637L22.7407 66.8814C22.553 66.8216 22.451 66.6194 22.5109 66.4334C22.5708 66.2458 22.7715 66.1422 22.9592 66.2037L24.7656 66.786C24.9533 66.8459 25.0553 67.048 24.9954 67.2341C24.9468 67.3845 24.806 67.4815 24.6555 67.4815H24.6571Z" fill="#FF5224"/>
<path d="M27.6612 65.9967C27.624 65.9967 27.5851 65.9902 27.5479 65.9773C27.3618 65.9142 27.2614 65.712 27.3245 65.526L27.9234 63.7565C27.9865 63.5704 28.1889 63.4702 28.375 63.5332C28.5611 63.5963 28.6615 63.7985 28.5983 63.9845L27.9995 65.754C27.9493 65.9029 27.8101 65.9967 27.6612 65.9967Z" fill="#FF5224"/>
<path d="M25.5683 72.1917C25.5311 72.1917 25.4922 72.1852 25.455 72.1722C25.2689 72.1092 25.1685 71.907 25.2317 71.721L25.8305 69.9498C25.8936 69.7638 26.096 69.6635 26.2821 69.7266C26.4682 69.7897 26.5686 69.9919 26.5055 70.1779L25.9066 71.949C25.8564 72.0978 25.7172 72.1917 25.5683 72.1917Z" fill="#FF5224"/>
<path d="M281.813 195.366C281.572 195.366 281.331 195.339 281.09 195.282C280.245 195.085 279.528 194.566 279.068 193.817C278.132 192.288 278.589 190.275 280.086 189.328C280.806 188.872 281.661 188.728 282.493 188.921C283.338 189.118 284.055 189.637 284.514 190.386C285.45 191.915 284.994 193.929 283.496 194.875C282.985 195.198 282.404 195.365 281.813 195.365V195.366ZM281.771 189.55C281.313 189.55 280.865 189.679 280.468 189.93C279.299 190.669 278.943 192.246 279.678 193.443C280.036 194.027 280.596 194.435 281.253 194.587C281.897 194.737 282.558 194.624 283.116 194.271C284.285 193.532 284.641 191.955 283.906 190.758C283.548 190.174 282.988 189.767 282.331 189.615C282.145 189.571 281.957 189.55 281.771 189.55Z" fill="#FF5224"/>
<path d="M16.4866 84.9472C16.2244 84.9472 15.9622 84.9164 15.7 84.8566C14.7806 84.6431 14.0005 84.0769 13.5004 83.2617C12.4823 81.599 12.9792 79.4073 14.6075 78.3785C15.3925 77.8836 16.3215 77.7251 17.2247 77.9353C18.144 78.1489 18.9241 78.715 19.4227 79.5302C20.4407 81.193 19.9454 83.3847 18.3156 84.4134C17.7588 84.766 17.1275 84.9472 16.485 84.9472H16.4866ZM14.9894 78.9802C13.6881 79.8035 13.2932 81.5569 14.1089 82.8897C14.5071 83.5399 15.1302 83.9928 15.8618 84.1627C16.5772 84.3293 17.3137 84.2047 17.9352 83.8117C19.2365 82.9884 19.6314 81.235 18.8157 79.9022C18.4175 79.252 17.7944 78.7991 17.0644 78.6293C16.349 78.4627 15.6126 78.5872 14.9911 78.9802H14.9894Z" fill="#FF5224"/>
<path d="M224.782 25.545C221.435 25.545 218.712 22.8244 218.712 19.4794C218.712 16.1344 221.435 13.4138 224.782 13.4138C228.129 13.4138 230.851 16.1344 230.851 19.4794C230.851 22.8244 228.129 25.545 224.782 25.545ZM224.782 14.1271C221.828 14.1271 219.426 16.5291 219.426 19.4794C219.426 22.4297 221.829 24.8317 224.782 24.8317C227.734 24.8317 230.138 22.4297 230.138 19.4794C230.138 16.5291 227.734 14.1271 224.782 14.1271Z" fill="#FF5224"/>
<path d="M38.0667 55.8227C37.9923 55.8227 37.9162 55.7984 37.8515 55.7499C37.6945 55.6318 37.6637 55.407 37.7819 55.2501C37.8612 55.145 45.8941 44.6378 60.351 33.3833C73.696 22.9942 95.4089 9.81814 123.064 6.03808C123.258 6.01058 123.439 6.14807 123.465 6.34378C123.491 6.5395 123.355 6.71904 123.161 6.74492C95.663 10.504 74.065 23.6121 60.7896 33.9462C46.4039 45.144 38.4293 55.5768 38.35 55.6804C38.2804 55.7725 38.1736 55.8211 38.0651 55.8211L38.0667 55.8227Z" fill="#FF5224"/>
<path d="M74.0246 33.0695C73.9162 33.0695 73.8077 33.0194 73.7381 32.9256C73.62 32.767 73.654 32.5438 73.8126 32.4274C74.0845 32.2252 101.469 12.1845 134.19 11.0296C134.387 11.0248 134.552 11.1768 134.559 11.3742C134.565 11.5715 134.411 11.7365 134.214 11.7429C101.72 12.8897 74.5069 32.7994 74.2366 33.0016C74.1735 33.0485 74.0991 33.0711 74.0246 33.0711V33.0695Z" fill="#FF5224"/>
<path d="M280.976 182.407C280.976 182.407 280.96 182.407 280.952 182.407C280.756 182.394 280.607 182.224 280.62 182.027C282.299 157.247 275.481 137.111 275.413 136.911C275.349 136.725 275.449 136.521 275.635 136.458C275.821 136.393 276.024 136.493 276.088 136.679C276.158 136.881 283.022 157.153 281.334 182.077C281.321 182.265 281.164 182.41 280.978 182.41L280.976 182.407Z" fill="#FF5224"/>
<path d="M274.494 166.569C274.494 166.569 274.486 166.569 274.481 166.569C274.284 166.562 274.13 166.397 274.136 166.2C275.062 139.039 264.003 121.74 263.891 121.569C263.782 121.404 263.829 121.182 263.994 121.075C264.16 120.967 264.381 121.014 264.488 121.179C264.601 121.352 275.782 138.84 274.848 166.224C274.842 166.417 274.683 166.569 274.492 166.569H274.494Z" fill="#FF5224"/>
<path d="M248.845 40.5552H84.7006C79.5229 40.5552 74.999 44.7397 74.5976 49.9011L57.3535 271.396C56.9521 276.558 60.8237 280.742 66.0015 280.742H230.146C235.323 280.742 239.847 276.558 240.249 271.396L257.493 49.9011C257.894 44.7397 254.023 40.5552 248.845 40.5552Z" fill="black"/>
<path d="M243.965 40.5552H79.8222C74.6445 40.5552 70.1206 44.7397 69.7192 49.9011L52.4751 271.396C52.0737 276.558 55.9453 280.742 61.1231 280.742H225.267C230.445 280.742 234.969 276.558 235.37 271.396L252.614 49.9011C253.016 44.7397 249.144 40.5552 243.966 40.5552H243.965Z" fill="white"/>
<path d="M225.267 281.1H61.1231C58.5188 281.1 56.1477 280.087 54.4466 278.25C52.7438 276.411 51.9168 273.967 52.1191 271.371L69.3632 49.8752C69.7791 44.5407 74.4697 40.201 79.8223 40.201H243.966C246.571 40.201 248.942 41.2136 250.643 43.051C252.346 44.8901 253.173 47.3341 252.97 49.9302L235.726 271.426C235.31 276.76 230.62 281.1 225.267 281.1ZM79.8223 40.9127C74.8339 40.9127 70.4622 44.958 70.0753 49.9302L52.8312 271.426C52.6451 273.823 53.4042 276.074 54.971 277.766C56.5361 279.456 58.7212 280.388 61.1247 280.388H225.269C230.256 280.388 234.629 276.343 235.016 271.371L252.26 49.8752C252.446 47.4781 251.687 45.2265 250.122 43.5346C248.557 41.8444 246.372 40.9127 243.968 40.9127H79.8223Z" fill="black"/>
<path d="M208.449 90.4078H104.361C104.262 90.4078 104.167 90.3657 104.099 90.2929C104.031 90.2201 103.997 90.1215 104.005 90.0228L104.716 80.9034C104.73 80.7174 104.886 80.5751 105.072 80.5751H209.159C209.258 80.5751 209.354 80.6171 209.422 80.6899C209.49 80.7627 209.524 80.8614 209.515 80.96L208.807 90.0794C208.792 90.2654 208.637 90.4078 208.45 90.4078H208.449ZM104.746 89.6945H208.119L208.773 81.2884H105.4L104.746 89.6945Z" fill="black"/>
<path d="M138.111 144.589H91.6976C91.5988 144.589 91.5034 144.547 91.4354 144.474C91.3674 144.401 91.3334 144.302 91.3415 144.204L94.9428 97.9388C94.9574 97.7528 95.1127 97.6104 95.2989 97.6104H141.713C141.811 97.6104 141.907 97.6525 141.975 97.7253C142.043 97.7981 142.077 97.8967 142.069 97.9954L138.467 144.26C138.453 144.446 138.297 144.589 138.111 144.589ZM92.0828 143.875H137.781L141.327 98.3221H95.6291L92.0828 143.875Z" fill="black"/>
<path d="M215.626 106.707H155.817C155.718 106.707 155.623 106.665 155.555 106.592C155.487 106.52 155.453 106.421 155.461 106.322L155.975 99.7197C155.99 99.5336 156.145 99.3913 156.331 99.3913H216.14C216.239 99.3913 216.334 99.4334 216.402 99.5061C216.47 99.5789 216.504 99.6776 216.496 99.7763L215.983 106.379C215.969 106.565 215.813 106.707 215.627 106.707H215.626ZM156.204 105.994H215.297L215.755 100.105H156.662L156.204 105.994Z" fill="black"/>
<path d="M214.803 117.286H154.994C154.896 117.286 154.8 117.244 154.732 117.171C154.664 117.098 154.63 116.999 154.638 116.901L155.153 110.298C155.168 110.112 155.323 109.97 155.509 109.97H215.318C215.417 109.97 215.512 110.012 215.58 110.085C215.648 110.157 215.682 110.256 215.674 110.355L215.159 116.957C215.145 117.143 214.989 117.286 214.803 117.286ZM155.38 116.572H214.473L214.931 110.683H155.838L155.38 116.572Z" fill="black"/>
<path d="M213.979 127.862H154.171C154.072 127.862 153.976 127.82 153.908 127.747C153.84 127.675 153.806 127.576 153.815 127.477L154.329 120.875C154.344 120.689 154.499 120.546 154.685 120.546H214.494C214.593 120.546 214.688 120.588 214.756 120.661C214.824 120.734 214.858 120.833 214.85 120.931L214.336 127.534C214.321 127.72 214.166 127.862 213.979 127.862ZM154.556 127.149H213.649L214.107 121.26H155.014L154.556 127.149Z" fill="black"/>
<path d="M205.058 242.445H84.0791C83.9803 242.445 83.8848 242.403 83.8168 242.33C83.7489 242.257 83.7149 242.159 83.723 242.06L90.4092 156.168C90.4238 155.982 90.5792 155.84 90.7653 155.84H211.744C211.843 155.84 211.938 155.882 212.006 155.955C212.074 156.028 212.108 156.126 212.1 156.225L205.414 242.117C205.399 242.303 205.244 242.445 205.058 242.445ZM84.4659 241.732H204.729L211.361 156.553H91.0971L84.4659 241.732Z" fill="black"/>
<path d="M151.811 170.064H98.3677L98.6364 166.608H152.081L151.811 170.064Z" fill="black"/>
<path d="M151.38 175.602H97.9355L98.2058 172.146H151.649L151.38 175.602Z" fill="black"/>
<path d="M150.95 181.141H97.505L97.7737 177.684H151.218L150.95 181.141Z" fill="black"/>
<path d="M149.844 195.333H96.3995L96.6698 191.876H150.113L149.844 195.333Z" fill="black"/>
<path d="M149.414 200.871H95.969L96.2377 197.414H149.682L149.414 200.871Z" fill="black"/>
<path d="M148.982 206.411H95.5369L95.8072 202.952H149.25L148.982 206.411Z" fill="black"/>
<path d="M147.878 220.601H94.433L94.7017 217.144H148.146L147.878 220.601Z" fill="black"/>
<path d="M147.446 226.141H94.0009L94.2712 222.683H147.714L147.446 226.141Z" fill="black"/>
<path d="M147.015 231.679H93.5703L93.839 228.221H147.284L147.015 231.679Z" fill="black"/>
<path d="M78.72 163.656C78.7087 163.656 78.6973 163.656 78.686 163.656C78.4902 163.638 78.3461 163.463 78.3639 163.267L79.9695 146.154C79.9873 145.959 80.1621 145.815 80.358 145.833C80.5538 145.85 80.6979 146.025 80.6801 146.221L79.0745 163.334C79.0567 163.518 78.9013 163.657 78.72 163.657V163.656Z" fill="black"/>
<path d="M124.53 257.129C124.334 257.129 124.175 256.972 124.174 256.776C124.172 256.579 124.329 256.419 124.527 256.415L143.792 256.218H143.796C143.991 256.218 144.15 256.375 144.152 256.571C144.153 256.768 143.996 256.928 143.799 256.931L124.533 257.129H124.53Z" fill="black"/>
<path d="M83.5368 105.365C83.5271 105.365 83.5173 105.365 83.5093 105.365C83.3134 105.348 83.1661 105.177 83.1807 104.981L87.0814 55.3585C87.096 55.1725 87.2513 55.0301 87.4375 55.0301H230.77C230.869 55.0301 230.963 55.0706 231.031 55.1417C231.099 55.2129 231.133 55.3099 231.126 55.4086L229.446 82.5711C229.433 82.7668 229.265 82.9172 229.068 82.9043C228.87 82.8929 228.721 82.7231 228.734 82.5258L230.39 55.7418H87.7661L83.8912 105.036C83.8767 105.222 83.7197 105.365 83.5351 105.365H83.5368Z" fill="black"/>
<path d="M208.833 67.095H114.576C111.088 67.095 108.479 64.2757 108.751 60.7997L109.667 49.0406C110.284 41.1214 117.224 34.7016 125.168 34.7016H203.286C211.231 34.7016 217.171 41.1214 216.555 49.0406L215.639 60.7997C215.368 64.2773 212.32 67.095 208.833 67.095Z" fill="black"/>
<path d="M208.832 67.4508H114.576C112.789 67.4508 111.161 66.7553 109.992 65.4936C108.824 64.2304 108.255 62.553 108.395 60.7706L109.311 49.0115C109.94 40.924 117.054 34.3441 125.168 34.3441H203.286C207.227 34.3441 210.817 35.8758 213.39 38.6563C215.967 41.4384 217.217 45.136 216.911 49.0681L215.996 60.8256C215.711 64.4779 212.498 67.4508 208.834 67.4508H208.832ZM125.166 35.0574C117.416 35.0574 110.622 41.3429 110.02 49.0681L109.104 60.8272C108.981 62.4091 109.481 63.8956 110.513 65.01C111.546 66.1245 112.987 66.7391 114.573 66.7391H208.829C212.129 66.7391 215.023 64.0622 215.279 60.7722L216.194 49.0131C216.485 45.2815 215.3 41.7764 212.861 39.1416C210.424 36.5083 207.021 35.059 203.281 35.059H125.163L125.166 35.0574Z" fill="black"/>
<path d="M166.901 0.35585C157.17 0.35585 148.669 8.21845 147.915 17.9185L145.783 45.3058C145.542 48.3936 147.86 50.8974 150.958 50.8974H174.975C178.073 50.8974 180.781 48.3936 181.021 45.3058L183.152 17.9185C183.908 8.21845 176.631 0.35585 166.901 0.35585ZM165.411 19.481C162.385 19.481 160.12 17.0354 160.355 14.0171C160.59 10.9989 163.234 8.55327 166.261 8.55327C169.288 8.55327 171.552 10.9989 171.318 14.0171C171.083 17.0354 168.438 19.481 165.411 19.481Z" fill="black"/>
<path d="M174.974 51.2549H150.956C149.357 51.2549 147.902 50.6322 146.856 49.5032C145.811 48.3725 145.303 46.8731 145.427 45.2783L147.559 17.8926C148.326 8.02758 157.003 0.00161743 166.901 0.00161743C171.706 0.00161743 176.079 1.8682 179.218 5.25683C182.358 8.6487 183.881 13.155 183.509 17.9476L181.377 45.3349C181.123 48.6006 178.251 51.2565 174.976 51.2565L174.974 51.2549ZM166.899 0.713311C157.366 0.713311 149.007 8.4449 148.268 17.9476L146.136 45.3349C146.028 46.7292 146.468 48.0377 147.378 49.0212C148.287 50.003 149.556 50.5432 150.955 50.5432H174.972C177.884 50.5432 180.437 48.1817 180.662 45.2799L182.793 17.8943C183.151 13.3022 181.694 8.98675 178.69 5.74208C175.689 2.50063 171.5 0.714929 166.897 0.714929L166.899 0.713311ZM165.411 19.8369C163.848 19.8369 162.422 19.2287 161.399 18.1223C160.375 17.016 159.878 15.5489 159.999 13.988C160.248 10.7935 163.056 8.1958 166.261 8.1958C167.825 8.1958 169.251 8.80398 170.274 9.91034C171.298 11.0167 171.795 12.4838 171.674 14.0446C171.424 17.2392 168.616 19.8369 165.411 19.8369ZM166.261 8.90911C163.421 8.90911 160.93 11.2124 160.71 14.0446C160.604 15.4049 161.033 16.6811 161.922 17.6403C162.809 18.5979 164.047 19.1252 165.41 19.1252C168.25 19.1252 170.741 16.8219 170.962 13.9896C171.067 12.6293 170.638 11.3531 169.749 10.3956C168.862 9.43803 167.624 8.91073 166.261 8.91073V8.90911Z" fill="black"/>
<path d="M206.957 67.095H112.7C109.212 67.095 106.603 64.2757 106.875 60.7997L107.791 49.0406C108.408 41.1214 115.348 34.7016 123.292 34.7016H201.41C209.355 34.7016 215.295 41.1214 214.679 49.0406L213.763 60.7997C213.492 64.2773 210.445 67.095 206.957 67.095Z" fill="white"/>
<path d="M206.957 67.4508H112.7C110.913 67.4508 109.285 66.7553 108.116 65.4936C106.948 64.2304 106.379 62.553 106.519 60.7706L107.435 49.0115C108.064 40.924 115.178 34.3441 123.292 34.3441H201.41C205.351 34.3441 208.941 35.8758 211.514 38.6563C214.091 41.4384 215.341 45.136 215.035 49.0681L214.12 60.8256C213.835 64.4779 210.623 67.4508 206.958 67.4508H206.957ZM123.29 35.0574C115.541 35.0574 108.746 41.3429 108.144 49.0681L107.228 60.8272C107.105 62.4091 107.605 63.8956 108.637 65.01C109.67 66.1245 111.111 66.7391 112.697 66.7391H206.953C210.254 66.7391 213.147 64.0622 213.403 60.7722L214.318 49.0131C214.609 45.2815 213.424 41.7764 210.985 39.1416C208.548 36.5083 205.145 35.059 201.405 35.059H123.287L123.29 35.0574Z" fill="black"/>
<path d="M165.023 0.35585C155.292 0.35585 146.792 8.21845 146.037 17.9185L143.906 45.3058C143.665 48.3936 145.982 50.8974 149.08 50.8974H173.098C176.196 50.8974 178.904 48.3936 179.143 45.3058L181.275 17.9185C182.031 8.21845 174.754 0.35585 165.023 0.35585ZM163.534 19.481C160.507 19.481 158.243 17.0354 158.478 14.0171C158.712 10.9989 161.357 8.55327 164.384 8.55327C167.41 8.55327 169.675 10.9989 169.44 14.0171C169.205 17.0354 166.561 19.481 163.534 19.481Z" fill="white"/>
<path d="M173.098 51.2549H149.08C147.481 51.2549 146.026 50.6322 144.98 49.5032C143.935 48.3725 143.427 46.8731 143.55 45.2783L145.681 17.8926C146.448 8.02758 155.125 0.00161743 165.023 0.00161743C169.828 0.00161743 174.202 1.8682 177.34 5.25683C180.48 8.6487 182.003 13.155 181.631 17.9476L179.499 45.3349C179.245 48.6006 176.374 51.2565 173.098 51.2565V51.2549ZM165.023 0.713311C155.49 0.713311 147.131 8.4449 146.392 17.9476L144.26 45.3349C144.152 46.7292 144.594 48.0377 145.503 49.0212C146.413 50.003 147.682 50.5432 149.08 50.5432H173.098C176.01 50.5432 178.562 48.1817 178.787 45.2799L180.919 17.8943C181.276 13.3022 179.82 8.98675 176.816 5.74208C173.815 2.50063 169.626 0.714929 165.023 0.714929V0.713311ZM163.534 19.8369C161.97 19.8369 160.544 19.2287 159.521 18.1223C158.497 17.016 158 15.5489 158.121 13.988C158.371 10.7935 161.179 8.1958 164.384 8.1958C165.947 8.1958 167.373 8.80398 168.396 9.91034C169.421 11.0167 169.917 12.4838 169.796 14.0446C169.547 17.2392 166.739 19.8369 163.534 19.8369ZM164.385 8.90911C161.545 8.90911 159.054 11.2124 158.834 14.0446C158.728 15.4049 159.157 16.6811 160.046 17.6403C160.933 18.5979 162.171 19.1252 163.534 19.1252C166.374 19.1252 168.865 16.8219 169.086 13.9896C169.191 12.6293 168.762 11.3531 167.873 10.3956C166.986 9.43803 165.748 8.91073 164.385 8.91073V8.90911Z" fill="black"/>
<path d="M217.937 80.7953L215.88 80.8312L216.851 136.398L218.908 136.362L217.937 80.7953Z" fill="white"/>
<path d="M218.914 136.705C218.72 136.705 218.562 136.55 218.558 136.354L217.584 80.7886C217.581 80.5913 217.738 80.4295 217.935 80.4263C218.121 80.4133 218.294 80.5799 218.298 80.7757L219.272 136.341C219.275 136.538 219.118 136.7 218.921 136.703C218.919 136.703 218.916 136.703 218.914 136.703V136.705Z" fill="black"/>
<path d="M221.368 140.435L214.534 140.554L214.668 148.257L221.503 148.138L221.368 140.435Z" fill="white"/>
<path d="M214.677 148.602C214.585 148.602 214.496 148.566 214.429 148.501C214.361 148.435 214.323 148.346 214.321 148.251L214.187 140.548C214.183 140.351 214.34 140.189 214.538 140.186L221.371 140.066C221.462 140.063 221.557 140.1 221.625 140.167C221.693 140.233 221.732 140.322 221.734 140.417L221.868 148.12C221.871 148.317 221.714 148.479 221.517 148.482L214.683 148.602C214.683 148.602 214.679 148.602 214.677 148.602ZM214.905 140.893L215.028 147.882L221.148 147.775L221.025 140.786L214.905 140.893Z" fill="black"/>
<path d="M223.236 141.6L212.725 141.784L215.221 129.889L220.324 129.8L223.236 141.6Z" fill="black"/>
<path d="M229.389 146.91L206.742 147.305L208.133 226.943L230.78 226.548L229.389 146.91Z" fill="white"/>
<path d="M229.389 146.908L206.742 147.303L207.621 197.591L230.267 197.196L229.389 146.908Z" fill="white"/>
<path d="M224.585 224.438L214.253 224.618L215.129 274.766L225.46 274.585L224.585 224.438Z" fill="white"/>
<path d="M224.16 200.146L219.031 200.236L220.317 273.831L225.445 273.742L224.16 200.146Z" fill="black"/>
<path d="M215.145 275.11C214.95 275.11 214.792 274.955 214.789 274.759L213.471 199.598C213.468 199.4 213.625 199.239 213.822 199.235L224.154 199.054C224.345 199.046 224.513 199.208 224.516 199.405L225.834 274.567C225.835 274.66 225.8 274.753 225.733 274.821C225.667 274.889 225.578 274.927 225.482 274.929L215.151 275.11C215.151 275.11 215.146 275.11 215.145 275.11ZM214.19 199.942L215.494 274.39L225.112 274.222L223.807 199.774L214.19 199.942Z" fill="black"/>
<path d="M208.146 227.286C208.054 227.286 207.965 227.25 207.898 227.186C207.83 227.119 207.792 227.03 207.79 226.935L206.395 147.298C206.392 147.101 206.549 146.939 206.746 146.936L229.393 146.539C229.584 146.533 229.752 146.693 229.755 146.889L231.151 226.526C231.154 226.723 230.997 226.885 230.799 226.888L208.153 227.284C208.153 227.284 208.148 227.284 208.146 227.284V227.286ZM207.115 147.643L208.497 226.566L230.43 226.183L229.046 147.259L207.113 147.643H207.115Z" fill="black"/>
<path d="M237.867 222.009L200.893 222.654L200.977 227.457L237.951 226.812L237.867 222.009Z" fill="white"/>
<path d="M200.99 227.802C200.796 227.802 200.638 227.647 200.634 227.451L200.55 222.649C200.549 222.555 200.584 222.463 200.651 222.395C200.717 222.327 200.806 222.288 200.901 222.286L237.874 221.639C238.067 221.63 238.233 221.793 238.237 221.99L238.321 226.793C238.322 226.886 238.287 226.979 238.22 227.047C238.154 227.114 238.065 227.153 237.97 227.155L200.997 227.802C200.997 227.802 200.992 227.802 200.99 227.802ZM201.269 222.993L201.34 227.084L237.599 226.45L237.528 222.359L201.269 222.993Z" fill="black"/>
<path d="M232.691 273.898L207.88 274.331L207.964 279.134L232.775 278.701L232.691 273.898Z" fill="white"/>
<path d="M207.979 279.477C207.887 279.477 207.798 279.442 207.732 279.377C207.664 279.311 207.625 279.222 207.623 279.126L207.539 274.324C207.536 274.127 207.693 273.965 207.89 273.962L232.701 273.528C232.892 273.522 233.06 273.682 233.064 273.878L233.148 278.68C233.15 278.774 233.114 278.866 233.048 278.934C232.981 279.002 232.892 279.041 232.797 279.042L207.986 279.476C207.986 279.476 207.981 279.476 207.979 279.476V279.477ZM208.258 274.669L208.329 278.759L232.426 278.337L232.355 274.246L208.258 274.669Z" fill="black"/>
<path d="M211.45 152.738C211.255 152.738 211.097 152.582 211.094 152.387C211.09 152.189 211.247 152.028 211.445 152.024L216.004 151.945C216.19 151.934 216.364 152.099 216.367 152.294C216.37 152.492 216.213 152.653 216.016 152.657L211.456 152.736C211.456 152.736 211.451 152.736 211.45 152.736V152.738Z" fill="black"/>
<path d="M211.547 158.253C211.353 158.253 211.194 158.098 211.191 157.902C211.187 157.705 211.344 157.543 211.542 157.54L218.74 157.414C218.94 157.407 219.099 157.567 219.102 157.763C219.105 157.96 218.948 158.122 218.751 158.125L211.553 158.252C211.553 158.252 211.548 158.252 211.547 158.252V158.253Z" fill="black"/>
<path d="M211.652 164.248C211.458 164.248 211.299 164.092 211.296 163.897C211.293 163.699 211.45 163.538 211.647 163.534L216.207 163.455C216.386 163.447 216.566 163.609 216.569 163.804C216.572 164.002 216.415 164.164 216.218 164.167L211.658 164.246C211.658 164.246 211.654 164.246 211.652 164.246V164.248Z" fill="black"/>
<path d="M211.747 169.763C211.553 169.763 211.395 169.608 211.391 169.412C211.388 169.215 211.545 169.053 211.743 169.05L218.94 168.924C219.136 168.911 219.3 169.077 219.303 169.275C219.306 169.472 219.149 169.634 218.952 169.637L211.754 169.763C211.754 169.763 211.749 169.763 211.747 169.763Z" fill="black"/>
<path d="M211.853 175.758C211.658 175.758 211.5 175.602 211.497 175.407C211.493 175.209 211.65 175.048 211.848 175.044L216.407 174.965C216.615 174.959 216.767 175.119 216.77 175.314C216.773 175.512 216.616 175.674 216.419 175.677L211.859 175.756C211.859 175.756 211.854 175.756 211.853 175.756V175.758Z" fill="black"/>
<path d="M211.955 181.513C211.76 181.513 211.602 181.357 211.599 181.162C211.595 180.964 211.752 180.803 211.95 180.799L219.148 180.673C219.334 180.66 219.507 180.827 219.51 181.023C219.513 181.22 219.356 181.382 219.159 181.385L211.961 181.511C211.961 181.511 211.956 181.511 211.955 181.511V181.513Z" fill="black"/>
<path d="M212.05 187.028C211.856 187.028 211.697 186.873 211.694 186.677C211.691 186.48 211.848 186.318 212.045 186.315L216.605 186.236C216.812 186.226 216.964 186.389 216.967 186.585C216.971 186.782 216.813 186.944 216.616 186.947L212.057 187.027C212.057 187.027 212.052 187.027 212.05 187.027V187.028Z" fill="black"/>
<path d="M212.16 193.262C211.966 193.262 211.807 193.107 211.804 192.911C211.801 192.714 211.958 192.552 212.155 192.549L219.353 192.423C219.562 192.418 219.712 192.576 219.716 192.772C219.719 192.969 219.562 193.131 219.364 193.134L212.167 193.261C212.167 193.261 212.162 193.261 212.16 193.261V193.262Z" fill="black"/>
<path d="M212.362 204.772C212.168 204.772 212.01 204.617 212.006 204.421C212.003 204.224 212.16 204.062 212.358 204.059L219.555 203.933C219.759 203.923 219.915 204.086 219.918 204.282C219.921 204.479 219.764 204.641 219.567 204.644L212.369 204.771C212.369 204.771 212.364 204.771 212.362 204.771V204.772Z" fill="black"/>
<path d="M230.258 196.709L207.612 197.104L207.702 202.266L230.349 201.871L230.258 196.709Z" fill="black"/>
<path d="M270.069 210.37H230.068C230.068 210.37 229.892 286.531 229.903 287.021C229.947 288.97 238.946 290.526 250.094 290.526C261.243 290.526 270.192 288.98 270.273 287.033C270.312 286.088 270.071 210.37 270.071 210.37H270.069Z" fill="white"/>
<path d="M269.868 261.298C255.937 264.894 242.673 264.812 230.152 261.298V238.544C244.75 241.601 258.088 242.07 269.868 238.544V261.298Z" fill="white"/>
<path d="M249.596 264.313C242.929 264.313 236.401 263.424 230.057 261.643C229.903 261.599 229.796 261.46 229.796 261.3V238.545C229.796 238.439 229.845 238.337 229.927 238.269C230.011 238.201 230.12 238.175 230.225 238.196C245.888 241.476 258.822 241.479 269.765 238.204C269.875 238.172 269.99 238.193 270.08 238.259C270.171 238.327 270.224 238.432 270.224 238.545V261.3C270.224 261.463 270.114 261.604 269.957 261.645C263.064 263.424 256.259 264.313 249.596 264.313ZM230.51 261.028C242.913 264.459 256.031 264.456 269.512 261.022V239.021C258.653 242.167 245.884 242.154 230.51 238.982V261.028Z" fill="black"/>
<path d="M250.094 290.847C240.176 290.847 229.602 289.483 229.547 286.957C229.537 286.468 229.705 213.337 229.712 210.225C229.712 210.027 229.872 209.869 230.068 209.869H270.069C270.265 209.869 270.425 210.027 270.425 210.225C270.435 213.319 270.666 286.015 270.627 286.957C270.524 289.483 259.971 290.847 250.093 290.847H250.094ZM230.426 210.581C230.413 216.237 230.251 286.378 230.261 286.94C230.29 288.273 237.85 290.133 250.094 290.133C262.339 290.133 269.86 288.265 269.915 286.926C269.952 286.033 269.731 216.219 269.713 210.581H230.424H230.426Z" fill="black"/>
<path d="M249.945 207.593C262.338 207.593 272.383 206.723 272.383 205.65C272.383 204.578 262.338 203.708 249.945 203.708C237.553 203.708 227.507 204.578 227.507 205.65C227.507 206.723 237.553 207.593 249.945 207.593Z" fill="black"/>
<path d="M272.213 205.487H227.507L227.533 213.515C227.527 213.534 227.522 213.596 227.522 213.615C227.522 214.687 237.368 215.718 249.759 215.718C262.151 215.718 272.197 214.857 272.197 213.785C272.197 213.756 272.189 213.651 272.175 213.621L272.212 205.487H272.213Z" fill="black"/>
<path d="M229.097 207.038H229.074C228.831 207.038 228.634 207.235 228.634 207.478V213.4C228.634 213.643 228.831 213.84 229.074 213.84H229.097C229.34 213.84 229.537 213.643 229.537 213.4V207.478C229.537 207.235 229.34 207.038 229.097 207.038Z" fill="white"/>
<path d="M231.62 207.595H231.597C231.354 207.595 231.157 207.792 231.157 208.035V213.956C231.157 214.199 231.354 214.396 231.597 214.396H231.62C231.863 214.396 232.06 214.199 232.06 213.956V208.035C232.06 207.792 231.863 207.595 231.62 207.595Z" fill="white"/>
<path d="M234.119 207.871H234.096C233.853 207.871 233.656 208.068 233.656 208.311V214.233C233.656 214.476 233.853 214.673 234.096 214.673H234.119C234.362 214.673 234.559 214.476 234.559 214.233V208.311C234.559 208.068 234.362 207.871 234.119 207.871Z" fill="white"/>
<path d="M236.712 208.057H236.69C236.446 208.057 236.249 208.254 236.249 208.497V214.419C236.249 214.662 236.446 214.859 236.69 214.859H236.712C236.955 214.859 237.152 214.662 237.152 214.419V208.497C237.152 208.254 236.955 208.057 236.712 208.057Z" fill="white"/>
<path d="M239.352 208.196H239.329C239.086 208.196 238.889 208.393 238.889 208.636V214.558C238.889 214.801 239.086 214.998 239.329 214.998H239.352C239.595 214.998 239.792 214.801 239.792 214.558V208.636C239.792 208.393 239.595 208.196 239.352 208.196Z" fill="white"/>
<path d="M241.851 208.334H241.828C241.585 208.334 241.388 208.531 241.388 208.774V214.695C241.388 214.938 241.585 215.135 241.828 215.135H241.851C242.094 215.135 242.291 214.938 242.291 214.695V208.774C242.291 208.531 242.094 208.334 241.851 208.334Z" fill="white"/>
<path d="M244.352 208.428H244.329C244.086 208.428 243.889 208.625 243.889 208.868V214.789C243.889 215.032 244.086 215.229 244.329 215.229H244.352C244.595 215.229 244.792 215.032 244.792 214.789V208.868C244.792 208.625 244.595 208.428 244.352 208.428Z" fill="white"/>
<path d="M247.082 208.381H247.06C246.816 208.381 246.619 208.578 246.619 208.821V214.742C246.619 214.985 246.816 215.182 247.06 215.182H247.082C247.325 215.182 247.522 214.985 247.522 214.742V208.821C247.522 208.578 247.325 208.381 247.082 208.381Z" fill="white"/>
<path d="M250.093 208.428H250.07C249.827 208.428 249.63 208.625 249.63 208.868V214.789C249.63 215.032 249.827 215.229 250.07 215.229H250.093C250.336 215.229 250.533 215.032 250.533 214.789V208.868C250.533 208.625 250.336 208.428 250.093 208.428Z" fill="white"/>
<path d="M270.856 213.793H270.878C271.121 213.793 271.318 213.596 271.318 213.353V207.431C271.318 207.188 271.121 206.991 270.878 206.991H270.856C270.612 206.991 270.415 207.188 270.415 207.431V213.353C270.415 213.596 270.612 213.793 270.856 213.793Z" fill="white"/>
<path d="M268.332 214.349H268.355C268.598 214.349 268.795 214.152 268.795 213.909V207.988C268.795 207.745 268.598 207.548 268.355 207.548H268.332C268.089 207.548 267.892 207.745 267.892 207.988V213.909C267.892 214.152 268.089 214.349 268.332 214.349Z" fill="white"/>
<path d="M265.833 214.626H265.856C266.099 214.626 266.296 214.429 266.296 214.186V208.264C266.296 208.021 266.099 207.824 265.856 207.824H265.833C265.59 207.824 265.393 208.021 265.393 208.264V214.186C265.393 214.429 265.59 214.626 265.833 214.626Z" fill="white"/>
<path d="M263.24 214.812H263.263C263.506 214.812 263.703 214.615 263.703 214.372V208.45C263.703 208.207 263.506 208.01 263.263 208.01H263.24C262.997 208.01 262.8 208.207 262.8 208.45V214.372C262.8 214.615 262.997 214.812 263.24 214.812Z" fill="white"/>
<path d="M260.602 214.951H260.625C260.868 214.951 261.065 214.754 261.065 214.511V208.589C261.065 208.346 260.868 208.149 260.625 208.149H260.602C260.359 208.149 260.162 208.346 260.162 208.589V214.511C260.162 214.754 260.359 214.951 260.602 214.951Z" fill="white"/>
<path d="M258.101 215.088H258.124C258.367 215.088 258.564 214.892 258.564 214.649V208.727C258.564 208.484 258.367 208.287 258.124 208.287H258.101C257.858 208.287 257.661 208.484 257.661 208.727V214.649C257.661 214.892 257.858 215.088 258.101 215.088Z" fill="white"/>
<path d="M255.601 215.182H255.623C255.866 215.182 256.064 214.985 256.064 214.742V208.821C256.064 208.578 255.866 208.381 255.623 208.381H255.601C255.358 208.381 255.16 208.578 255.16 208.821V214.742C255.16 214.985 255.358 215.182 255.601 215.182Z" fill="white"/>
<path d="M252.87 215.135H252.893C253.136 215.135 253.333 214.938 253.333 214.695V208.774C253.333 208.531 253.136 208.334 252.893 208.334H252.87C252.627 208.334 252.43 208.531 252.43 208.774V214.695C252.43 214.938 252.627 215.135 252.87 215.135Z" fill="white"/>
<path d="M249.763 216.096C243.858 216.096 238.246 215.87 233.964 215.457C227.171 214.804 227.171 214.06 227.171 213.66C227.171 213.617 227.177 213.578 227.185 213.549L227.167 205.673C227.167 205.476 227.326 205.316 227.524 205.316C227.721 205.316 227.88 205.474 227.88 205.671L227.897 213.605V213.617C228.734 214.367 237.27 215.383 249.763 215.383C263.027 215.383 270.969 214.45 271.822 213.752C271.82 213.741 271.819 213.728 271.819 213.718L271.856 205.671C271.856 205.476 272.016 205.317 272.212 205.317H272.213C272.411 205.317 272.57 205.479 272.568 205.675L272.532 213.651C272.545 213.689 272.555 213.738 272.555 213.796C272.555 214.192 272.555 214.928 265.658 215.527C261.41 215.896 255.764 216.098 249.763 216.098V216.096Z" fill="black"/>
<path d="M249.945 207.951C243.942 207.951 238.297 207.748 234.048 207.38C227.15 206.783 227.15 206.045 227.15 205.65C227.15 205.256 227.15 204.518 234.048 203.921C238.295 203.554 243.941 203.35 249.945 203.35C255.95 203.35 261.594 203.553 265.843 203.921C272.741 204.518 272.741 205.254 272.741 205.65C272.741 206.047 272.741 206.783 265.843 207.38C261.596 207.747 255.949 207.951 249.945 207.951ZM227.946 205.65C229.061 206.343 236.95 207.237 249.947 207.237C262.944 207.237 270.831 206.343 271.948 205.65C270.833 204.958 262.944 204.064 249.947 204.064C236.95 204.064 229.063 204.958 227.946 205.65Z" fill="white"/>
<path d="M257.839 288.131L257.755 288.695C257.248 292.103 254.074 294.455 250.664 293.951L227.132 290.46C224.519 290.072 222.716 287.642 223.105 285.032L223.493 282.418C223.924 279.519 226.625 277.517 229.526 277.947L252.851 281.407C256.086 281.887 258.32 284.898 257.839 288.131Z" fill="white"/>
<path d="M223.339 283.45C222.482 288.867 225.882 290.226 230.167 290.861L239.857 292.299L241.717 279.778L232.026 278.34C227.742 277.705 224.265 278.413 223.339 283.45Z" fill="black"/>
<path d="M251.523 294.365C251.198 294.365 250.871 294.34 250.539 294.292L227.972 290.944C224.676 290.455 222.393 287.379 222.883 284.086L223.021 283.159C223.545 279.631 226.842 277.189 230.372 277.711L252.975 281.064C256.36 281.566 258.707 284.728 258.203 288.11L258.119 288.674C257.627 291.981 254.773 294.363 251.523 294.363V294.365ZM229.419 278.355C226.615 278.355 224.15 280.411 223.728 283.264L223.59 284.191C223.16 287.094 225.172 289.808 228.079 290.239L250.646 293.587C253.893 294.069 256.931 291.819 257.415 288.571L257.499 288.006C257.944 285.012 255.868 282.214 252.872 281.771L230.269 278.418C229.984 278.376 229.699 278.355 229.419 278.355Z" fill="black"/>
<path d="M237.146 280.771L237.084 281.339C236.712 284.765 233.632 287.24 230.204 286.866L206.554 284.298C203.928 284.013 202.031 281.655 202.316 279.031L202.601 276.404C202.918 273.491 205.539 271.385 208.454 271.702L231.897 274.248C235.149 274.601 237.499 277.522 237.144 280.771H237.146Z" fill="white"/>
<path d="M202.489 277.444C201.844 282.89 205.296 284.116 209.601 284.584L219.34 285.642L220.709 273.058L210.971 272C206.665 271.532 203.219 272.377 202.491 277.446L202.489 277.444Z" fill="black"/>
<path d="M230.827 287.253C230.584 287.253 230.338 287.24 230.094 287.212L207.413 284.749C204.101 284.39 201.699 281.404 202.059 278.094L202.161 277.163C202.546 273.617 205.747 271.049 209.292 271.434L232.009 273.9C233.656 274.08 235.136 274.889 236.175 276.181C237.214 277.472 237.686 279.091 237.508 280.737L237.447 281.305C237.254 283.076 236.383 284.665 234.995 285.781C233.799 286.741 232.34 287.253 230.827 287.253ZM208.588 272.11C205.689 272.11 203.189 274.298 202.87 277.242L202.768 278.174C202.45 281.093 204.569 283.725 207.489 284.042L230.17 286.505C231.75 286.677 233.307 286.222 234.546 285.226C235.786 284.23 236.565 282.809 236.736 281.229L236.798 280.661C236.956 279.204 236.537 277.771 235.618 276.629C234.699 275.487 233.389 274.77 231.929 274.612L209.213 272.145C209.002 272.123 208.794 272.111 208.586 272.111L208.588 272.11Z" fill="black"/>
<path d="M227.807 288.914L227.774 289.483C227.58 292.924 224.631 295.554 221.19 295.359L197.438 294.017C194.801 293.868 192.784 291.612 192.933 288.977L193.082 286.339C193.247 283.413 195.756 281.174 198.684 281.339L222.228 282.669C225.494 282.853 227.991 285.648 227.807 288.912V288.914Z" fill="white"/>
<path d="M193.024 287.382C192.661 292.854 196.172 293.899 200.495 294.143L210.276 294.696L210.992 282.057L201.211 281.504C196.887 281.26 193.488 282.28 193.024 287.38V287.382Z" fill="black"/>
<path d="M203.158 292.81C203.158 292.81 203.145 292.81 203.137 292.81L200.861 292.683C197.614 292.5 195.096 290.179 195.246 287.51C195.258 287.313 195.426 287.162 195.622 287.173C195.818 287.185 195.968 287.353 195.958 287.549C195.831 289.824 198.046 291.809 200.902 291.969L203.177 292.097C203.373 292.108 203.524 292.277 203.514 292.472C203.504 292.662 203.346 292.809 203.158 292.809V292.81Z" fill="white"/>
<path d="M221.483 295.722C221.355 295.722 221.227 295.719 221.098 295.71L198.32 294.423C196.709 294.332 195.23 293.619 194.155 292.417C193.081 291.214 192.538 289.664 192.631 288.055L192.684 287.12C192.781 285.396 193.545 283.812 194.835 282.662C196.124 281.512 197.779 280.93 199.51 281.03L222.323 282.319C223.979 282.413 225.497 283.144 226.603 284.38C227.706 285.616 228.263 287.207 228.169 288.862L228.137 289.431C228.037 291.209 227.25 292.843 225.92 294.028C224.686 295.128 223.124 295.723 221.485 295.723L221.483 295.722ZM199.139 281.732C196.112 281.732 193.568 284.103 193.395 287.16L193.341 288.095C193.26 289.516 193.739 290.882 194.686 291.942C195.635 293.003 196.939 293.63 198.359 293.711L221.137 294.999C222.724 295.088 224.254 294.554 225.442 293.495C226.628 292.435 227.333 290.978 227.423 289.389L227.456 288.82C227.538 287.356 227.046 285.947 226.068 284.854C225.091 283.76 223.746 283.112 222.281 283.029L199.467 281.74C199.357 281.734 199.247 281.731 199.139 281.731V281.732Z" fill="black"/>
<path d="M125.019 226.493C124.689 208.251 110.254 193.844 89.9124 187.133C85.9421 185.823 84.4902 181.805 82.5334 178.113C78.0144 169.592 72.6165 163.874 66.2588 159.817C68.4746 143.091 80.8987 131.11 94.2355 131.287C97.1765 131.325 99.1786 128.333 97.9582 125.658L97.9242 125.585C96.6731 122.843 94.0073 121.014 90.9968 120.839C71.1226 119.692 56.4844 133.528 48.9824 152.658C47.9821 152.393 46.9673 152.139 45.9346 151.897C42.5049 151.088 39.1432 150.698 35.8996 150.704C33.4135 141.802 32.6544 124.661 31.7626 108.158C31.7124 107.22 31.0277 106.444 30.1068 106.254C24.738 105.154 21.6498 105.35 17.8446 106.901C17.7912 126.457 18.369 149.681 14.9733 157.512C8.93284 162.116 4.42678 168.938 2.26439 177.624C-0.909593 190.381 -4.25838 232.015 29.4205 262.649C39.8537 272.14 68.9505 288.65 72.7007 291.141C102.108 310.677 125.503 253.141 125.02 226.493H125.019Z" fill="white"/>
<path d="M84.6925 295.476C80.6283 295.476 76.5544 294.129 72.5015 291.437C71.6971 290.903 69.7144 289.718 66.9709 288.076C57.3664 282.331 37.3821 270.374 29.1793 262.913C14.5961 249.648 5.34122 233.022 1.67034 213.498C-1.89372 194.537 1.25113 180.215 1.91636 177.539C4.0221 169.076 8.43428 162.075 14.6803 157.286C17.5467 150.527 17.516 132.509 17.4885 115.083C17.4836 112.32 17.4788 109.577 17.4869 106.901C17.4869 106.757 17.5743 106.626 17.7086 106.571C21.6401 104.97 24.7849 104.802 30.1779 105.905C31.2608 106.127 32.0587 107.045 32.1186 108.139L32.3096 111.691C33.1059 126.622 33.9281 142.056 36.1715 150.349C39.394 150.365 42.7056 150.769 46.0171 151.55C46.9478 151.77 47.8704 152 48.767 152.235C52.6581 142.436 58.31 134.361 65.1258 128.868C72.7168 122.751 81.4263 119.93 91.0178 120.485C94.1659 120.666 96.9369 122.565 98.2479 125.438L98.2819 125.51C98.9002 126.864 98.7852 128.415 97.9727 129.658C97.1489 130.921 95.7634 131.665 94.2306 131.642C80.7125 131.471 68.876 143.484 66.6424 159.639C73.2898 163.931 78.5922 169.922 82.849 177.945C83.1387 178.491 83.4171 179.044 83.6955 179.596C85.2816 182.747 86.7804 185.723 90.0256 186.794C100.336 190.195 109.053 195.538 115.233 202.246C121.709 209.274 125.216 217.655 125.376 226.485C125.559 236.565 122.381 250.631 117.08 263.196C110.968 277.685 102.987 288.191 94.6078 292.778C91.3237 294.575 88.0122 295.474 84.6941 295.474L84.6925 295.476ZM18.199 107.142C18.1925 109.74 18.1974 112.401 18.2006 115.081C18.2298 132.655 18.2589 150.826 15.297 157.653C15.2727 157.71 15.2338 157.758 15.1853 157.795C9.03153 162.486 4.68247 169.372 2.60748 177.71C1.94711 180.363 -1.16699 194.551 2.36955 213.367C6.00968 232.735 15.1917 249.227 29.6568 262.385C37.8078 269.8 57.75 281.731 67.3351 287.465C70.0883 289.111 72.0759 290.302 72.8948 290.845C80.0181 295.576 87.2061 296.018 94.2614 292.157C112.405 282.225 125.014 246.046 124.659 226.501C124.35 209.419 110.992 194.466 89.7974 187.473C86.2722 186.31 84.6358 183.061 83.0545 179.919C82.7794 179.373 82.5026 178.824 82.2161 178.283C77.9787 170.292 72.6958 164.353 66.0645 160.121C65.948 160.047 65.8849 159.911 65.9027 159.774C66.9726 151.696 70.4961 144.306 75.8212 138.965C81.0734 133.698 87.6156 130.845 94.2371 130.932C95.5093 130.952 96.6827 130.327 97.3722 129.271C98.0488 128.234 98.1459 126.939 97.6296 125.808L97.5956 125.735C96.393 123.104 93.8568 121.365 90.9725 121.198C72.7848 120.15 57.5963 131.663 49.3109 152.793C49.2445 152.961 49.0616 153.053 48.8868 153.008C47.9011 152.747 46.8798 152.492 45.8488 152.248C42.4984 151.457 39.1512 151.068 35.8963 151.065C35.7361 151.065 35.5952 150.958 35.5532 150.805C33.2338 142.502 32.4002 126.861 31.5942 111.733L31.4032 108.181C31.3611 107.411 30.7979 106.764 30.0323 106.607C24.9015 105.557 21.878 105.688 18.1974 107.146L18.199 107.142Z" fill="#FF541E"/>
<path d="M76.1287 276.642C76.0381 276.642 75.9474 276.608 75.8778 276.54C75.737 276.403 75.7354 276.176 75.873 276.035C89.8492 261.826 94.2419 244.32 95.4672 232.137C96.9595 217.295 94.3196 205.883 91.9679 202.519C87.8535 196.633 81.5331 193.932 75.9571 191.548C70.7421 189.319 66.2393 187.394 65.9253 183.357C65.5741 178.841 69.0249 174.236 75.1559 171.039C75.3307 170.949 75.546 171.017 75.6367 171.19C75.7273 171.365 75.6593 171.58 75.4861 171.67C69.6173 174.731 66.3089 179.078 66.6375 183.302C66.9175 186.909 71.0302 188.667 76.2388 190.893C81.6221 193.194 88.3229 196.059 92.5538 202.111C94.9671 205.565 97.6878 217.186 96.1777 232.208C94.9412 244.504 90.5047 262.177 76.3828 276.535C76.3132 276.606 76.221 276.642 76.1287 276.642Z" fill="black"/>
<path d="M21.9913 194.336C21.9055 194.336 21.8197 194.305 21.7517 194.244C18.5745 191.373 16.5934 188.018 16.0221 184.541C15.2775 180.005 16.7617 175.01 20.2012 170.48C23.9627 165.525 29.4172 162.103 34.4347 161.548C37.1426 161.249 39.572 161.802 41.524 162.247C43.8806 162.784 45.5833 163.172 46.7082 162.045C48.0743 160.678 47.9675 157.758 46.3862 153.368C46.3198 153.182 46.4153 152.979 46.6014 152.912C46.7859 152.846 46.9915 152.941 47.0578 153.127C48.7395 157.799 48.7913 160.969 47.2132 162.549C45.8083 163.955 43.8466 163.508 41.3654 162.942C39.3665 162.486 37.1005 161.97 34.5141 162.257C29.6843 162.79 24.4191 166.106 20.7709 170.91C17.4982 175.221 16.0253 180.146 16.7261 184.424C17.27 187.74 19.1734 190.952 22.2292 193.713C22.3749 193.846 22.3862 194.071 22.2551 194.216C22.1855 194.294 22.0884 194.335 21.9897 194.335L21.9913 194.336Z" fill="black"/>
<path d="M57.428 240.444C57.2402 240.444 57.0816 240.297 57.0719 240.108C57.0606 239.91 57.2127 239.744 57.4085 239.733C68.4406 239.136 75.258 236.795 77.6712 232.779C79.3966 229.908 78.6456 226.654 77.9189 223.504C77.0999 219.954 76.3262 216.602 79.0454 214.039C81.9345 211.317 89.1403 210.517 92.2107 211.931C92.3904 212.014 92.4681 212.226 92.3855 212.403C92.303 212.583 92.0909 212.661 91.9129 212.578C89.061 211.265 82.1773 212.065 79.5358 214.556C77.1145 216.839 77.8428 219.998 78.6149 223.343C79.3723 226.629 80.1573 230.026 78.283 233.144C75.7403 237.376 68.7303 239.831 57.4474 240.443C57.4409 240.443 57.4344 240.443 57.428 240.443V240.444Z" fill="black"/>
<path d="M171.544 225.151C171.544 225.151 174.851 229.078 184.635 229.379C193.23 229.643 193.362 227.194 193.267 225.908C193.165 224.556 192.221 222.807 184.768 221.979C176.437 221.054 171.546 225.151 171.546 225.151H171.544Z" fill="black"/>
<path d="M183.473 293.613C180.103 293.613 177.431 292.864 177.275 292.82C177.086 292.767 176.976 292.569 177.029 292.38C177.085 292.191 177.28 292.081 177.471 292.136C177.523 292.15 182.66 293.585 187.56 292.469C187.754 292.425 187.943 292.545 187.987 292.738C188.031 292.93 187.911 293.121 187.718 293.165C186.27 293.495 184.815 293.614 183.471 293.614L183.473 293.613Z" fill="black"/>
<path d="M184.247 274.389L183.468 281.81L178.446 282.399V273.598L184.247 274.389Z" fill="white"/>
<path d="M178.446 282.754C178.358 282.754 178.274 282.722 178.208 282.664C178.132 282.596 178.088 282.499 178.088 282.397V273.596C178.088 273.493 178.133 273.396 178.211 273.328C178.289 273.26 178.392 273.229 178.494 273.244L184.295 274.033C184.486 274.059 184.622 274.232 184.601 274.423L183.821 281.845C183.803 282.012 183.674 282.143 183.507 282.162L178.485 282.751C178.47 282.753 178.457 282.754 178.442 282.754H178.446ZM178.803 274.007V281.997L183.143 281.49L183.857 274.694L178.803 274.007Z" fill="black"/>
<path d="M177.656 295.319C179.747 295.613 183.175 295.872 187.201 295.316C188.525 295.133 189.405 293.857 189.086 292.561C188.199 288.959 186.671 282.122 184.048 278.953L183.395 280.671L182.495 279.054C182.372 278.832 182.151 278.682 181.9 278.651L179.928 278.402C179.517 278.35 179.134 278.622 179.048 279.028L178.734 280.517L177.748 278.56L176.908 286.125C176.741 287.628 176.507 289.121 176.204 290.602L175.754 292.805C175.45 294.407 176.44 295.146 177.656 295.317V295.319Z" fill="white"/>
<path d="M182.403 296C180.479 296 178.839 295.845 177.606 295.672C176.767 295.554 176.12 295.207 175.735 294.67C175.369 294.159 175.257 293.511 175.403 292.741L175.854 290.533C176.154 289.069 176.389 287.573 176.554 286.088L177.394 278.523C177.411 278.366 177.53 278.24 177.685 278.211C177.84 278.183 177.996 278.261 178.067 278.402L178.595 279.448L178.698 278.955C178.821 278.371 179.38 277.973 179.972 278.048L181.943 278.297C182.306 278.342 182.63 278.56 182.806 278.881L183.332 279.827L183.713 278.827C183.758 278.709 183.863 278.623 183.988 278.602C184.112 278.581 184.24 278.628 184.321 278.727C186.819 281.743 188.335 287.976 189.243 291.701L189.432 292.477C189.607 293.187 189.473 293.943 189.062 294.547C188.646 295.159 187.986 295.568 187.249 295.67C185.506 295.911 183.871 296.002 182.403 296.002V296ZM177.704 294.966C179.834 295.266 183.203 295.508 187.15 294.963C187.686 294.889 188.167 294.591 188.469 294.146C188.772 293.702 188.868 293.169 188.738 292.647L188.549 291.869C187.706 288.403 186.325 282.729 184.153 279.68L183.727 280.799C183.679 280.928 183.559 281.019 183.42 281.029C183.274 281.038 183.149 280.967 183.081 280.846L182.181 279.228C182.113 279.107 181.99 279.023 181.851 279.005L179.88 278.756C179.656 278.728 179.441 278.879 179.394 279.102L179.08 280.593C179.049 280.742 178.928 280.854 178.778 280.873C178.63 280.893 178.481 280.815 178.413 280.679L177.968 279.796L177.261 286.167C177.093 287.675 176.855 289.192 176.55 290.677L176.1 292.88C175.994 293.446 176.065 293.91 176.312 294.256C176.652 294.73 177.256 294.905 177.703 294.968L177.704 294.966Z" fill="black"/>
<path d="M184.671 288.094C184.671 288.094 184.663 288.094 184.658 288.094L179.951 287.938C179.754 287.932 179.6 287.767 179.606 287.57C179.613 287.372 179.781 287.22 179.975 287.225L184.682 287.38C184.88 287.387 185.033 287.552 185.027 287.749C185.02 287.942 184.862 288.094 184.671 288.094Z" fill="black"/>
<path d="M184.671 293.75C184.671 293.75 184.663 293.75 184.659 293.75L179.953 293.595C179.883 293.595 177.659 293.595 177.413 292.04C177.382 291.846 177.515 291.664 177.709 291.633C177.904 291.602 178.086 291.735 178.117 291.929C178.266 292.872 179.919 292.881 179.961 292.881L184.658 293.037C186.247 292.877 186.369 292.247 186.369 292.241C186.375 292.044 186.558 291.893 186.738 291.896C186.935 291.903 187.089 292.068 187.082 292.265C187.078 292.395 186.974 293.53 184.705 293.748C184.693 293.748 184.682 293.75 184.671 293.75Z" fill="black"/>
<path d="M160.727 270.437L159.975 281.268H153.931L153.651 270.437H160.727Z" fill="white"/>
<path d="M159.975 281.624H153.933C153.74 281.624 153.581 281.47 153.577 281.276L153.297 270.445C153.293 270.35 153.331 270.256 153.399 270.187C153.465 270.117 153.557 270.078 153.654 270.078H160.731C160.829 270.078 160.923 270.119 160.991 270.191C161.059 270.264 161.093 270.361 161.087 270.46L160.334 281.291C160.321 281.478 160.166 281.622 159.978 281.622L159.975 281.624ZM154.279 280.91H159.641L160.344 270.793H154.017L154.279 280.91Z" fill="black"/>
<path d="M161.553 287.382C161.567 288.406 160.868 289.307 159.87 289.538C156.396 290.347 148.57 292.146 146.339 292.477C143.441 292.909 139.88 292.021 138.351 290.327C136.82 288.634 141.779 284.59 144.132 283.12C147.628 280.935 150.987 276.614 152.395 276.42C153.803 276.226 156.432 280.309 156.432 280.309L160.729 278.505C160.729 278.505 161.478 282.185 161.555 287.382H161.553Z" fill="white"/>
<path d="M144.825 292.941C142.148 292.941 139.39 292.01 138.084 290.567C137.775 290.224 137.653 289.797 137.723 289.297C138.022 287.151 142.041 284.005 143.941 282.817C145.654 281.747 147.319 280.168 148.787 278.775C150.377 277.269 151.524 276.181 152.343 276.068C153.747 275.875 155.857 278.804 156.564 279.866L160.588 278.177C160.687 278.135 160.799 278.14 160.894 278.19C160.988 278.24 161.056 278.329 161.077 278.434C161.085 278.471 161.833 282.206 161.911 287.376C161.928 288.561 161.105 289.616 159.951 289.884C156.626 290.657 148.648 292.493 146.39 292.828C145.88 292.904 145.354 292.94 144.825 292.94V292.941ZM152.504 276.77C152.482 276.77 152.461 276.77 152.442 276.775C151.85 276.857 150.602 278.039 149.279 279.293C147.785 280.708 146.094 282.313 144.32 283.422C141.997 284.873 138.66 287.757 138.43 289.396C138.39 289.685 138.448 289.905 138.615 290.088C140.01 291.633 143.453 292.545 146.285 292.124C148.517 291.793 156.472 289.962 159.789 289.19C160.617 288.998 161.21 288.239 161.197 287.387C161.135 283.293 160.65 280.118 160.457 279.005L156.569 280.637C156.411 280.703 156.225 280.647 156.131 280.501C155.116 278.926 153.347 276.77 152.504 276.77Z" fill="black"/>
<path d="M144.882 290.953C142.671 290.953 140.724 290.535 139.476 289.409C139.33 289.276 139.319 289.051 139.45 288.906C139.581 288.76 139.808 288.747 139.953 288.88C144.424 292.914 159.683 286.751 159.837 286.688C160.017 286.614 160.227 286.701 160.302 286.884C160.376 287.067 160.289 287.274 160.106 287.348C159.63 287.542 151.181 290.953 144.878 290.953H144.882Z" fill="black"/>
<path d="M151.579 284.395C151.494 284.395 151.409 284.364 151.34 284.302L148.266 281.532C148.12 281.399 148.108 281.174 148.24 281.029C148.373 280.881 148.598 280.872 148.744 281.003L151.817 283.773C151.963 283.906 151.976 284.131 151.843 284.276C151.774 284.354 151.675 284.395 151.578 284.395H151.579Z" fill="black"/>
<path d="M185.961 199.829C185.961 199.829 187.833 233.688 188.813 245.376C189.792 257.064 186.521 275.853 186.521 275.853L177.193 275.362C177.193 275.362 176.733 258.909 176.17 250.052C176.023 247.746 175.518 245.479 174.665 243.331C173.406 240.166 171.505 234.843 170.754 229.906C169.587 222.236 165.609 210.121 165.609 210.121C165.609 210.121 162.378 270.589 162.068 275.34C162.068 275.34 154.753 275.665 152.131 274.017C152.131 274.017 147.484 251.969 148.153 239.972C148.82 227.977 148.088 198.171 148.088 198.171L185.961 199.831V199.829Z" fill="black"/>
<path d="M186.522 276.208C186.522 276.208 186.509 276.208 186.503 276.208L177.175 275.718C176.989 275.709 176.842 275.558 176.837 275.372C176.832 275.207 176.371 258.824 175.814 250.075C175.668 247.794 175.171 245.57 174.333 243.462C172.946 239.975 171.138 234.801 170.402 229.96C169.523 224.187 167.012 215.786 165.861 212.091C165.305 222.511 162.7 271.147 162.424 275.362C162.412 275.544 162.265 275.688 162.084 275.696C161.779 275.709 154.627 276.006 151.942 274.318C151.859 274.266 151.803 274.183 151.783 274.09C151.736 273.868 147.135 251.857 147.797 239.952C148.456 228.108 147.739 198.478 147.73 198.181C147.727 198.082 147.766 197.987 147.837 197.917C147.908 197.848 148.006 197.812 148.103 197.815L185.975 199.475C186.158 199.483 186.305 199.629 186.315 199.811C186.335 200.149 188.198 233.798 189.167 245.347C190.14 256.946 186.904 275.725 186.872 275.914C186.841 276.085 186.692 276.21 186.521 276.21L186.522 276.208ZM177.543 275.023L186.223 275.479C186.639 272.982 189.353 256.095 188.458 245.405C187.54 234.455 185.818 203.667 185.622 200.17L148.454 198.542C148.536 202.061 149.129 228.85 148.509 239.988C147.881 251.28 152.042 271.812 152.45 273.787C154.734 275.088 160.336 275.026 161.734 274.99C162.14 268.388 165.222 210.692 165.255 210.099C165.264 209.927 165.394 209.786 165.564 209.764C165.737 209.741 165.897 209.843 165.95 210.006C165.991 210.128 169.95 222.238 171.109 229.848C171.836 234.623 173.626 239.742 174.998 243.196C175.864 245.373 176.379 247.671 176.528 250.025C177.041 258.097 177.473 272.65 177.543 275.02V275.023Z" fill="white"/>
<path d="M179.36 247.757C178.766 247.757 178.172 247.661 177.596 247.469C177.41 247.406 177.308 247.205 177.371 247.018C177.434 246.832 177.633 246.73 177.823 246.793C178.779 247.111 179.796 247.128 180.76 246.836C180.95 246.78 181.149 246.887 181.204 247.076C181.26 247.265 181.154 247.462 180.964 247.519C180.438 247.678 179.899 247.755 179.36 247.755V247.757Z" fill="white"/>
<path d="M157.272 264.116C157.078 264.116 156.919 263.961 156.916 263.767C156.817 258.351 150.571 248.16 150.508 248.058C150.404 247.889 150.456 247.671 150.624 247.568C150.791 247.464 151.011 247.516 151.115 247.684C151.377 248.108 157.526 258.146 157.628 263.754C157.631 263.951 157.474 264.113 157.278 264.116C157.277 264.116 157.273 264.116 157.272 264.116Z" fill="white"/>
<path d="M117.015 147.546C114.994 145.41 113.817 143.691 113.817 143.691C113.817 143.691 110.214 137.621 107.482 135.427C104.748 133.232 104.319 132.943 104.319 132.943C104.319 132.943 103.463 134.085 104.319 135.427C104.806 136.191 105.782 137.333 106.533 138.175C107.027 138.73 107.037 139.557 106.566 140.131C105.977 140.849 105.455 142.03 106.111 143.691C107.093 146.179 109.371 146.716 110.546 146.822C110.984 146.863 111.353 147.165 111.473 147.591C111.671 148.301 112.022 149.478 112.541 150.952L117.015 147.547V147.546Z" fill="white"/>
<path d="M112.54 151.306C112.506 151.306 112.472 151.301 112.438 151.292C112.328 151.259 112.242 151.177 112.203 151.068C111.684 149.595 111.331 148.416 111.127 147.685C111.047 147.403 110.806 147.203 110.512 147.177C109.191 147.057 106.82 146.46 105.777 143.822C105.052 141.983 105.654 140.678 106.287 139.905C106.65 139.463 106.64 138.835 106.265 138.412C105.517 137.572 104.518 136.404 104.016 135.618C103.037 134.085 103.991 132.783 104.033 132.728C104.148 132.576 104.36 132.54 104.518 132.647C104.536 132.66 104.991 132.97 107.704 135.149C110.455 137.359 113.974 143.259 114.123 143.51C114.123 143.51 115.298 145.216 117.272 147.301C117.342 147.374 117.378 147.474 117.37 147.575C117.361 147.675 117.311 147.769 117.23 147.83L112.757 151.235C112.694 151.284 112.617 151.308 112.54 151.308V151.306ZM104.436 133.473C104.284 133.844 104.151 134.5 104.62 135.235C105.098 135.982 106.069 137.118 106.8 137.938C107.411 138.623 107.428 139.641 106.842 140.356C106.098 141.265 105.964 142.342 106.444 143.558C107.346 145.842 109.421 146.36 110.578 146.465C111.17 146.518 111.658 146.923 111.816 147.492C111.996 148.134 112.291 149.129 112.716 150.368L116.484 147.5C114.634 145.507 113.569 143.96 113.522 143.892C113.474 143.812 109.91 137.833 107.258 135.704C105.622 134.39 104.818 133.763 104.436 133.473Z" fill="black"/>
<path d="M180.505 133.441C180.505 133.441 169.163 127.961 153.326 133.951C140.07 138.963 155.621 175.302 153.132 199.341C153.132 199.341 173.983 202.48 179.83 194.551C182.915 190.367 180.505 133.441 180.505 133.441Z" fill="white"/>
<path d="M162.309 200.329C157.427 200.329 153.449 199.748 153.078 199.693C152.89 199.664 152.758 199.493 152.777 199.303C153.777 189.644 151.885 178.198 150.055 167.13C147.355 150.806 145.024 136.708 153.201 133.617C169 127.644 180.547 133.066 180.662 133.121C180.78 133.177 180.857 133.295 180.862 133.426C180.961 135.756 183.242 190.527 180.118 194.763C176.759 199.318 168.751 200.329 162.31 200.329H162.309ZM153.522 199.033C156.218 199.388 174.291 201.461 179.543 194.339C181.914 191.122 180.987 153.385 180.158 133.677C178.606 133.012 167.844 128.843 153.452 134.284C145.822 137.169 148.109 150.999 150.759 167.014C152.575 177.998 154.452 189.353 153.522 199.033Z" fill="black"/>
<path d="M137.621 148.063C137.621 148.063 144.508 138.174 151.349 134.211C152.162 133.74 153.429 133.223 155.049 132.745C157.832 139.56 162.09 152.199 159.978 161.577C157.476 172.694 158.196 212.8 158.524 226.466C144.911 226.168 141.358 225.859 141.358 225.859C139.641 216.439 147.122 161.32 147.122 161.32L137.621 148.065V148.063Z" fill="white"/>
<path d="M158.524 226.822C158.524 226.822 158.52 226.822 158.516 226.822C145.048 226.527 141.363 226.217 141.327 226.215C141.167 226.201 141.036 226.083 141.007 225.924C139.325 216.701 146.243 165.153 146.748 161.412L137.33 148.272C137.242 148.149 137.24 147.984 137.326 147.861C137.61 147.455 144.338 137.86 151.17 133.904C152.055 133.391 153.361 132.872 154.947 132.404C155.122 132.352 155.31 132.441 155.378 132.611C158.143 139.384 162.462 152.163 160.324 161.655C157.809 172.827 158.583 214.079 158.879 226.458C158.881 226.555 158.843 226.649 158.775 226.718C158.709 226.785 158.617 226.823 158.523 226.823L158.524 226.822ZM141.666 225.525C142.718 225.597 146.996 225.853 158.16 226.1C157.778 209.993 157.186 172.358 159.632 161.498C161.695 152.333 157.578 139.947 154.842 133.181C153.467 133.603 152.298 134.075 151.529 134.52C145.374 138.085 139.087 146.632 138.059 148.063L147.411 161.111C147.465 161.186 147.488 161.276 147.475 161.367C147.4 161.912 140.159 215.522 141.664 225.525H141.666Z" fill="black"/>
<path d="M165.373 166.388C166.332 154.394 173.281 139.479 177.196 131.893C180.454 132.498 183.819 133.46 187.176 134.897C201.114 140.86 196.169 161.15 196.169 161.15L186.708 159.711L186.673 171.568C186.639 182.852 187.424 194.124 189.021 205.295L192.524 225.406C191.252 221.259 171.677 224.104 162.561 224.965C164.108 202.451 164.293 179.868 165.373 166.388Z" fill="white"/>
<path d="M192.522 225.764C192.368 225.764 192.228 225.664 192.181 225.512C191.18 222.251 176.147 223.875 167.166 224.844C165.499 225.023 163.926 225.193 162.594 225.319C162.488 225.329 162.386 225.293 162.31 225.219C162.236 225.146 162.197 225.044 162.203 224.939C163.018 213.099 163.456 201.194 163.843 190.69C164.198 181.065 164.503 172.752 165.015 166.358C165.975 154.36 172.86 139.511 176.877 131.73C176.95 131.591 177.105 131.513 177.259 131.542C180.759 132.192 184.141 133.211 187.314 134.568C193.141 137.063 196.578 142.476 197.252 150.229C197.757 156.037 196.525 161.183 196.514 161.234C196.47 161.414 196.295 161.53 196.114 161.503L187.063 160.126L187.029 171.57C186.995 182.8 187.785 194.129 189.373 205.244L192.872 225.345C192.904 225.531 192.786 225.709 192.603 225.753C192.576 225.759 192.548 225.762 192.521 225.762L192.522 225.764ZM165.373 166.388L165.729 166.417C165.217 172.796 164.911 181.102 164.558 190.718C164.176 201.102 163.743 212.856 162.946 224.57C164.18 224.451 165.599 224.297 167.091 224.135C178.395 222.914 188.757 222.026 191.944 224.158L188.67 205.356C187.074 194.195 186.283 182.831 186.317 171.568L186.352 159.711C186.352 159.607 186.398 159.508 186.477 159.44C186.556 159.373 186.66 159.343 186.763 159.36L195.894 160.749C196.436 158.159 199.59 140.598 187.037 135.227C183.991 133.923 180.747 132.938 177.394 132.294C173.384 140.091 166.671 154.662 165.73 166.417L165.374 166.388H165.373Z" fill="black"/>
<path d="M149.283 212.056C149.095 212.056 148.938 211.908 148.926 211.719C148.915 211.522 149.066 211.354 149.263 211.344C149.677 211.321 150.034 211.134 150.351 210.77C152.091 208.784 151.885 202.699 151.799 201.113C150.874 201.227 148.457 201.414 145.918 200.738C145.727 200.688 145.615 200.492 145.665 200.301C145.715 200.111 145.911 199.999 146.102 200.049C149.124 200.855 152.042 200.361 152.071 200.355C152.172 200.337 152.272 200.363 152.351 200.424C152.431 200.486 152.481 200.578 152.489 200.678C152.515 201.007 153.085 208.733 150.89 211.237C150.445 211.745 149.911 212.02 149.304 212.054C149.297 212.054 149.291 212.054 149.284 212.054L149.283 212.056Z" fill="black"/>
<path d="M174.988 214.293C173.499 214.293 172.243 213.743 171.258 212.659C167.933 209 168.762 200.478 168.798 200.117C168.809 200.012 168.865 199.918 168.951 199.858C169.039 199.798 169.147 199.782 169.249 199.81C175.93 201.694 182.78 199.476 182.848 199.455C183.034 199.394 183.237 199.496 183.298 199.682C183.36 199.87 183.258 200.07 183.072 200.132C182.79 200.225 176.219 202.349 169.474 200.609C169.353 202.37 169.074 209.198 171.785 212.18C172.637 213.117 173.708 213.589 175.018 213.579C175.21 213.562 175.375 213.736 175.377 213.934C175.377 214.131 175.218 214.291 175.022 214.293C175.011 214.293 175 214.293 174.987 214.293H174.988Z" fill="black"/>
<path d="M110.591 150.818C113.208 158.229 120.157 169.778 133.631 170.365C138.312 170.569 142.871 165.928 149.045 161.318C149.045 161.318 142.58 141.889 142.151 142.416C140.136 144.893 135.094 152.042 130.693 152.162C124.175 152.338 121.039 148.5 117.67 144.941L110.591 150.818Z" fill="white"/>
<path d="M133.939 170.729C133.832 170.729 133.723 170.727 133.617 170.722C118.185 170.05 111.834 155.408 110.254 150.937C110.204 150.797 110.248 150.64 110.363 150.544L117.442 144.668C117.586 144.548 117.8 144.561 117.93 144.697C118.148 144.928 118.365 145.16 118.582 145.391C121.753 148.772 124.74 151.969 130.682 151.806C134.406 151.706 138.731 146.188 141.055 143.225C141.559 142.583 141.957 142.077 142.255 141.74C142.386 141.593 142.611 141.58 142.758 141.711C142.905 141.842 142.918 142.067 142.787 142.214C142.504 142.535 142.112 143.033 141.615 143.665C139.22 146.721 134.761 152.409 130.7 152.519C124.444 152.687 121.197 149.228 118.059 145.879C117.918 145.729 117.779 145.58 117.638 145.431L111.007 150.934C112.681 155.552 118.917 169.369 133.644 170.011C137.208 170.166 140.709 167.4 145.137 163.897C145.939 163.263 146.766 162.609 147.624 161.948C147.779 161.828 148.004 161.857 148.124 162.012C148.243 162.168 148.214 162.392 148.059 162.512C147.203 163.17 146.379 163.822 145.579 164.455C141.162 167.948 137.647 170.729 133.934 170.729H133.939Z" fill="black"/>
<path d="M148.946 175.766H166.692C167.888 175.766 168.76 174.635 168.456 173.479L161.873 148.471C161.663 147.67 160.938 147.112 160.109 147.112H142.363C141.167 147.112 140.295 148.243 140.599 149.399L147.182 174.407C147.392 175.208 148.117 175.766 148.946 175.766Z" fill="black"/>
<path d="M171.465 161.855L169.171 160.933C168.254 160.565 167.548 159.806 167.252 158.863C167.13 158.478 166.993 157.999 166.836 157.404C166.221 155.07 164.403 153.679 163.701 154.64C163.28 155.216 164.335 156.967 164.129 158.117C163.777 160.091 160.268 158.637 159.688 158.415C158.369 157.907 158.144 157.488 157.129 156.823C156.373 156.328 155.397 156.975 155.545 157.865C155.817 159.513 156.483 161.614 158.108 162.627C160.709 164.248 162.025 164.303 163.346 164.401C164.091 164.456 164.806 164.704 165.434 165.11C166.386 165.728 167.927 166.708 169.806 167.843L171.468 161.855H171.465Z" fill="white"/>
<path d="M169.803 168.199C169.738 168.199 169.675 168.181 169.618 168.147C167.74 167.014 166.198 166.032 165.237 165.407C164.656 165.031 163.992 164.806 163.317 164.756L163.205 164.747C161.885 164.65 160.52 164.552 157.917 162.929C156.166 161.838 155.469 159.604 155.192 157.923C155.1 157.367 155.336 156.83 155.808 156.523C156.276 156.218 156.857 156.218 157.323 156.524C157.667 156.747 157.924 156.948 158.152 157.123C158.612 157.477 158.974 157.758 159.816 158.082L159.897 158.113C162.048 158.952 162.992 158.853 163.403 158.622C163.612 158.506 163.731 158.324 163.78 158.054C163.866 157.574 163.675 156.901 163.506 156.307C163.286 155.533 163.097 154.865 163.414 154.43C163.681 154.066 164.081 153.912 164.542 153.999C165.602 154.2 166.737 155.625 167.182 157.313C167.325 157.855 167.462 158.341 167.593 158.756C167.857 159.599 168.482 160.272 169.306 160.602L171.599 161.524C171.767 161.592 171.858 161.775 171.81 161.949L170.147 167.937C170.117 168.044 170.039 168.131 169.935 168.173C169.893 168.189 169.848 168.199 169.804 168.199H169.803ZM156.564 157.008C156.438 157.008 156.312 157.045 156.197 157.119C155.962 157.271 155.849 157.529 155.894 157.807C156.148 159.343 156.77 161.373 158.295 162.324C160.747 163.853 162.022 163.947 163.257 164.037L163.37 164.045C164.165 164.104 164.944 164.369 165.625 164.811C166.514 165.386 167.897 166.27 169.586 167.295L171.037 162.067L169.04 161.265C168.017 160.854 167.242 160.018 166.913 158.971C166.779 158.544 166.638 158.048 166.493 157.496C166.081 155.935 165.091 154.829 164.409 154.701C164.168 154.656 164.058 154.758 163.99 154.852C163.877 155.007 164.066 155.673 164.193 156.115C164.382 156.783 164.597 157.54 164.482 158.182C164.397 158.659 164.144 159.026 163.752 159.246C162.948 159.698 161.601 159.544 159.638 158.779L159.56 158.75C158.622 158.389 158.202 158.066 157.717 157.69C157.489 157.514 157.252 157.333 156.933 157.124C156.818 157.048 156.692 157.011 156.564 157.011V157.008Z" fill="black"/>
<path d="M168.655 168.312C175.599 172.507 187.179 178.805 190.912 176.646C195.696 173.878 197.017 155.245 197.017 154.13L182.531 151.094L181.848 158.109C181.667 159.654 180.32 160.791 178.766 160.712C176.319 160.586 175.422 160.61 171.402 159.615L168.655 168.312Z" fill="white"/>
<path d="M188.927 177.435C184.166 177.435 175.471 172.845 168.472 168.618C168.331 168.532 168.267 168.363 168.317 168.206L171.063 159.508C171.12 159.329 171.309 159.224 171.489 159.269C175.16 160.176 176.188 160.227 178.234 160.327L178.787 160.354C180.144 160.426 181.338 159.419 181.497 158.067L182.11 151.764C182.13 151.568 182.301 151.424 182.5 151.444C182.696 151.463 182.84 151.638 182.821 151.833L182.206 158.143C182.003 159.876 180.48 161.153 178.75 161.068L178.198 161.04C176.167 160.94 175.12 160.888 171.643 160.042L169.081 168.154C180.237 174.866 188.123 177.851 190.735 176.338C195.241 173.731 196.663 155.72 196.663 154.132C196.663 153.935 196.823 153.776 197.019 153.776C197.214 153.776 197.375 153.936 197.375 154.132C197.375 154.328 196.213 173.993 191.091 176.956C190.522 177.286 189.789 177.437 188.926 177.437L188.927 177.435Z" fill="black"/>
<path d="M163.634 122.088C163.566 122.12 163.521 122.185 163.513 122.259L162.598 130.046C162.414 131.152 162.598 132.417 161.32 132.998L159.899 133.577C159.279 133.829 159.3 134.714 159.933 134.936C161.611 135.521 164.319 136.28 167.116 136.288C169.879 136.296 172.273 135.22 173.694 134.4C174.255 134.077 174.14 133.234 173.514 133.066L173.276 133.001C172.214 132.715 171.534 131.374 171.387 130.285L170.266 119.215C170.251 119.065 170.089 118.974 169.953 119.041L163.633 122.089L163.634 122.088Z" fill="white"/>
<path d="M167.147 136.644C167.135 136.644 167.126 136.644 167.114 136.644C164.304 136.636 161.593 135.893 159.815 135.272C159.386 135.122 159.101 134.732 159.089 134.279C159.078 133.824 159.342 133.42 159.764 133.247L161.185 132.668C161.966 132.314 162.066 131.684 162.161 130.69C162.184 130.458 162.207 130.221 162.246 129.986L163.159 122.216C163.181 122.02 163.301 121.85 163.479 121.764L169.799 118.715C169.968 118.635 170.167 118.639 170.33 118.732C170.494 118.824 170.602 118.989 170.622 119.175L171.743 130.246C171.878 131.232 172.493 132.419 173.37 132.655L173.608 132.72C174.04 132.836 174.346 133.185 174.404 133.629C174.463 134.07 174.259 134.484 173.873 134.706C172.342 135.591 169.934 136.642 167.148 136.642L167.147 136.644ZM163.858 122.376L162.951 130.088C162.914 130.319 162.891 130.539 162.87 130.759C162.778 131.704 162.675 132.775 161.466 133.323L160.031 133.908C159.811 133.999 159.798 134.201 159.8 134.261C159.802 134.321 159.824 134.521 160.048 134.601C161.775 135.204 164.403 135.925 167.114 135.934C167.124 135.934 167.134 135.934 167.145 135.934C169.772 135.934 172.057 134.934 173.514 134.093C173.711 133.978 173.702 133.782 173.695 133.726C173.687 133.667 173.645 133.472 173.42 133.412L173.182 133.347C171.941 133.012 171.198 131.55 171.033 130.334L169.931 119.447L163.856 122.376H163.858Z" fill="black"/>
<path d="M156.118 108.187C158.345 107.508 156.076 110.523 163.832 106.055C166.92 104.276 166.19 108.569 166.993 108.11C169.956 106.413 169.854 106.468 171.512 106.499C172.609 106.52 173.747 108.257 173.901 109.724C174.105 111.66 172.677 112.52 172.279 116.813C171.999 119.828 172.65 121.46 171.635 122.136C170.609 122.821 169.404 121.51 168.226 122.172C166.701 123.029 167.721 125.784 166.415 127.346C165.593 128.331 163.338 129.242 159.144 128.33C158.465 128.181 157.984 127.568 158.002 126.871C158.026 125.978 158.063 124.849 158.189 123.773C158.788 118.651 160.2 117.182 159.295 116.111C157.908 114.473 154.643 116.398 153.683 115.008C152.686 113.565 153.068 109.117 156.118 108.187Z" fill="black"/>
<path d="M165.957 112.957L165.607 114.321C165.442 114.963 165.322 115.615 165.246 116.275C165.106 117.512 164.848 119.636 164.612 120.815C164.267 122.546 158.84 121.852 158.84 121.852L158.306 120.964L157.672 120.868C157.549 120.85 157.429 120.807 157.332 120.729C157.089 120.535 157.01 120.22 157.11 119.95C157.659 118.468 158.756 115.173 158.772 112.451C158.772 112.451 162.22 110.607 165.957 112.959V112.957Z" fill="white"/>
<path d="M161.148 122.358C160.107 122.358 159.165 122.253 158.795 122.204C158.686 122.19 158.591 122.128 158.534 122.034L158.088 121.29L157.62 121.221C157.426 121.192 157.249 121.117 157.112 121.007C156.755 120.724 156.619 120.249 156.778 119.825C157.265 118.51 158.402 115.159 158.418 112.448C158.418 112.317 158.491 112.197 158.605 112.135C158.754 112.056 162.281 110.222 166.148 112.655C166.279 112.737 166.342 112.896 166.303 113.044L165.952 114.408C165.792 115.034 165.674 115.675 165.601 116.313C165.434 117.772 165.188 119.747 164.962 120.883C164.722 122.086 162.809 122.356 161.148 122.356V122.358ZM159.057 121.519C161.163 121.764 164.075 121.688 164.262 120.745C164.495 119.576 164.756 117.418 164.892 116.234C164.968 115.563 165.093 114.89 165.261 114.232L165.546 113.124C162.56 111.374 159.852 112.352 159.127 112.676C159.057 115.348 158.052 118.44 157.447 120.072C157.396 120.207 157.44 120.359 157.555 120.449C157.595 120.482 157.655 120.504 157.727 120.516L158.361 120.611C158.466 120.627 158.559 120.689 158.614 120.779L159.057 121.519Z" fill="black"/>
<path d="M166.099 117.392C166.099 117.392 166.938 114.112 168.344 114.819C169.752 115.526 168.739 119.112 166.099 117.392Z" fill="white"/>
</g>
<defs>
<clipPath id="clip0_160_368">
<rect width="285" height="296" fill="white"/>
</clipPath>
</defs>
</svg>
