<svg width="24" height="24" viewBox="0 0 24 24" fill="none" xmlns="http://www.w3.org/2000/svg">
<path d="M11 23.0033C11 23.5563 10.553 24.0033 10 24.0033C7.315 24.0033 4.79 22.9573 2.891 21.0593C0.992 19.1603 0 16.6353 0 13.9503C0 11.4133 1.878 7.4613 5.688 2.2033C6.706 0.784296 8.377 -0.059704 10.032 0.00329602H10.035C11.724 0.00329602 13.324 0.826296 14.311 2.2033C15.716 4.1423 16.883 5.9303 17.774 7.5133C18.045 7.9943 17.875 8.6043 17.393 8.8753C16.914 9.1463 16.303 8.9763 16.032 8.4943C15.178 6.9773 14.053 5.2543 12.689 3.3723C12.073 2.5133 11.08 2.0033 10.028 2.0033C8.973 1.9613 7.945 2.4893 7.311 3.3733C2.642 9.8143 2 12.7643 2 13.9493C2 16.1003 2.783 18.1233 4.305 19.6443C5.826 21.1653 7.85 22.0023 10 22.0023C10.553 22.0023 11 22.4503 11 23.0033ZM24 15.8043V19.0363C24 20.0843 23.442 21.0703 22.544 21.6083L19.544 23.4093C18.591 23.9793 17.409 23.9813 16.457 23.4093L13.456 21.6083C12.558 21.0703 12 20.0843 12 19.0363V15.8043C12 14.7563 12.558 13.7703 13.456 13.2323L16.456 11.4323C17.41 10.8603 18.593 10.8623 19.543 11.4323L22.544 13.2323C23.442 13.7703 24 14.7563 24 15.8043ZM17 18.2383L14 16.4383V19.0353C14 19.3853 14.186 19.7133 14.485 19.8923L17 21.4013V18.2373V18.2383ZM18 16.5063L21.057 14.6723L18.515 13.1473C18.197 12.9573 17.803 12.9573 17.485 13.1473L14.944 14.6723L18 16.5063ZM22 16.4383L19 18.2383V21.4033L21.515 19.8933C21.815 19.7133 22 19.3853 22 19.0363V16.4393V16.4383Z" fill="black"/>
</svg>
