<svg width="22" height="22" viewBox="0 0 22 22" fill="none" xmlns="http://www.w3.org/2000/svg">
<path d="M12.9998 3.99989C12.4998 4.49989 11.4968 4.41189 9.99978 3.17589M9.99978 3.17589C10.2211 2.99456 10.4508 2.78589 10.6888 2.54989C12.9948 0.265894 16.1348 0.712894 17.6058 2.54989C18.2318 3.33189 19.4588 4.83089 18.8208 8.49989M9.99978 3.17589C9.77845 2.99456 9.54878 2.78589 9.31078 2.54989C7.00478 0.265894 3.86478 0.712894 2.39378 2.54989C1.37778 3.81989 -1.22222 6.97989 5.14178 18.2399C5.40578 18.7059 5.93078 18.9999 6.49578 18.9999C7.39778 18.9999 8.10278 18.2799 8.13178 17.4399C8.17778 16.1369 8.42978 14.6849 9.13278 13.9999M14.9998 15.9999L15.6838 16.6839C15.8308 16.8309 15.9048 16.9049 15.9938 16.8999C16.0838 16.8949 16.1488 16.8139 16.2788 16.6509L17.9998 14.4999M11.9998 14.4539V14.8399C11.9998 16.0419 11.9998 16.6429 12.1478 17.1929C12.3327 17.8751 12.6807 18.5021 13.1618 19.0199C13.5518 19.4419 14.0678 19.7699 15.0988 20.4269C15.5598 20.7209 15.7908 20.8679 16.0368 20.9369C16.3398 21.0209 16.6608 21.0209 16.9638 20.9369C17.2088 20.8679 17.4398 20.7209 17.9008 20.4269C18.9318 19.7699 19.4478 19.4419 19.8378 19.0199C20.3189 18.5021 20.6669 17.8751 20.8518 17.1929C20.9998 16.6429 20.9998 16.0429 20.9998 14.8399V14.4539C20.9998 13.7059 20.9998 13.3319 20.8578 13.0159C20.7687 12.8208 20.6435 12.6444 20.4888 12.4959C20.2358 12.2559 19.8768 12.1239 19.1588 11.8609L17.6848 11.3209C17.0988 11.1069 16.8058 10.9999 16.4998 10.9999C16.1938 10.9999 15.9008 11.1069 15.3148 11.3219L13.8408 11.8619C13.1228 12.1239 12.7638 12.2549 12.5108 12.4959C12.3557 12.6443 12.2302 12.8208 12.1408 13.0159C11.9998 13.3319 11.9998 13.7059 11.9998 14.4539Z" stroke="black" stroke-width="1.7" stroke-linecap="round" stroke-linejoin="round"/>
</svg>
