<svg width="24" height="23" viewBox="0 0 24 23" fill="none" xmlns="http://www.w3.org/2000/svg">
<path d="M22.9372 6.52713L20.7557 4.43186L21.7025 3.52292C21.798 3.43438 21.8741 3.32847 21.9265 3.21137C21.9789 3.09427 22.0065 2.96832 22.0077 2.84088C22.0088 2.71344 21.9835 2.58705 21.9332 2.46909C21.883 2.35113 21.8087 2.24397 21.7149 2.15385C21.621 2.06373 21.5094 1.99246 21.3865 1.9442C21.2636 1.89594 21.132 1.87166 20.9992 1.87276C20.8665 1.87387 20.7353 1.90035 20.6133 1.95065C20.4913 2.00095 20.381 2.07407 20.2888 2.16575L19.342 3.07469L17.1594 0.980379C16.4715 0.351052 15.5577 0 14.6075 0C13.6572 0 12.7434 0.351052 12.0555 0.980379C11.7202 1.30207 11.4541 1.68407 11.2726 2.10452C11.0911 2.52497 10.9977 2.97564 10.9977 3.43078C10.9977 3.88591 11.0911 4.33659 11.2726 4.75704C11.4541 5.17749 11.7202 5.55948 12.0555 5.88118L14.2371 7.97549L8.34432 13.6326L6.16179 11.5383C5.47387 10.909 4.56007 10.5579 3.60983 10.5579C2.65959 10.5579 1.74579 10.909 1.05788 11.5383C0.722508 11.86 0.456461 12.242 0.274945 12.6624C0.0934282 13.0829 0 13.5336 0 13.9887C0 14.4438 0.0934282 14.8945 0.274945 15.315C0.456461 15.7354 0.722508 16.1174 1.05788 16.4391L3.23941 18.5334L2.29261 19.4424C2.19712 19.5309 2.12096 19.6368 2.06856 19.7539C2.01616 19.871 1.98858 19.997 1.98743 20.1244C1.98628 20.2518 2.01157 20.3782 2.06184 20.4962C2.11211 20.6141 2.18635 20.7213 2.28022 20.8114C2.37409 20.9015 2.48572 20.9728 2.60859 21.0211C2.73146 21.0693 2.86311 21.0936 2.99587 21.0925C3.12862 21.0914 3.25981 21.0649 3.38179 21.0146C3.50376 20.9643 3.61409 20.8912 3.70631 20.7995L4.65311 19.8906L6.83564 21.9849C7.17072 22.3067 7.56856 22.562 8.00643 22.7362C8.4443 22.9104 8.91363 23 9.3876 23C9.86157 23 10.3309 22.9104 10.7688 22.7362C11.2066 22.562 11.6045 22.3067 11.9396 21.9849C12.2749 21.6633 12.5409 21.2814 12.7224 20.861C12.9039 20.4406 12.9973 19.99 12.9973 19.535C12.9973 19.0799 12.9039 18.6293 12.7224 18.209C12.5409 17.7886 12.2749 17.4067 11.9396 17.0851L9.75802 14.9908L15.6568 9.33266L17.8383 11.427C18.1734 11.7488 18.5712 12.0041 19.0091 12.1782C19.447 12.3524 19.9163 12.4421 20.3903 12.4421C20.8642 12.4421 21.3335 12.3524 21.7714 12.1782C22.2093 12.0041 22.6071 11.7488 22.9422 11.427C23.2775 11.1054 23.5436 10.7234 23.7251 10.3031C23.9066 9.8827 24 9.43211 24 8.97705C24 8.52199 23.9066 8.0714 23.7251 7.65103C23.5436 7.23066 23.2775 6.84875 22.9422 6.52713H22.9372ZM10.9978 19.5355C10.9982 19.7384 10.9567 19.9395 10.8757 20.1269C10.7947 20.3144 10.6758 20.4846 10.5259 20.6277C10.2194 20.9092 9.81168 21.0662 9.3876 21.0662C8.96352 21.0662 8.55579 20.9092 8.24934 20.6277L2.47158 15.081C2.16969 14.7912 2.00009 14.3981 2.00009 13.9882C2.00009 13.5784 2.16969 13.1853 2.47158 12.8955C2.77346 12.6057 3.1829 12.4429 3.60983 12.4429C4.03676 12.4429 4.44621 12.6057 4.74809 12.8955L10.5259 18.4422C10.6759 18.5854 10.7949 18.7558 10.8759 18.9435C10.9569 19.1311 10.9983 19.3323 10.9978 19.5355ZM21.5235 10.0698C21.2171 10.3512 20.8093 10.5083 20.3853 10.5083C19.9612 10.5083 19.5534 10.3512 19.247 10.0698L13.4692 4.52304C13.3198 4.37954 13.2012 4.20918 13.1203 4.02169C13.0394 3.83419 12.9977 3.63324 12.9977 3.4303C12.9977 3.02044 13.1673 2.62737 13.4692 2.33755C13.7711 2.04774 14.1806 1.88492 14.6075 1.88492C15.0344 1.88492 15.4439 2.04774 15.7457 2.33755L21.5235 7.88431C21.6731 8.02774 21.7918 8.19808 21.8728 8.38558C21.9538 8.57308 21.9954 8.77407 21.9954 8.97705C21.9954 9.18003 21.9538 9.38102 21.8728 9.56852C21.7918 9.75603 21.6731 9.92636 21.5235 10.0698Z" fill="black"/>
</svg>
