<svg width="24" height="24" viewBox="0 0 24 24" fill="none" xmlns="http://www.w3.org/2000/svg">
<path d="M21.954 10.933C21.42 10.166 20.756 9.21202 20.756 8.53802C20.756 7.86102 20.568 6.88702 20.393 6.31202C19.349 2.91402 16.168 1.02702 11.424 0.999023C4.918 1.03902 1.119 4.76302 1 11.253C1.07 15.296 3.155 17.459 4.716 18.733C5.238 19.16 5.564 19.705 5.633 20.266C5.767 21.365 5.936 21.825 5.985 21.939C6.113 22.241 6.381 22.46 6.703 22.527C6.796 22.546 9.016 22.999 11.148 22.999C13.237 22.999 15.444 22.546 15.537 22.526C15.72 22.488 15.889 22.4 16.024 22.271C16.263 22.043 16.548 21.55 16.693 20.488C18.525 20.409 21.391 19.925 21.391 16.935V15.313C21.903 14.969 22.614 14.39 22.898 13.68C23.252 12.797 22.65 11.933 21.954 10.933ZM19.921 13.87C19.595 14.044 19.392 14.383 19.392 14.752V16.936C19.392 17.561 19.392 18.504 15.775 18.504C15.239 18.504 14.798 18.926 14.776 19.462C14.751 20.055 14.686 20.435 14.63 20.663C13.898 20.789 12.476 21.001 11.148 21.001C9.855 21.001 8.483 20.808 7.717 20.68C7.686 20.512 7.652 20.296 7.619 20.026C7.487 18.949 6.906 17.941 5.982 17.186C4.623 16.077 3.056 14.396 3.001 11.256C3.125 4.47402 7.657 3.02402 11.424 3.00102C14.102 3.01702 17.499 3.70602 18.481 6.90102C18.611 7.32502 18.756 8.10302 18.756 8.54002C18.756 9.84102 19.619 11.081 20.313 12.077C20.528 12.385 20.834 12.825 20.956 13.075C20.757 13.324 20.295 13.67 19.922 13.871L19.921 13.87Z" fill="black"/>
<path d="M14 10H12V8C12 7.448 11.552 7 11 7C10.448 7 10 7.448 10 8V10H8C7.448 10 7 10.448 7 11C7 11.552 7.448 12 8 12H10V14C10 14.552 10.448 15 11 15C11.552 15 12 14.552 12 14V12H14C14.553 12 15 11.552 15 11C15 10.448 14.553 10 14 10Z" fill="black"/>
</svg>
