<svg width="20" height="20" viewBox="0 0 20 20" fill="none" xmlns="http://www.w3.org/2000/svg">
<path d="M19.3271 9.67084C18.8844 9.07978 18.2555 8.65514 17.5418 8.4655C17.8897 7.45441 18.1467 6.41434 18.3099 5.35762C18.3632 4.9735 18.3266 4.58224 18.203 4.21466C18.0794 3.84707 17.8722 3.51319 17.5976 3.2393C17.3231 2.9654 16.9887 2.75897 16.6208 2.63626C16.2529 2.51354 15.8615 2.47789 15.4775 2.53211C15.3725 2.54627 15.0609 2.59209 14.6352 2.67455C14.8988 2.09101 15.0237 1.45436 15.0001 0.814485C14.9966 0.705095 14.9716 0.597466 14.9265 0.497742C14.8814 0.398019 14.8171 0.308154 14.7373 0.233279C14.6574 0.158404 14.5636 0.0999846 14.4612 0.061357C14.3588 0.0227293 14.2498 0.00464955 14.1404 0.00815003C14.031 0.0116505 13.9234 0.0366626 13.8236 0.0817584C13.7239 0.126854 13.634 0.19115 13.5591 0.270976C13.4843 0.350801 13.4258 0.444593 13.3872 0.546996C13.3486 0.649398 13.3305 0.758406 13.334 0.867796C13.3482 1.27019 13.2656 1.67011 13.0932 2.03398C12.9728 1.70883 12.8009 1.4051 12.5842 1.13435C12.216 0.715273 11.7485 0.3952 11.2246 0.203406C10.7007 0.0116115 10.137 -0.0457828 9.58521 0.0364717C8.98013 0.0850359 8.40179 0.306524 7.91908 0.674543C7.37337 0.264039 6.71318 0.0339978 6.03052 0.0164799C5.16429 -0.0674685 4.30008 0.195214 3.62713 0.747013C3.28543 1.0512 3.00954 1.42203 2.81643 1.83674C2.62331 2.25144 2.51705 2.70125 2.50416 3.15852C2.4813 3.89073 2.6945 4.61089 3.11229 5.21268C2.60404 5.64841 2.20951 6.20131 1.96277 6.82362C1.71603 7.44593 1.6245 8.11894 1.69608 8.78454C1.03726 9.15164 0.523832 9.73303 0.241062 10.4322C-0.0417091 11.1313 -0.0768105 11.9061 0.141586 12.628C0.712243 14.6134 1.77437 16.4229 3.22976 17.8891C4.62598 19.2504 6.50132 20.0085 8.4514 19.9999H11.5521C13.5019 20.0087 15.3771 19.2505 16.7729 17.8891C18.2288 16.4232 19.2913 14.6136 19.8619 12.628C20.0106 12.1276 20.0397 11.5993 19.9468 11.0857C19.8539 10.572 19.6416 10.0874 19.3271 9.67084ZM15.7091 4.18143C15.838 4.16404 15.9692 4.17668 16.0924 4.21838C16.2156 4.26007 16.3275 4.32969 16.4194 4.42179C16.5113 4.51389 16.5806 4.62598 16.622 4.7493C16.6634 4.87263 16.6757 5.00384 16.6579 5.13271C16.4832 6.22658 16.2 7.30033 15.8124 8.33806H13.6789L14.756 7.261C14.9078 7.10389 14.9918 6.89348 14.9899 6.67507C14.988 6.45667 14.9003 6.24774 14.7459 6.0933C14.5914 5.93885 14.3825 5.85125 14.1641 5.84935C13.9456 5.84745 13.7352 5.93141 13.5781 6.08315L11.323 8.33806H10.0326C9.97172 7.89994 10.0135 7.45369 10.1546 7.03448C10.2957 6.61527 10.5323 6.23456 10.8456 5.92238C11.2014 5.56336 12.5651 4.5896 15.7091 4.18143ZM4.17029 3.21433C4.17529 2.98501 4.227 2.75911 4.32225 2.55044C4.4175 2.34176 4.55429 2.1547 4.72427 2.00066C5.06798 1.74664 5.49495 1.6318 5.91972 1.67913C6.12489 1.67069 6.32952 1.70574 6.52019 1.78197C6.71085 1.8582 6.88324 1.97389 7.02603 2.12145C7.13844 2.24703 7.27608 2.34748 7.42997 2.41624C7.58386 2.485 7.75052 2.52051 7.91908 2.52045C8.08724 2.51962 8.25334 2.48345 8.40662 2.41428C8.5599 2.34511 8.69692 2.24449 8.80879 2.11895C8.93303 1.98753 9.08213 1.88208 9.24745 1.80873C9.41276 1.73537 9.59099 1.69557 9.77181 1.69162C10.0472 1.64258 10.3304 1.66256 10.5962 1.74978C10.8619 1.837 11.1019 1.98874 11.2947 2.19142C11.5476 2.51516 11.6795 2.91699 11.6679 3.32762C11.6679 3.38176 11.6679 3.50005 11.6679 3.50005C10.562 3.89824 9.61728 4.64825 8.97873 5.635C8.45269 5.01232 7.75278 4.56078 6.96858 4.33819C6.18438 4.11559 5.3516 4.13207 4.57682 4.38552C4.30036 4.05926 4.15542 3.64169 4.17029 3.21433ZM3.33722 8.33806C3.33722 7.67529 3.60053 7.03966 4.06922 6.57102C4.53791 6.10237 5.17359 5.83908 5.83642 5.83908C6.49924 5.83908 7.13492 6.10237 7.60361 6.57102C8.0723 7.03966 8.33561 7.67529 8.33561 8.33806H3.33722ZM18.2624 12.1606C17.7647 13.8742 16.8486 15.4372 15.5966 16.7088C14.5141 17.7604 13.0613 18.3442 11.5521 18.3339H8.4514C6.94171 18.3438 5.48858 17.7602 4.40521 16.7088C3.15319 15.4372 2.23709 13.8743 1.7394 12.1606C1.66472 11.9085 1.65024 11.6423 1.69711 11.3834C1.74399 11.1246 1.85092 10.8804 2.00932 10.6704C2.16301 10.4631 2.36324 10.2948 2.59389 10.1791C2.82454 10.0633 3.07915 10.0034 3.33722 10.004H16.6663C16.9252 10.0026 17.1808 10.0622 17.4123 10.178C17.6439 10.2937 17.845 10.4625 17.9992 10.6704C18.1564 10.881 18.2622 11.1255 18.3079 11.3843C18.3536 11.6431 18.338 11.909 18.2624 12.1606Z" fill="black"/>
</svg>
