<svg width="20" height="22" viewBox="0 0 20 22" fill="none" xmlns="http://www.w3.org/2000/svg">
<path d="M18.193 11.9994C18.5932 12.682 18.8544 13.437 18.9616 14.221C19.0688 15.005 19.0199 15.8024 18.8176 16.5674C18.6153 17.3324 18.2638 18.0499 17.7831 18.6784C17.3025 19.307 16.7022 19.8343 16.017 20.2299C15.3317 20.6256 14.575 20.8818 13.7903 20.9838C13.0056 21.0858 12.2085 21.0315 11.4449 20.8242C10.6812 20.6169 9.96613 20.2606 9.34076 19.7758C8.71539 19.291 8.1921 18.6872 7.80101 17.9994M18.193 11.9994C17.3917 10.6325 16.0823 9.63811 14.5505 9.23314C13.0187 8.82816 11.389 9.04549 10.0168 9.83771C8.64472 10.6299 7.64164 11.9327 7.22651 13.4618C6.81138 14.9908 7.0179 16.622 7.80101 17.9994M18.193 11.9994L7.80101 17.9994" stroke="black" stroke-width="1.5"/>
<path d="M8.04301 4.5423L13.128 1.5373C15 0.431302 17.394 1.0873 18.475 3.0043C18.8881 3.73779 19.0642 4.5811 18.9792 5.41861C18.8941 6.25612 18.5521 7.04682 18 7.6823M8.04301 4.5423L2.95801 7.5473C1.08601 8.6533 0.444006 11.1033 1.52501 13.0193C1.82708 13.5627 2.2547 14.0261 2.77221 14.3707C3.28972 14.7153 3.88212 14.9311 4.50001 15.0003M8.04301 4.5423L9.50001 7.0003" stroke="black" stroke-width="1.5" stroke-linecap="round" stroke-linejoin="round"/>
</svg>
