<svg width="20" height="18" viewBox="0 0 20 18" fill="none" xmlns="http://www.w3.org/2000/svg">
<path d="M6 1H4L1 11V13.5M14 1H16L19 11V13.5M8 13H12" stroke="black" stroke-width="1.7" stroke-linecap="round" stroke-linejoin="round"/>
<path d="M12 13.5C12 14.4283 12.3687 15.3185 13.0251 15.9749C13.6815 16.6313 14.5717 17 15.5 17C16.4283 17 17.3185 16.6313 17.9749 15.9749C18.6313 15.3185 19 14.4283 19 13.5C19 12.5717 18.6313 11.6815 17.9749 11.0251C17.3185 10.3687 16.4283 10 15.5 10C14.5717 10 13.6815 10.3687 13.0251 11.0251C12.3687 11.6815 12 12.5717 12 13.5ZM1 13.5C1 13.9596 1.09053 14.4148 1.26642 14.8394C1.44231 15.264 1.70012 15.6499 2.02513 15.9749C2.35013 16.2999 2.73597 16.5577 3.16061 16.7336C3.58525 16.9095 4.04037 17 4.5 17C4.95963 17 5.41475 16.9095 5.83939 16.7336C6.26403 16.5577 6.64987 16.2999 6.97487 15.9749C7.29988 15.6499 7.55769 15.264 7.73358 14.8394C7.90947 14.4148 8 13.9596 8 13.5C8 13.0404 7.90947 12.5852 7.73358 12.1606C7.55769 11.736 7.29988 11.3501 6.97487 11.0251C6.64987 10.7001 6.26403 10.4423 5.83939 10.2664C5.41475 10.0905 4.95963 10 4.5 10C4.04037 10 3.58525 10.0905 3.16061 10.2664C2.73597 10.4423 2.35013 10.7001 2.02513 11.0251C1.70012 11.3501 1.44231 11.736 1.26642 12.1606C1.09053 12.5852 1 13.0404 1 13.5Z" stroke="black" stroke-width="1.7" stroke-linecap="round" stroke-linejoin="round"/>
</svg>
