<svg width="21" height="21" viewBox="0 0 21 21" fill="none" xmlns="http://www.w3.org/2000/svg">
<path d="M20 3C20 3.53043 19.7893 4.03914 19.4142 4.41421C19.0391 4.78929 18.5304 5 18 5C17.4696 5 16.9609 4.78929 16.5858 4.41421C16.2107 4.03914 16 3.53043 16 3C16 2.46957 16.2107 1.96086 16.5858 1.58579C16.9609 1.21071 17.4696 1 18 1C18.5304 1 19.0391 1.21071 19.4142 1.58579C19.7893 1.96086 20 2.46957 20 3Z" stroke="black" stroke-width="1.5"/>
<path d="M18.971 7.906C19 8.79 19 9.812 19 11C19 15.243 19 17.364 17.682 18.682C16.364 20 14.242 20 10 20C5.758 20 3.636 20 2.318 18.682C1 17.364 1 15.242 1 11C1 6.758 1 4.636 2.318 3.318C3.636 2 5.758 2 10 2C11.188 2 12.21 2 13.094 2.029" stroke="black" stroke-width="1.5" stroke-linecap="round" stroke-linejoin="round"/>
<path d="M4 11H6.5L8.5 7L11.5 15L13.5 11H16" stroke="black" stroke-width="1.5" stroke-linecap="round" stroke-linejoin="round"/>
</svg>
