<svg width="14" height="18" viewBox="0 0 14 18" fill="none" xmlns="http://www.w3.org/2000/svg">
<g clip-path="url(#clip0_52_1126)">
<path d="M8.56775 0.0558098C7.83209 -0.0161473 5.84629 -0.0345193 5.15871 0.100719C4.47113 0.235958 4.07632 0.642694 3.7344 1.18467L0.945621 1.19488C0.385193 1.27041 0.0480824 1.62917 0 2.16349V17.0265C0.0512877 17.5955 0.423124 17.9517 1.01988 18.0007H12.9801C13.5795 17.9512 13.9845 17.5695 14 16.9887V2.20125C13.9979 1.769 13.7345 1.40615 13.3178 1.24846C12.3144 1.11628 11.2791 1.23213 10.2651 1.18467C9.87346 0.543689 9.36753 0.133891 8.56722 0.0558098H8.56775ZM9.59939 1.70623C9.62984 1.89352 9.57695 2.14155 9.59939 2.33649H4.40061V1.70623C4.40061 1.3689 4.98454 0.839683 5.34997 0.817739C6.37092 0.859076 7.49178 0.731492 8.50151 0.807022C9.0021 0.844276 9.51979 1.21886 9.59939 1.70623ZM10.3992 1.95425H13.0587C13.0741 1.95425 13.1489 1.99865 13.1618 2.01856L13.2002 16.9877L13.1489 17.1872L12.9 17.2362H1.05942L0.838237 17.1709L0.805113 2.12828L0.851059 2.00171L1.02095 1.95425H3.60084V2.77538C3.60084 2.91164 3.86583 3.12088 4.02076 3.09995C5.94032 3.00299 7.99771 3.22856 9.90124 3.10148C10.0888 3.08873 10.3997 2.99227 10.3997 2.77538V1.95425H10.3992Z" fill="black" stroke="black" stroke-width="0.25"/>
<path d="M7.12956 4.18026C6.76413 4.13178 6.50074 4.26396 6.28651 4.53903C5.8324 5.49845 5.08231 6.45329 4.64637 7.40353C4.08434 8.62782 4.61485 10.1052 5.90613 10.659C7.91277 11.5194 9.99367 9.87202 9.5075 7.82966C9.35577 7.19276 8.25095 5.38822 7.84652 4.75592C7.66755 4.47626 7.50406 4.23027 7.12956 4.18077V4.18026ZM7.03927 4.89575L8.68689 7.81078C9.32212 9.46681 7.28876 10.8488 5.87941 9.76689C5.11383 9.1795 5.0369 8.33795 5.45896 7.53112C5.85484 6.77378 6.3768 5.86436 6.83251 5.13816C6.85549 5.10141 7.0008 4.87125 7.03873 4.89626L7.03927 4.89575Z" fill="black" stroke="black" stroke-width="0.25"/>
<path d="M10.21 12.3919L4.49089 12.4118C4.09501 12.7088 4.23125 13.0977 4.74092 13.1461C6.41472 13.3059 8.35672 13.0283 10.0588 13.1461C10.5669 13.1344 10.7106 12.5552 10.21 12.3914V12.3919Z" fill="black" stroke="black" stroke-width="0.25"/>
<path d="M10.1694 15.3718L4.81946 15.3621C4.30765 15.4151 4.28735 16.0668 4.81946 16.1281L10.0989 16.1271C10.6219 16.0704 10.67 15.4973 10.1694 15.3723V15.3718Z" fill="black" stroke="black" stroke-width="0.25"/>
<path d="M10.21 13.8816L6.62363 13.8765C6.1193 13.9448 6.14387 14.544 6.62256 14.6343L10.1358 14.6333C10.6027 14.5705 10.662 14.0081 10.21 13.8816Z" fill="black" stroke="black" stroke-width="0.25"/>
<path d="M6.09152 7.92141C5.54925 7.80455 5.5391 8.36897 5.65129 8.72417C5.86446 9.39832 6.65782 9.8122 7.37051 9.66165C7.73006 9.58561 7.83798 9.14315 7.51636 8.9676C7.27167 8.83389 7.00668 9.04925 6.68186 8.84767C6.26408 8.58791 6.4719 8.00358 6.09152 7.92141Z" fill="black" stroke="black" stroke-width="0.25"/>
</g>
<defs>
<clipPath id="clip0_52_1126">
<rect width="14" height="18" fill="white" transform="matrix(-1 0 0 1 14 0)"/>
</clipPath>
</defs>
</svg>
