<svg width="14" height="18" viewBox="0 0 14 18" fill="none" xmlns="http://www.w3.org/2000/svg">
<path d="M12.565 4.15142L10.1255 1.53756C9.2001 0.546023 7.9695 2.50693e-07 6.6605 2.50693e-07H3.5C1.5701 -0.000749781 0 1.68157 0 3.74941V14.2498C0 16.3177 1.5701 18 3.5 18H10.5C12.4299 18 14 16.3177 14 14.2498V7.86333C14 6.46077 13.4904 5.14371 12.565 4.15142ZM11.5752 5.21197C11.7978 5.45048 11.9861 5.71524 12.1387 5.9995H9.1C8.7143 5.9995 8.4 5.66274 8.4 5.24947V1.99358C8.6653 2.15709 8.9131 2.35885 9.135 2.59736L11.5745 5.21122L11.5752 5.21197ZM12.6 14.2498C12.6 15.4904 11.6578 16.4999 10.5 16.4999H3.5C2.3422 16.4999 1.4 15.4904 1.4 14.2498V3.74941C1.4 2.50885 2.3422 1.49931 3.5 1.49931H6.6605C6.7746 1.49931 6.888 1.50531 7 1.51656V5.24947C7 6.49002 7.9422 7.49956 9.1 7.49956H12.5839C12.5944 7.61957 12.6 7.74107 12.6 7.86333V14.2498ZM8.8067 10.6392C8.4924 10.3992 8.0549 10.4757 7.8302 10.814L7.1498 11.834L6.0256 10.1472C6.6108 9.74741 7 9.04613 7 8.24884C7 7.00829 6.0578 5.99875 4.9 5.99875H4.2C3.0422 5.99875 2.1 7.00829 2.1 8.24884V11.999C2.1 12.413 2.4136 12.749 2.8 12.749C3.1864 12.749 3.5 12.413 3.5 11.999V10.4989H4.5395L6.2895 13.124L5.3298 14.5634C5.1051 14.9001 5.1779 15.3689 5.4929 15.6097C5.6161 15.7034 5.7582 15.7492 5.8989 15.7492C6.1173 15.7492 6.3329 15.6397 6.4694 15.4349L7.1498 14.4149L7.8302 15.4349C7.9667 15.6397 8.1823 15.7492 8.4007 15.7492C8.5414 15.7492 8.6835 15.7034 8.8067 15.6097C9.1217 15.3689 9.1945 14.9001 8.9698 14.5634L8.0101 13.124L8.9698 11.6847C9.1945 11.348 9.1217 10.88 8.8067 10.6392ZM3.5 8.24959C3.5 7.83633 3.8143 7.49956 4.2 7.49956H4.9C5.2857 7.49956 5.6 7.83633 5.6 8.24959C5.6 8.66286 5.2878 8.99738 4.9042 8.99963C4.8958 8.99963 4.8881 8.99963 4.8797 8.99963H3.5V8.24959Z" fill="black"/>
</svg>
