<svg width="16" height="15" viewBox="0 0 16 15" fill="none" xmlns="http://www.w3.org/2000/svg">
<path d="M1.21143 6.85885C1.14471 6.718 1.0828 6.57492 1.02582 6.42985C0.791819 5.83077 0.649902 5.20135 0.649902 4.54991C0.649902 2.39588 2.41357 0.64991 4.58962 0.64991C5.95968 0.64991 7.16651 1.34252 7.87212 2.39335C8.23402 1.85554 8.72281 1.41514 9.29531 1.11107C9.86781 0.806997 10.5064 0.648612 11.1546 0.64991C13.331 0.64991 15.0943 2.39588 15.0943 4.54991C15.0943 7.35394 12.468 9.74991 11.1546 11.0499C10.2798 11.9166 9.1856 12.7832 7.87212 13.6499C6.55888 12.7832 5.46472 11.9166 4.58962 11.0499C4.4571 10.9192 4.31157 10.7769 4.15665 10.6245" stroke="black" stroke-width="1.3" stroke-linecap="round" stroke-linejoin="round"/>
<path d="M2.09448 9.30672L6.10787 5.3587L8.44209 7.76586L11.9391 4.19556" stroke="black" stroke-width="1.3" stroke-linecap="round" stroke-linejoin="round"/>
</svg>
