<svg width="14" height="14" viewBox="0 0 14 14" fill="none" xmlns="http://www.w3.org/2000/svg">
<path d="M7.84985 2.44985C7.54985 2.74985 6.94804 2.69705 6.04983 1.95545M6.04983 1.95545C6.18263 1.84665 6.32043 1.72144 6.46323 1.57984C7.84685 0.209437 9.73087 0.477638 10.6135 1.57984C10.9891 2.04905 11.7253 2.94845 11.3425 5.14986M6.04983 1.95545C5.91703 1.84665 5.77923 1.72144 5.63643 1.57984C4.25281 0.209437 2.36879 0.477638 1.48618 1.57984C0.876573 2.34185 -0.683445 4.23786 3.135 10.9939C3.2934 11.2735 3.6084 11.4499 3.94741 11.4499C4.48861 11.4499 4.91162 11.0179 4.92902 10.5139C4.95662 9.73209 5.10782 8.86088 5.52962 8.44988M9.04986 9.64989L9.46027 10.0603C9.54847 10.1485 9.59287 10.1929 9.64627 10.1899C9.70027 10.1869 9.73927 10.1383 9.81727 10.0405L10.8499 8.74988M7.24984 8.72228V8.95388C7.24984 9.67509 7.24984 10.0357 7.33864 10.3657C7.44959 10.775 7.65839 11.1512 7.94705 11.4619C8.18105 11.7151 8.49066 11.9119 9.10926 12.3061C9.38587 12.4825 9.52447 12.5707 9.67207 12.6121C9.85387 12.6625 10.0465 12.6625 10.2283 12.6121C10.3753 12.5707 10.5139 12.4825 10.7905 12.3061C11.4091 11.9119 11.7187 11.7151 11.9527 11.4619C12.2414 11.1512 12.4502 10.775 12.5611 10.3657C12.6499 10.0357 12.6499 9.67569 12.6499 8.95388V8.72228C12.6499 8.27348 12.6499 8.04908 12.5647 7.85948C12.5112 7.74244 12.4361 7.63658 12.3433 7.54747C12.1915 7.40347 11.9761 7.32427 11.5453 7.16647L10.6609 6.84247C10.3093 6.71407 10.1335 6.64987 9.94987 6.64987C9.76627 6.64987 9.59047 6.71407 9.23887 6.84307L8.35446 7.16707C7.92365 7.32427 7.70825 7.40287 7.55645 7.54747C7.46341 7.63653 7.38808 7.74239 7.33444 7.85948C7.24984 8.04908 7.24984 8.27348 7.24984 8.72228Z" stroke="black" stroke-width="1.3" stroke-linecap="round" stroke-linejoin="round"/>
</svg>
