<svg width="14" height="13" viewBox="0 0 14 13" fill="none" xmlns="http://www.w3.org/2000/svg">
<path d="M0.7 13C0.501667 13 0.335533 12.9343 0.2016 12.8029C0.0676667 12.6714 0.000466667 12.509 0 12.3155V6.83964C0 6.46317 0.1372 6.14101 0.4116 5.87314C0.686 5.60528 1.01547 5.47112 1.4 5.47067H4.2C4.29333 5.47067 4.38387 5.48778 4.4716 5.522C4.55933 5.55623 4.63493 5.60483 4.6984 5.6678C4.76187 5.73077 4.81157 5.8047 4.8475 5.88957C4.88343 5.97445 4.90093 6.06297 4.9 6.15515V6.83964C4.9 7.41004 5.10417 7.89488 5.5125 8.29417C5.92083 8.69345 6.41667 8.89309 7 8.89309C7.58333 8.89309 8.07917 8.69345 8.4875 8.29417C8.89583 7.89488 9.1 7.41004 9.1 6.83964V6.15515C9.1 6.06389 9.1175 5.97536 9.1525 5.88957C9.1875 5.80378 9.23697 5.72963 9.3009 5.66711C9.36483 5.6046 9.44067 5.55623 9.5284 5.522C9.61613 5.48778 9.70667 5.47067 9.8 5.47067H12.6C12.985 5.47067 13.3145 5.60483 13.5884 5.87314C13.8623 6.14146 13.9995 6.46363 14 6.83964V12.3155C14 12.5094 13.9328 12.6721 13.7984 12.8035C13.664 12.935 13.4979 13.0005 13.3 13H0.7ZM1.4 11.631H12.6V6.83964H10.5C10.5 7.78651 10.1586 8.59374 9.4759 9.26134C8.79317 9.92894 7.96787 10.2625 7 10.2621C6.03213 10.2616 5.20683 9.9278 4.5241 9.26066C3.84137 8.59351 3.5 7.78651 3.5 6.83964H1.4V11.631ZM7 7.52412C6.80167 7.52412 6.63553 7.45841 6.5016 7.32699C6.36767 7.19557 6.30047 7.03312 6.3 6.83964C6.3 5.59616 6.44583 4.36979 6.7375 3.16053C7.02917 1.95127 7.665 0.953068 8.645 0.165911C8.79667 0.0404218 8.96583 -0.0138806 9.1525 0.0030034C9.33917 0.0198874 9.49667 0.10271 9.625 0.251471C9.75333 0.400233 9.80887 0.56565 9.7916 0.747723C9.77433 0.929795 9.68963 1.0838 9.5375 1.20975C8.72083 1.88283 8.21053 2.72702 8.0066 3.74234C7.80267 4.75766 7.70047 5.79009 7.7 6.83964C7.7 7.03357 7.6328 7.19625 7.4984 7.32767C7.364 7.45909 7.19787 7.52458 7 7.52412ZM2.625 9.23533C2.77667 9.23533 2.9022 9.18673 3.0016 9.08954C3.101 8.99234 3.15047 8.86982 3.15 8.72197C3.14953 8.57412 3.09983 8.4516 3.0009 8.3544C2.90197 8.2572 2.77667 8.2086 2.625 8.2086C2.47333 8.2086 2.34803 8.2572 2.2491 8.3544C2.15017 8.4516 2.10047 8.57412 2.1 8.72197C2.09953 8.86982 2.14923 8.99257 2.2491 9.09022C2.34897 9.18787 2.47427 9.23624 2.625 9.23533ZM3.325 10.9465C3.47667 10.9465 3.6022 10.8979 3.7016 10.8007C3.801 10.7036 3.85047 10.581 3.85 10.4332C3.84953 10.2853 3.79983 10.1628 3.7009 10.0656C3.60197 9.96841 3.47667 9.91982 3.325 9.91982C3.17333 9.91982 3.04803 9.96841 2.9491 10.0656C2.85017 10.1628 2.80047 10.2853 2.8 10.4332C2.79953 10.581 2.84923 10.7038 2.9491 10.8014C3.04897 10.8991 3.17427 10.9475 3.325 10.9465ZM11.375 9.23533C11.5267 9.23533 11.6522 9.18673 11.7516 9.08954C11.851 8.99234 11.9005 8.86982 11.9 8.72197C11.8995 8.57412 11.8498 8.4516 11.7509 8.3544C11.652 8.2572 11.5267 8.2086 11.375 8.2086C11.2233 8.2086 11.098 8.2572 10.9991 8.3544C10.9002 8.4516 10.8505 8.57412 10.85 8.72197C10.8495 8.86982 10.8992 8.99257 10.9991 9.09022C11.099 9.18787 11.2243 9.23624 11.375 9.23533Z" fill="black"/>
</svg>
