<svg width="14" height="14" viewBox="0 0 14 14" fill="none" xmlns="http://www.w3.org/2000/svg">
<path d="M13.5289 6.76959C13.2191 6.35585 12.7788 6.0586 12.2793 5.92585C12.5228 5.21809 12.7027 4.49004 12.8169 3.75033C12.8542 3.48145 12.8286 3.20757 12.7421 2.95026C12.6556 2.69295 12.5105 2.45923 12.3184 2.26751C12.1262 2.07578 11.8921 1.93128 11.6345 1.84538C11.377 1.75948 11.103 1.73452 10.8342 1.77248C10.7608 1.78239 10.5427 1.81446 10.2447 1.87219C10.4292 1.4637 10.5166 1.01805 10.5001 0.570139C10.4976 0.493567 10.4801 0.418226 10.4486 0.34842C10.417 0.278613 10.372 0.215708 10.3161 0.163295C10.2602 0.110883 10.1945 0.0699893 10.1229 0.0429499C10.0512 0.0159105 9.97486 0.00325469 9.89828 0.00570502C9.8217 0.00815535 9.74636 0.0256638 9.67654 0.0572308C9.60673 0.0887979 9.54382 0.133805 9.4914 0.189683C9.43898 0.245561 9.39809 0.311215 9.37105 0.382897C9.344 0.454579 9.33135 0.530885 9.3338 0.607457C9.34374 0.88913 9.28595 1.16908 9.16527 1.42379C9.08093 1.19618 8.96063 0.983569 8.80897 0.794047C8.55118 0.500691 8.22395 0.27664 7.85721 0.142384C7.49047 0.00812807 7.09592 -0.0320479 6.70964 0.0255302C6.28609 0.0595252 5.88125 0.214567 5.54335 0.47218C5.16136 0.184828 4.69923 0.0237985 4.22136 0.011536C3.615 -0.0472279 3.01006 0.13665 2.53899 0.522909C2.2998 0.735837 2.10668 0.995423 1.9715 1.28571C1.83632 1.57601 1.76193 1.89087 1.75291 2.21096C1.73691 2.72351 1.88615 3.22763 2.17861 3.64887C1.82283 3.95389 1.54666 4.34092 1.37394 4.77653C1.20122 5.21215 1.13715 5.68326 1.18726 6.14918C0.726081 6.40615 0.366683 6.81312 0.168743 7.30252C-0.0291964 7.79191 -0.0537674 8.33428 0.0991104 8.83957C0.49857 10.2294 1.24206 11.496 2.26083 12.5224C3.23818 13.4753 4.55092 14.006 5.91598 13.9999H8.08645C9.45135 14.0061 10.7639 13.4754 11.741 12.5224C12.7602 11.4962 13.5039 10.2295 13.9033 8.83957C14.0074 8.48933 14.0278 8.11953 13.9628 7.75998C13.8977 7.40043 13.7491 7.06118 13.5289 6.76959ZM10.9963 2.927C11.0866 2.91483 11.1784 2.92368 11.2647 2.95286C11.3509 2.98205 11.4293 3.03078 11.4936 3.09525C11.5579 3.15972 11.6064 3.23819 11.6354 3.32451C11.6643 3.41084 11.673 3.50269 11.6605 3.5929C11.5382 4.35861 11.34 5.11023 11.0687 5.83664H9.57522L10.3292 5.0827C10.4355 4.97273 10.4942 4.82544 10.4929 4.67255C10.4916 4.51967 10.4302 4.37342 10.3221 4.26531C10.214 4.1572 10.0677 4.09587 9.91484 4.09455C9.76194 4.09322 9.61464 4.15199 9.50466 4.25821L7.92608 5.83664H7.02279C6.9802 5.52996 7.00944 5.21758 7.10821 4.92413C7.20698 4.63069 7.37258 4.36419 7.59194 4.14567C7.84095 3.89436 8.79555 3.21272 10.9963 2.927ZM2.9192 2.25003C2.92271 2.0895 2.9589 1.93138 3.02558 1.78531C3.09225 1.63924 3.18801 1.50829 3.30699 1.40046C3.54758 1.22265 3.84647 1.14226 4.14381 1.17539C4.28742 1.16949 4.43067 1.19402 4.56413 1.24738C4.6976 1.30074 4.81827 1.38172 4.91822 1.48501C4.99691 1.57292 5.09326 1.64324 5.20098 1.69137C5.3087 1.7395 5.42537 1.76435 5.54335 1.76431C5.66107 1.76373 5.77734 1.73841 5.88463 1.68999C5.99193 1.64158 6.08784 1.57114 6.16615 1.48326C6.25312 1.39127 6.35749 1.31746 6.47321 1.26611C6.58893 1.21476 6.7137 1.1869 6.84027 1.18414C7.03303 1.1498 7.23129 1.16379 7.41732 1.22485C7.60335 1.2859 7.77134 1.39212 7.90626 1.53399C8.08329 1.76061 8.17568 2.04189 8.16751 2.32933C8.16751 2.36723 8.16751 2.45003 8.16751 2.45003C7.39338 2.72877 6.73209 3.25377 6.28511 3.9445C5.91689 3.50862 5.42694 3.19255 4.87801 3.03673C4.32907 2.88091 3.74612 2.89245 3.20378 3.06986C3.01026 2.84148 2.9088 2.54919 2.9192 2.25003ZM2.33606 5.83664C2.33606 5.3727 2.52037 4.92776 2.84845 4.59971C3.17654 4.27166 3.62151 4.08736 4.08549 4.08736C4.54947 4.08736 4.99445 4.27166 5.32253 4.59971C5.65061 4.92776 5.83493 5.3727 5.83493 5.83664H2.33606ZM12.7837 8.51245C12.4353 9.71197 11.794 10.806 10.9176 11.6961C10.1599 12.4323 9.14294 12.8409 8.08645 12.8338H5.91598C4.8592 12.8407 3.84201 12.4321 3.08365 11.6961C2.20723 10.8061 1.56596 9.71199 1.21758 8.51245C1.1653 8.33592 1.15516 8.14958 1.18798 7.96841C1.22079 7.78724 1.29564 7.61629 1.40652 7.4693C1.51411 7.3242 1.65427 7.20639 1.81572 7.12536C1.97718 7.04434 2.15541 7.00237 2.33606 7.00283H11.6664C11.8476 7.00182 12.0265 7.04353 12.1886 7.12457C12.3507 7.20562 12.4915 7.32372 12.5994 7.4693C12.7095 7.61669 12.7835 7.78783 12.8155 7.96898C12.8475 8.15014 12.8366 8.33627 12.7837 8.51245Z" fill="black"/>
</svg>
