<svg width="11" height="11" viewBox="0 0 11 11" fill="none" xmlns="http://www.w3.org/2000/svg">
<path d="M2.22372 5.79199C1.57943 6.37064 0.866425 7.18441 0.5 8.10047L1.79165 8.47148L2.71153 10.0639C2.96879 8.96081 3.46728 7.98138 4.09784 7.23555M6.42769 7.23632C7.05825 7.98215 7.55521 8.96081 7.81247 10.0631L8.73235 8.47071L10.024 8.09971C9.65757 7.18441 8.94763 6.37217 8.30409 5.79428" stroke="#FF5224" stroke-linecap="round" stroke-linejoin="round"/>
<path d="M5.26043 7.37047C7.45898 7.37047 8.69567 6.13379 8.69567 3.93524C8.69567 1.73668 7.45898 0.5 5.26043 0.5C3.06188 0.5 1.8252 1.73668 1.8252 3.93524C1.8252 6.13379 3.06188 7.37047 5.26043 7.37047Z" stroke="#FF5224" stroke-linecap="round" stroke-linejoin="round"/>
<path d="M4.80697 2.40971C4.97491 1.9555 5.59707 1.94176 5.75662 2.39902C5.81845 2.57537 5.87189 2.76545 5.92609 2.99294C6.16656 2.99065 6.37038 2.99294 6.56352 3.00363C7.04903 3.02958 7.24369 3.61968 6.85131 3.90595C6.75948 3.97267 6.6658 4.03682 6.57039 4.09832C6.51199 4.13623 6.46752 4.19211 6.44369 4.25753C6.41987 4.32295 6.41798 4.39434 6.43832 4.46093C6.4971 4.64948 6.5452 4.81972 6.58337 4.98537C6.69482 5.45257 6.19557 5.81212 5.80929 5.52738C5.61999 5.38674 5.4402 5.23373 5.27111 5.06935C5.10343 5.22598 4.92706 5.37304 4.74284 5.50982C4.35352 5.79533 3.84281 5.43806 3.95656 4.96858C3.99795 4.79862 4.04583 4.63029 4.10007 4.46398C4.12159 4.39686 4.1204 4.32451 4.09666 4.25813C4.07293 4.19176 4.02798 4.13505 3.96877 4.09679C3.86622 4.03111 3.76567 3.96238 3.66723 3.89068C3.28096 3.60594 3.46952 3.02347 3.94968 2.99828C4.14969 2.98836 4.36191 2.98683 4.61688 2.99294C4.68177 2.77156 4.74284 2.58453 4.80773 2.40971H4.80697Z" stroke="#FF5224" stroke-linecap="round" stroke-linejoin="round"/>
</svg>
