<svg width="24" height="24" viewBox="0 0 24 24" fill="none" xmlns="http://www.w3.org/2000/svg">
<path d="M4 6.101V5C4 2.243 6.243 0 9 0H15C17.757 0 20 2.243 20 5V6.101C22.279 6.566 24 8.586 24 11V19C24 21.757 21.757 24 19 24H5C2.243 24 0 21.757 0 19V11C0 8.586 1.721 6.565 4 6.101ZM22 19V11C22 9.696 21.164 8.585 20 8.172V21.828C21.164 21.415 22 20.304 22 19ZM18 5C18 3.346 16.654 2 15 2H9C7.346 2 6 3.346 6 5V22H18V5ZM2 19C2 20.304 2.836 21.415 4 21.828V8.172C2.836 8.585 2 9.696 2 11V19ZM13 14C13 14.552 13.447 15 14 15H15C15.553 15 16 14.552 16 14C16 13.448 15.553 13 15 13H14C13.447 13 13 13.448 13 14ZM8 14C8 14.552 8.447 15 9 15H10C10.553 15 11 14.552 11 14C11 13.448 10.553 13 10 13H9C8.447 13 8 13.448 8 14ZM13 18C13 18.552 13.447 19 14 19H15C15.553 19 16 18.552 16 18C16 17.448 15.553 17 15 17H14C13.447 17 13 17.448 13 18ZM8 18C8 18.552 8.447 19 9 19H10C10.553 19 11 18.552 11 18C11 17.448 10.553 17 10 17H9C8.447 17 8 17.448 8 18ZM11 9C11 9.552 11.447 10 12 10C12.553 10 13 9.552 13 9V8H14C14.553 8 15 7.552 15 7C15 6.448 14.553 6 14 6H13V5C13 4.448 12.553 4 12 4C11.447 4 11 4.448 11 5V6H10C9.447 6 9 6.448 9 7C9 7.552 9.447 8 10 8H11V9Z" fill="black"/>
</svg>
