<svg width="16" height="14" viewBox="0 0 16 14" fill="none" xmlns="http://www.w3.org/2000/svg">
<path d="M8.26454 0.5C8.26454 0.367392 8.21187 0.240215 8.1181 0.146447C8.02433 0.0526784 7.89715 0 7.76454 0C7.63194 0 7.50476 0.0526784 7.41099 0.146447C7.31722 0.240215 7.26454 0.367392 7.26454 0.5V5.743L6.76454 6.1V3.72C6.76454 2.77 5.99454 2 5.04454 2C4.52054 2 4.02154 2.27 3.60154 2.592C3.17054 2.924 2.75454 3.365 2.38554 3.821C1.64954 4.729 1.03854 5.767 0.805544 6.301C0.629544 6.706 0.412544 7.461 0.249544 8.312C0.0845439 9.169 -0.0334561 10.169 0.00854385 11.071C0.0485439 11.938 0.241544 12.861 0.846544 13.401C1.51654 14.001 2.46854 13.957 3.58754 13.397L5.38254 12.5C5.7978 12.2924 6.14705 11.9732 6.39114 11.5783C6.63523 11.1834 6.76453 10.7283 6.76454 10.264V9.5C6.76454 9.36739 6.71187 9.24021 6.6181 9.14645C6.52433 9.05268 6.39715 9 6.26454 9C6.13194 9 6.00476 9.05268 5.91099 9.14645C5.81722 9.24021 5.76454 9.36739 5.76454 9.5V10.264C5.76453 10.5427 5.68687 10.8159 5.54027 11.053C5.39366 11.29 5.18391 11.4815 4.93454 11.606L3.14054 12.503C2.16254 12.992 1.72554 12.846 1.51254 12.655C1.23254 12.405 1.04554 11.854 1.00754 11.025C0.970544 10.23 1.07554 9.315 1.23154 8.5C1.38854 7.68 1.58854 7.009 1.72254 6.7C1.91254 6.262 2.47254 5.3 3.16254 4.45C3.50454 4.028 3.86554 3.651 4.21154 3.385C4.56954 3.109 4.85054 3 5.04454 3C5.2355 3 5.41863 3.07586 5.55366 3.21088C5.68869 3.34591 5.76454 3.52904 5.76454 3.72V6.814L3.97454 8.094C3.87416 8.17369 3.80821 8.28889 3.79032 8.4158C3.77242 8.54271 3.80395 8.67165 3.87839 8.77599C3.95282 8.88033 4.06448 8.9521 4.19031 8.97648C4.31614 9.00086 4.44653 8.97599 4.55454 8.907L7.76454 6.614L10.9745 8.907C11.0278 8.94759 11.0888 8.97705 11.1537 8.99363C11.2186 9.01021 11.2862 9.01359 11.3524 9.00354C11.4186 8.9935 11.4822 8.97025 11.5393 8.93517C11.5963 8.90009 11.6458 8.8539 11.6847 8.79934C11.7235 8.74478 11.751 8.68296 11.7656 8.61756C11.7801 8.55216 11.7813 8.4845 11.7692 8.41862C11.757 8.35273 11.7318 8.28996 11.6949 8.23402C11.658 8.17808 11.6103 8.13013 11.5545 8.093L9.76454 6.814V3.72C9.76454 3.52904 9.8404 3.34591 9.97543 3.21088C10.1105 3.07586 10.2936 3 10.4845 3C10.6785 3 10.9595 3.11 11.3175 3.385C11.6635 3.651 12.0235 4.028 12.3675 4.451C13.0555 5.301 13.6155 6.262 13.8065 6.7C13.9405 7.009 14.1405 7.68 14.2975 8.5C14.4535 9.314 14.5575 10.23 14.5215 11.025C14.4835 11.854 14.2975 12.405 14.0165 12.655C13.8035 12.845 13.3665 12.992 12.3885 12.503L10.5935 11.606C10.3444 11.4814 10.1348 11.2898 9.9884 11.0528C9.84197 10.8157 9.76446 10.5426 9.76454 10.264V9.5C9.76454 9.36739 9.71187 9.24021 9.6181 9.14645C9.52433 9.05268 9.39715 9 9.26454 9C9.13194 9 9.00476 9.05268 8.91099 9.14645C8.81722 9.24021 8.76454 9.36739 8.76454 9.5V10.264C8.76456 10.7283 8.89386 11.1834 9.13795 11.5783C9.38204 11.9732 9.73128 12.2924 10.1465 12.5L11.9415 13.397C13.0615 13.957 14.0115 14 14.6825 13.401C15.2875 12.861 15.4805 11.938 15.5205 11.071C15.5625 10.169 15.4445 9.169 15.2805 8.312C15.1165 7.46 14.9005 6.706 14.7225 6.3C14.4905 5.767 13.8795 4.729 13.1435 3.821C12.7735 3.365 12.3585 2.924 11.9275 2.592C11.5075 2.27 11.0085 2 10.4845 2C9.53454 2 8.76454 2.77 8.76454 3.72V6.1L8.26454 5.743V0.5Z" fill="black"/>
</svg>
