<svg width="16" height="16" viewBox="0 0 16 16" fill="none" xmlns="http://www.w3.org/2000/svg">
<g clip-path="url(#clip0_52_1248)">
<path d="M6.32866 7.99996C8.83 7.99996 9.99533 6.83463 9.99533 4.33329C9.99533 1.83196 8.83 0.666626 6.32866 0.666626C3.82733 0.666626 2.66199 1.83196 2.66199 4.33329C2.66199 6.83463 3.82733 7.99996 6.32866 7.99996ZM6.32866 1.99996C8.09466 1.99996 8.66199 2.56729 8.66199 4.33329C8.66199 6.09929 8.09466 6.66663 6.32866 6.66663C4.56266 6.66663 3.99533 6.09929 3.99533 4.33329C3.99533 2.56729 4.56266 1.99996 6.32866 1.99996ZM6.66666 9.98662C6.67599 10.3546 6.38533 10.6613 6.01733 10.6706C3.16399 10.7453 2.07533 11.8333 1.99999 14.6846C1.98999 15.0466 1.69333 15.334 1.33399 15.334C1.32733 15.334 1.32133 15.334 1.31599 15.334C0.947995 15.324 0.657328 15.018 0.666661 14.65C0.761995 11.0706 2.40133 9.43263 5.98266 9.33863C6.34866 9.32796 6.65733 9.61929 6.66666 9.98729V9.98662ZM14.8867 12.4226L14.2687 12.066C14.3073 11.84 14.3327 11.6 14.3327 11.3333C14.3327 11.0666 14.3073 10.8266 14.2687 10.6006L14.8867 10.244C15.206 10.06 15.3147 9.65196 15.1307 9.33329C14.946 9.01196 14.5327 8.90663 14.22 9.08929L13.7147 9.38063C13.3867 9.02796 12.9287 8.80529 12.3333 8.71529V7.99929C12.3333 7.63129 12.0347 7.33263 11.6667 7.33263C11.2987 7.33263 11 7.63129 11 7.99929V8.71529C10.4047 8.80529 9.94666 9.02796 9.61866 9.38063L9.11333 9.08929C8.80066 8.90663 8.38733 9.01129 8.20266 9.33329C8.01866 9.65196 8.12733 10.06 8.44666 10.244L9.06466 10.6006C9.026 10.8266 9.00066 11.0666 9.00066 11.3333C9.00066 11.6 9.026 11.84 9.06466 12.066L8.44666 12.4226C8.12733 12.6066 8.01866 13.0146 8.20266 13.3333C8.38733 13.6546 8.80066 13.76 9.11333 13.5773L9.61866 13.286C9.94666 13.6386 10.4047 13.8613 11 13.9513V14.6673C11 15.0353 11.2987 15.334 11.6667 15.334C12.0347 15.334 12.3333 15.0353 12.3333 14.6673V13.9513C12.9287 13.8613 13.3867 13.6386 13.7147 13.286L14.22 13.5773C14.5327 13.76 14.946 13.6553 15.1307 13.3333C15.3147 13.0146 15.206 12.6066 14.8867 12.4226ZM11.6667 12.6666C10.6073 12.6666 10.3333 12.3926 10.3333 11.3333C10.3333 10.274 10.6073 9.99996 11.6667 9.99996C12.726 9.99996 13 10.274 13 11.3333C13 12.3926 12.726 12.6666 11.6667 12.6666Z" fill="#8E8E8E"/>
</g>
<defs>
<clipPath id="clip0_52_1248">
<rect width="16" height="16" fill="white"/>
</clipPath>
</defs>
</svg>
