<svg width="16" height="16" viewBox="0 0 16 16" fill="none" xmlns="http://www.w3.org/2000/svg">
<path d="M6.85401 6.26195H7.33335V6.72995C7.33335 7.09795 7.63135 7.39661 8.00001 7.39661C8.36868 7.39661 8.66668 7.09795 8.66668 6.72995V6.26195H9.14601C9.51468 6.26195 9.81268 5.96328 9.81268 5.59528C9.81268 5.22728 9.51468 4.92861 9.14601 4.92861H8.66668V4.46061C8.66668 4.09261 8.36868 3.79395 8.00001 3.79395C7.63135 3.79395 7.33335 4.09261 7.33335 4.46061V4.92861H6.85401C6.48535 4.92861 6.18735 5.22728 6.18735 5.59528C6.18735 5.96328 6.48535 6.26195 6.85401 6.26195Z" fill="#8E8E8E"/>
<path d="M13.2413 3.13395C13.1887 2.91395 13.028 2.73662 12.814 2.66195C12.7747 2.64795 11.926 2.35329 10.608 2.14195C10.3327 1.37129 9.64466 0.809287 8.8 0.71262C8.26533 0.651954 7.74066 0.651287 7.2 0.71262C6.356 0.80862 5.668 1.36862 5.392 2.14062C4.06733 2.35195 3.22133 2.64995 3.18266 2.66329C2.97066 2.73862 2.81066 2.91595 2.758 3.13462C2.73266 3.23862 2.142 5.70995 2.142 8.63262C2.142 11.5553 2.73266 14.0253 2.758 14.13C2.81066 14.35 2.97133 14.5273 3.18533 14.602C3.27 14.632 5.29933 15.334 8 15.334C10.7233 15.334 12.7333 14.6313 12.8173 14.6013C13.0293 14.526 13.1893 14.3486 13.242 14.13C13.2673 14.026 13.858 11.5546 13.858 8.63262C13.858 5.71062 13.2673 3.23929 13.242 3.13529L13.2413 3.13395ZM12.0247 13.45C11.372 13.636 9.85666 13.9993 8 13.9993C6.15666 13.9993 4.63266 13.6346 3.97533 13.4486C3.81666 12.6706 3.476 10.752 3.476 8.63062C3.476 6.50929 3.81666 4.58729 3.97533 3.81129C4.37533 3.69729 5.09933 3.51595 6.02333 3.39395C6.32733 3.35395 6.56733 3.09129 6.60133 2.78662C6.644 2.39595 6.96 2.07995 7.35 2.03595C7.74533 1.99195 8.25133 1.99129 8.64866 2.03595C9.03933 2.08062 9.35466 2.39662 9.39933 2.79595C9.42933 3.10462 9.668 3.35395 9.97533 3.39462C10.8967 3.51729 11.6227 3.69795 12.0247 3.81195C12.1827 4.58795 12.5233 6.50329 12.5233 8.62995C12.5233 10.7566 12.1827 12.6726 12.024 13.4486L12.0247 13.45Z" fill="#8E8E8E"/>
<path d="M10.3973 8.46069H5.60334C5.23468 8.46069 4.93668 8.75936 4.93668 9.12736C4.93668 9.49536 5.23468 9.79403 5.60334 9.79403H10.3973C10.766 9.79403 11.064 9.49536 11.064 9.12736C11.064 8.75936 10.766 8.46069 10.3973 8.46069Z" fill="#8E8E8E"/>
<path d="M7.83 11.014H5.60267C5.234 11.014 4.936 11.3127 4.936 11.6807C4.936 12.0487 5.234 12.3474 5.60267 12.3474H7.83C8.19867 12.3474 8.49667 12.0487 8.49667 11.6807C8.49667 11.3127 8.19867 11.014 7.83 11.014Z" fill="#8E8E8E"/>
</svg>
