<svg width="14" height="14" viewBox="0 0 14 14" fill="none" xmlns="http://www.w3.org/2000/svg">
<path d="M6.99971 12.8259H2.91655C1.95175 12.8259 1.16662 12.0411 1.16662 11.0769V2.91497C1.16662 1.9507 1.95175 1.16599 2.91655 1.16599H5.55019C5.64527 1.16599 5.73976 1.17065 5.83309 1.1794V4.08095C5.83309 5.04522 6.61822 5.82993 7.58302 5.82993H10.9738C11.154 5.82993 11.3244 5.74656 11.4346 5.60431C11.5449 5.46206 11.5834 5.27667 11.539 5.10236C11.3576 4.39344 10.9884 3.74457 10.4698 3.22687L8.43757 1.19572C7.66643 0.425002 6.64097 0 5.55019 0H2.91655C1.30836 0 0 1.30765 0 2.91497V11.0769C0 12.6842 1.30836 13.9918 2.91655 13.9918H6.99971C7.32228 13.9918 7.58302 13.7312 7.58302 13.4088C7.58302 13.0864 7.32228 12.8259 6.99971 12.8259ZM6.99971 1.55018C7.22137 1.67727 7.42669 1.83468 7.61277 2.02007L9.64501 4.05122C9.82817 4.23428 9.98567 4.44066 10.114 4.66395H7.58302C7.26103 4.66395 6.99971 4.40277 6.99971 4.08095V1.55018ZM6.4164 10.4939C6.4164 10.8163 6.15566 11.0769 5.83309 11.0769H2.91655C2.59398 11.0769 2.33324 10.8163 2.33324 10.4939C2.33324 10.1715 2.59398 9.91089 2.91655 9.91089H5.83309C6.15566 9.91089 6.4164 10.1715 6.4164 10.4939ZM6.4164 8.16191C6.4164 8.4843 6.15566 8.7449 5.83309 8.7449H2.91655C2.59398 8.7449 2.33324 8.4843 2.33324 8.16191C2.33324 7.83951 2.59398 7.57891 2.91655 7.57891H5.83309C6.15566 7.57891 6.4164 7.83951 6.4164 8.16191ZM13.2003 7.17956L10.975 6.44208C10.8565 6.40243 10.7265 6.40243 10.6081 6.44208L8.38273 7.17956C7.905 7.33755 7.5836 7.78238 7.5836 8.28492V10.2228C7.5836 12.3041 9.75059 13.5476 10.4127 13.8782C10.4127 13.8782 10.5911 14 10.7924 14C10.9936 14 11.1319 13.9091 11.1319 13.9091C11.8044 13.6385 14 12.5728 14 10.2234V8.2855C14 7.78296 13.6786 7.33814 13.2009 7.18015L13.2003 7.17956ZM12.8328 10.2234C12.8328 11.7281 11.4194 12.511 10.818 12.7763C10.2849 12.4906 8.74964 11.5532 8.74964 10.2234V8.28667L10.7912 7.61039L12.8328 8.2855V10.2234Z" fill="#8E8E8E"/>
</svg>
