<svg width="14" height="14" viewBox="0 0 14 14" fill="none" xmlns="http://www.w3.org/2000/svg">
<path d="M13.2858 11.5H12.2858V10.5H12.7858V8.5H10.7858V9H9.78575V8C9.78575 7.86739 9.83843 7.74021 9.9322 7.64645C10.026 7.55268 10.1531 7.5 10.2858 7.5H13.2858C13.4184 7.5 13.5455 7.55268 13.6393 7.64645C13.7331 7.74021 13.7858 7.86739 13.7858 8V11C13.7858 11.1326 13.7331 11.2598 13.6393 11.3536C13.5455 11.4473 13.4184 11.5 13.2858 11.5Z" fill="black"/>
<path d="M10.7857 14H7.78575C7.65314 14 7.52596 13.9473 7.4322 13.8535C7.33843 13.7598 7.28575 13.6326 7.28575 13.5V10.5C7.28575 10.3674 7.33843 10.2402 7.4322 10.1464C7.52596 10.0527 7.65314 9.99999 7.78575 9.99999H10.7857C10.9184 9.99999 11.0455 10.0527 11.1393 10.1464C11.2331 10.2402 11.2857 10.3674 11.2857 10.5V13.5C11.2857 13.6326 11.2331 13.7598 11.1393 13.8535C11.0455 13.9473 10.9184 14 10.7857 14ZM8.28575 13H10.2857V11H8.28575V13ZM6.28575 8.92899C5.92447 8.83483 5.59683 8.64126 5.34003 8.37026C5.08324 8.09925 4.90758 7.76168 4.83299 7.39585C4.75841 7.03003 4.7879 6.65063 4.91811 6.30072C5.04832 5.95082 5.27403 5.64443 5.56961 5.41636C5.8652 5.18829 6.21881 5.04766 6.5903 5.01046C6.96179 4.97326 7.33627 5.04096 7.67121 5.20589C8.00615 5.37081 8.28814 5.62635 8.48515 5.94349C8.68216 6.26062 8.7863 6.62664 8.78575 6.99999H9.78575C9.78633 6.42789 9.62331 5.86756 9.31593 5.38505C9.00854 4.90255 8.5696 4.518 8.05086 4.27675C7.53211 4.03549 6.95521 3.94759 6.38816 4.02341C5.8211 4.09924 5.28756 4.33561 4.85042 4.70468C4.41329 5.07375 4.0908 5.56011 3.92097 6.10642C3.75115 6.65273 3.74108 7.23621 3.89194 7.78806C4.0428 8.33991 4.34831 8.83711 4.77245 9.22105C5.19658 9.60498 5.72165 9.85964 6.28575 9.95499V8.92899Z" fill="black"/>
<path d="M13.2308 5.775L12.0758 6.79L11.3658 6.08L12.5708 5.02L11.3908 2.98L9.67076 3.56C9.26768 3.22488 8.81138 2.95955 8.32076 2.775L7.96576 1H5.60576L5.25076 2.775C4.75624 2.95451 4.29747 3.22029 3.89576 3.56L2.18076 2.98L1.00076 5.02L2.36076 6.215C2.26831 6.73257 2.26831 7.26243 2.36076 7.78L1.00076 8.98L2.18076 11.02L3.90076 10.44C4.30383 10.7751 4.76013 11.0404 5.25076 11.225L5.60576 13H6.28576V14H5.60576C5.37452 13.9998 5.1505 13.9195 4.97182 13.7727C4.79314 13.626 4.67085 13.4218 4.62576 13.195L4.37076 11.935C4.14409 11.8251 3.92525 11.6999 3.71576 11.56L2.50076 11.97C2.39752 12.0039 2.28943 12.0208 2.18076 12.02C2.00509 12.0214 1.83225 11.9757 1.68016 11.8878C1.52806 11.7999 1.40225 11.6729 1.31576 11.52L0.135757 9.48C0.0190507 9.2795 -0.024317 9.04467 0.0130818 8.81572C0.0504806 8.58677 0.166319 8.37794 0.340757 8.225L1.30076 7.385C1.29076 7.255 1.28576 7.13 1.28576 7C1.28576 6.87 1.29576 6.745 1.30576 6.62L0.340757 5.775C0.166319 5.62206 0.0504806 5.41324 0.0130818 5.18428C-0.024317 4.95533 0.0190507 4.72049 0.135757 4.52L1.31576 2.48C1.40225 2.32709 1.52806 2.2001 1.68016 2.11219C1.83225 2.02427 2.00509 1.97863 2.18076 1.98C2.28943 1.97917 2.39752 1.99606 2.50076 2.03L3.71076 2.44C3.92262 2.30119 4.14306 2.17594 4.37076 2.065L4.62576 0.805C4.67085 0.578206 4.79314 0.374046 4.97182 0.227273C5.1505 0.0805006 5.37452 0.000185751 5.60576 0H7.96576C8.19699 0.000185751 8.42101 0.0805006 8.59969 0.227273C8.77837 0.374046 8.90067 0.578206 8.94576 0.805L9.20076 2.065C9.42742 2.17485 9.64627 2.30015 9.85576 2.44L11.0708 2.03C11.174 1.99606 11.2821 1.97917 11.3908 1.98C11.5664 1.97863 11.7393 2.02427 11.8914 2.11219C12.0434 2.2001 12.1693 2.32709 12.2558 2.48L13.4358 4.52C13.5525 4.72049 13.5958 4.95533 13.5584 5.18428C13.521 5.41324 13.4052 5.62206 13.2308 5.775Z" fill="black"/>
</svg>
